<svg xmlns="http://www.w3.org/2000/svg" viewBox="0 0 175.06 190.91"><defs><style>.cls-1{fill:#6bd99c;}.cls-2{fill:#fff;}.cls-3{opacity:0.1;isolation:isolate;}.cls-4{fill:#a0616a;}.cls-5{fill:#2f2e41;}.cls-6{fill:#f6f6f6;}.cls-7{fill:#d6d6d6;}</style></defs><g id="Calque_2" data-name="Calque 2"><g id="Calque_1-2" data-name="Calque 1"><path id="Tracé_378" data-name="Tracé 378" class="cls-1" d="M142.17,40.83A20.26,20.26,0,1,1,118,25.43h0A20.27,20.27,0,0,1,142.17,40.83ZM120.92,31.3A14,14,0,1,0,136.3,43.75h0A14,14,0,0,0,120.92,31.3Z"/><path id="Tracé_379" data-name="Tracé 379" class="cls-1" d="M174.69,37.9a15.35,15.35,0,1,1-18.31-11.67h0A15.35,15.35,0,0,1,174.69,37.9Zm-17.14-6.4a10,10,0,1,0,11.86,7.57h0a9.94,9.94,0,0,0-11.85-7.57Z"/><path id="Tracé_380" data-name="Tracé 380" class="cls-1" d="M124.51,34.58a12,12,0,0,0-12,12,1.33,1.33,0,0,0,2.65,0,9.3,9.3,0,0,1,9.29-9.29,1.33,1.33,0,0,0,0-2.66Z"/><path id="Tracé_381" data-name="Tracé 381" class="cls-2" d="M13.82,29.26H8.32l0-21.65H0V2.22l22,0V7.6l-8.26,0Z"/><path id="Tracé_382" data-name="Tracé 382" class="cls-2" d="M30.6,3.53a3.29,3.29,0,0,1-.28,1.34,3.47,3.47,0,0,1-1.87,1.82,3.55,3.55,0,0,1-2.75,0A3.5,3.5,0,0,1,24.58,6,3.46,3.46,0,0,1,27.05.08a3.57,3.57,0,0,1,1.38.27,3.85,3.85,0,0,1,1.13.73A3.37,3.37,0,0,1,30.6,3.53Zm-.87,25.71H24.45L24.42,9H29.7Z"/><path id="Tracé_383" data-name="Tracé 383" class="cls-2" d="M53.65,26.65a9.81,9.81,0,0,1-.82,4,10.27,10.27,0,0,1-2.25,3.27,10.66,10.66,0,0,1-3.34,2.22,10.39,10.39,0,0,1-4.08.81l-2.64,0V31.77l2.6,0a6,6,0,0,0,2.1-.32,4.17,4.17,0,0,0,1.45-.85,4.27,4.27,0,0,0,1-1.24,8,8,0,0,0,.57-1.47,2.34,2.34,0,0,1-.88.8,6.4,6.4,0,0,1-1.27.52,9.15,9.15,0,0,1-1.46.27c-.51.05-1,.07-1.42.08a11.37,11.37,0,0,1-4.08-.73,9.93,9.93,0,0,1-3.35-2.1,9.77,9.77,0,0,1-2.26-3.35,11.61,11.61,0,0,1-.83-4.48,11,11,0,0,1,.82-4.24,10.47,10.47,0,0,1,9.68-6.48,8.33,8.33,0,0,1,2,.25,10,10,0,0,1,1.9.68,11.75,11.75,0,0,1,1.75,1,13.53,13.53,0,0,1,1.57,1.26l2-2.4h1.26Zm-5.3-7.73a5.27,5.27,0,0,0-.41-2,6.38,6.38,0,0,0-1.13-1.76,5.53,5.53,0,0,0-1.66-1.22,4.6,4.6,0,0,0-2-.46,5.44,5.44,0,0,0-2,.36,4.72,4.72,0,0,0-1.65,1.06,4.91,4.91,0,0,0-1.1,1.73,6.44,6.44,0,0,0-.4,2.34,5.76,5.76,0,0,0,.41,2.28,4.85,4.85,0,0,0,1.11,1.72A4.6,4.6,0,0,0,41.11,24a5.39,5.39,0,0,0,2,.39,4.61,4.61,0,0,0,2-.47,5.69,5.69,0,0,0,1.66-1.23A6.08,6.08,0,0,0,48,21a5.31,5.31,0,0,0,.4-2Z"/><path id="Tracé_384" data-name="Tracé 384" class="cls-2" d="M77.57,26.62a9.85,9.85,0,0,1-.82,4,10.37,10.37,0,0,1-2.26,3.26,10.6,10.6,0,0,1-3.34,2.22,10.21,10.21,0,0,1-4.08.81l-2.64,0V31.73l2.59,0a6.23,6.23,0,0,0,2.1-.32,4.3,4.3,0,0,0,1.46-.86,4.36,4.36,0,0,0,1-1.23,8.54,8.54,0,0,0,.57-1.48,2.44,2.44,0,0,1-.88.81,6.1,6.1,0,0,1-1.28.51,8,8,0,0,1-1.46.28c-.51.05-1,.07-1.41.08A11.13,11.13,0,0,1,63,28.82a9.67,9.67,0,0,1-5.61-5.44,11.28,11.28,0,0,1-.83-4.48,10.64,10.64,0,0,1,.82-4.24,10.43,10.43,0,0,1,9.68-6.48,8.18,8.18,0,0,1,2,.25,9.77,9.77,0,0,1,1.9.68,12.74,12.74,0,0,1,1.76,1,15.9,15.9,0,0,1,1.56,1.26l2-2.4h1.27Zm-5.3-7.74a5.14,5.14,0,0,0-.42-2,6.13,6.13,0,0,0-1.12-1.76,5.84,5.84,0,0,0-1.66-1.22,4.75,4.75,0,0,0-2-.46,5.65,5.65,0,0,0-2,.37,4.58,4.58,0,0,0-1.65,1.06,4.82,4.82,0,0,0-1.1,1.72,6.29,6.29,0,0,0-.4,2.35,5.68,5.68,0,0,0,.41,2.27,5,5,0,0,0,1.11,1.73A4.73,4.73,0,0,0,65,24a5.2,5.2,0,0,0,2,.38,4.47,4.47,0,0,0,2-.46,5.88,5.88,0,0,0,1.66-1.23,6.13,6.13,0,0,0,1.12-1.76,5.31,5.31,0,0,0,.4-2.05Z"/><path id="Tracé_385" data-name="Tracé 385" class="cls-2" d="M87.72,3.44a3.3,3.3,0,0,1-.28,1.35,3.47,3.47,0,0,1-1.87,1.82,3.64,3.64,0,0,1-2.75,0,3.37,3.37,0,0,1-1.12-.74A3.5,3.5,0,0,1,81,4.79a3.47,3.47,0,0,1-.28-1.35A3.37,3.37,0,0,1,81.7,1,3.51,3.51,0,0,1,82.81.27,3.56,3.56,0,0,1,84.18,0a3.65,3.65,0,0,1,1.38.27A3.73,3.73,0,0,1,86.68,1a3.2,3.2,0,0,1,.76,1.1A3.65,3.65,0,0,1,87.72,3.44Zm-.87,25.71H81.57l0-20.22h5.28Z"/><g id="Groupe_39" data-name="Groupe 39"><g id="Groupe_38" data-name="Groupe 38"><g id="Groupe_37" data-name="Groupe 37"><g id="Groupe_36" data-name="Groupe 36"><path id="Tracé_386" data-name="Tracé 386" class="cls-2" d="M96.16,56.21H94.91l-2-2.76a13.18,13.18,0,0,1-1.56,1.23,10.24,10.24,0,0,1-1.73,1,10.42,10.42,0,0,1-1.87.67,7.88,7.88,0,0,1-1.94.25,10.26,10.26,0,0,1-9.56-6.36,11.35,11.35,0,0,1,0-8.44,10.31,10.31,0,0,1,5.52-5.62,10.1,10.1,0,0,1,4-.81,8.49,8.49,0,0,1,1.42.11,7,7,0,0,1,1.42.36,5.93,5.93,0,0,1,1.3.67,3.73,3.73,0,0,1,1,1l0-9.37h5.21Zm-5.77-10.3a5.27,5.27,0,0,0-.41-2,6.32,6.32,0,0,0-1.11-1.76,5.49,5.49,0,0,0-1.65-1.22,4.61,4.61,0,0,0-2-.46,5.3,5.3,0,0,0-2,.38,4.58,4.58,0,0,0-1.63,1.09,4.94,4.94,0,0,0-1.09,1.72,6.25,6.25,0,0,0-.39,2.3,5.72,5.72,0,0,0,1.5,3.88A5,5,0,0,0,83.24,51a4.62,4.62,0,0,0,2,.43,4.23,4.23,0,0,0,2-.47,5.48,5.48,0,0,0,1.64-1.23A5.89,5.89,0,0,0,90,48a5.32,5.32,0,0,0,.41-2.05Z"/></g></g><path id="Tracé_387" data-name="Tracé 387" class="cls-2" d="M90.9,28.57h5.22V8.93H90.9Z"/></g></g><g id="Groupe_1226" data-name="Groupe 1226"><ellipse id="Ellipse_320" data-name="Ellipse 320" class="cls-3" cx="133.53" cy="184.94" rx="28.75" ry="5.98"/><path id="Tracé_2656" data-name="Tracé 2656" class="cls-4" d="M107.94,66.84l-.42.85-1.26-6.32s-1.69-6.73,1.68-6.73,2.53,6.73,2.53,6.73V66Z"/><path id="Tracé_2657" data-name="Tracé 2657" class="cls-4" d="M163.17,63.37l.43.85,1.26-6.32s1.68-6.73-1.69-6.73-2.52,6.73-2.52,6.73v4.63Z"/><path id="Tracé_2658" data-name="Tracé 2658" class="cls-5" d="M126.46,114.18l-5,31.15,2.53,30.31,5.89-2.52L129,150.38l5.89-18.1,1.27,21.47-2.53,22.31,7.58.85L146.67,131l-.42-15.58Z"/><path id="Tracé_2659" data-name="Tracé 2659" class="cls-5" d="M126.46,171.85l-2.94,4.63v10.35a1.25,1.25,0,0,0,1,1.24c1.45.24,4,.4,4.84-1.06,1.26-2.1.42-6.74.42-6.74s1.69-3.37.84-5.89-1.68-2.95-1.68-2.95Z"/><path id="Tracé_2660" data-name="Tracé 2660" class="cls-5" d="M139.09,176.06l.84,1.27s1.27,1.26.43,2.1a16.35,16.35,0,0,0-1.69,2.1s-4.63,1.26-4.63-.42v-5.47Z"/><circle id="Ellipse_319" data-name="Ellipse 319" class="cls-4" cx="137.58" cy="74.34" r="5.58"/><path id="Tracé_2661" data-name="Tracé 2661" class="cls-4" d="M133.83,76.09l-.42,8,7.58.42-.42-8Z"/><path id="Tracé_2662" data-name="Tracé 2662" class="cls-6" d="M142,84.71l-1.2-2.92s-5.54-2.13-7.22,0l-.84,2.52-6.84-1.58L122.25,91l3.37,24s8.84,11.36,20.63.42l3.37-22.73-2.53-8.85Z"/><path id="Tracé_2664" data-name="Tracé 2664" class="cls-7" d="M126,82.89v-.28l-8.84-5.47-6.31-12.63-5,1.68,5.47,15.58,11,9.33,2.44-3.82Z"/><path id="Tracé_2665" data-name="Tracé 2665" class="cls-5" d="M141.72,65.79l.91-.45-1.37-.46v-.45s-6.84-2.74-7.76,1.82a9.2,9.2,0,0,0,0,11v1.37l7.3.91.92-2.74S146.28,68.53,141.72,65.79Z"/><path id="Tracé_2663" data-name="Tracé 2663" class="cls-7" d="M147.09,84.11l-.13-.2,8.55-6.35,5.14-16.41,4,1.84-4.48,19.56L149.5,92.94l-1.94-4.39Z"/></g></g></g></svg>