<svg xmlns="http://www.w3.org/2000/svg" viewBox="0 0 205.05 248.41"><defs><style>.cls-1{opacity:0.1;isolation:isolate;}.cls-2{fill:#5ccb8b;}.cls-3{fill:#11404e;}.cls-4{fill:#59b5a1;}.cls-5{fill:#81ade1;}.cls-6{fill:#645cb7;}.cls-7{fill:#0c5769;}.cls-8{fill:#410995;stroke:#410995;}</style></defs><g id="Calque_2" data-name="Calque 2"><g id="Calque_1-2" data-name="Calque 1"><ellipse id="Ellipse_114" data-name="Ellipse 114" class="cls-1" cx="116.55" cy="239.64" rx="63" ry="8.76"/><g id="Groupe_167" data-name="Groupe 167"><path id="Tracé_831" data-name="Tracé 831" class="cls-2" d="M98.1,109.61S89.72,76.1,69.53,67s-20.69,16.28-7.39,35.36,48,40.74,48,40.74Z"/><path id="Tracé_832" data-name="Tracé 832" class="cls-3" d="M110.17,144.58a1.61,1.61,0,0,0,.82-.25,1.48,1.48,0,0,0,.41-2h0L71.25,82.2a1.47,1.47,0,0,0-2.45,1.63l40.14,60.09A1.47,1.47,0,0,0,110.17,144.58Z"/><path id="Tracé_833" data-name="Tracé 833" class="cls-4" d="M170,158.88s6.17,10.29-3.53,20S126,181.52,126,181.52s3.36-15.17,16.46-21.16S166.22,149.76,170,158.88Z"/><path id="Tracé_834" data-name="Tracé 834" class="cls-5" d="M153.05,73.45c2.54-12-.22-22.93-8.59-28.9,10-19.78,7.13-41.4-10.26-44.13-17.6-2.77-39.6,8-34.1,35.92a79.52,79.52,0,0,0,2.14,8.47C90.3,51,82.43,62.8,86.66,81c.09.39.19.78.28,1.17-7,8.81-10.31,21.17-6.81,37.41,9,41.9,33.24,49.27,33.24,49.27s21.94-6,39.12-35.91C165.48,110.31,166.06,85.82,153.05,73.45Z"/><path id="Tracé_835" data-name="Tracé 835" class="cls-4" d="M109.73,187.13s-5.11-38.77-9.23-42.9c-4.29-4.29-5.55,1.83-5.55,1.83s-3.46-29.85-11.55-33.93-12.47,5-12.47,5,2.9-32.23-21.79-34.74C37.3,81.23,34.62,95.29,34.62,95.29S18.9,75.55,4.19,92.48c-12.32,14.16,6.45,27.44,6.45,27.44s-14.4,9.23-3.86,22.35,28.34,9.5,28.34,9.5-10.1,10.17-.76,14.87,32.06.2,32.06.2-12,5.44-2.87,10S109.73,187.13,109.73,187.13Z"/><path id="Tracé_836" data-name="Tracé 836" class="cls-3" d="M124.59,39.59A1.47,1.47,0,0,0,123,41L110.44,206.43A1.48,1.48,0,0,0,111.8,208h.12a1.48,1.48,0,0,0,1.47-1.37L126,41.17a1.47,1.47,0,0,0-1.34-1.58Z"/><path id="Tracé_837" data-name="Tracé 837" class="cls-3" d="M158,173.37l-7.79-2.65c3.11-1.13,5.88-2.06,7.76-2.67a1.48,1.48,0,0,0-.8-2.85l-.1,0c-1,.34-25.15,8.12-30.69,13.66-5.74,5.74-5.25,22.54-5.23,23.25a1.47,1.47,0,0,0,1.47,1.44h.06a1.48,1.48,0,0,0,1.43-1.53h0c-.15-4.5.35-17.05,4.37-21.07,2.51-2.51,10.16-5.87,17.36-8.63l11.22,3.81a1.47,1.47,0,0,0,1-2.79Z"/><path id="Tracé_838" data-name="Tracé 838" class="cls-3" d="M111,186.37C101.84,171.07,78.44,150,59,134l.44-27.68a1.47,1.47,0,1,0-2.94-.11s0,0,0,.06l-.4,25.34C42.05,120.15,30.68,111.76,29.59,111a1.47,1.47,0,1,0-1.75,2.37h0c.22.17,8.12,6,19,14.67H23.77a1.47,1.47,0,1,0-.08,2.94H50.51C58,137,66.63,144.17,75,151.62l-17.69,3.23a1.48,1.48,0,0,0,.26,2.93,1.23,1.23,0,0,0,.27,0l19.94-3.63c13,11.79,24.93,24.07,30.72,33.76a1.46,1.46,0,0,0,1.27.72,1.54,1.54,0,0,0,.76-.2A1.49,1.49,0,0,0,111,186.37Z"/><path id="Tracé_839" data-name="Tracé 839" class="cls-2" d="M120.61,171.57s-7.25-41.31-1.42-41.31a7.33,7.33,0,0,1,7.26,4.88s-3.45-23.64,3-30,10.84-4.93,10.84-4.93-12.8-24.38,9.85-34.48C161,60.84,167.88,68,167.88,68s8.74-23.66,28-12.18c16.12,9.6,2.46,28.07,2.46,28.07s10.84,8.87,4.93,24.63-18.22,13.29-18.22,13.29,7.38,9.85,0,17.24S161.54,143,161.54,143s7.2,2.15,0,9.35S120.61,171.57,120.61,171.57Z"/><path id="Tracé_840" data-name="Tracé 840" class="cls-3" d="M180.67,107.61l-18.8,6c11-13.31,20.12-23.54,20.35-23.79a1.48,1.48,0,1,0-2.21-2c-1.13,1.26-14.35,16.16-28.2,33.38l1.72-19.46a1.48,1.48,0,1,0-2.94-.26l-2.13,23.91c-14.06,17.76-27.82,37-29.31,45.92-3,18-5.48,37.78-5.5,38a1.49,1.49,0,0,0,1.28,1.65h.19a1.49,1.49,0,0,0,1.46-1.3c0-.19,2.5-19.88,5.48-37.85,1.65-9.89,20.25-34.35,36.33-54l23.15-7.38a1.47,1.47,0,0,0,1-1.85,1.43,1.43,0,0,0-1.77-1Z"/><rect id="Rectangle_316" data-name="Rectangle 316" class="cls-6" x="90.93" y="194.71" width="48.17" height="44.93"/><rect id="Rectangle_317" data-name="Rectangle 317" class="cls-7" x="81.64" y="185.85" width="70.42" height="3.67"/><path id="Tracé_841" data-name="Tracé 841" class="cls-8" d="M86,189.53h61.79v8H86Z"/></g></g></g></svg>