<?xml version="1.0" encoding="utf-8"?>
<!-- Generator: Adobe Illustrator 25.1.0, SVG Export Plug-In . SVG Version: 6.00 Build 0)  -->
<svg version="1.1" id="Calque_1" xmlns="http://www.w3.org/2000/svg" xmlns:xlink="http://www.w3.org/1999/xlink" x="0px" y="0px"
	 viewBox="0 0 100 100" style="enable-background:new 0 0 100 100;" xml:space="preserve">
<style type="text/css">
	.st0{fill:#6D6D6D;}
</style>
<g id="Icon_ionic-ios-help-circle-outline" transform="translate(-3.375 -3.375)">
	<path id="Tracé_3760" class="st0" d="M53.1,36.7c8.3,0,14.9,6.7,14.9,15c0,8.3-6.7,14.9-15,14.9c-8.3,0-14.9-6.7-14.9-15
		c0-4,1.6-7.8,4.4-10.6C45.3,38.2,49.1,36.7,53.1,36.7 M53.1,34.4c-9.5,0-17.3,7.7-17.3,17.3s7.7,17.3,17.3,17.3s17.3-7.7,17.3-17.3
		C70.4,42.1,62.6,34.4,53.1,34.4C53.1,34.4,53.1,34.4,53.1,34.4z"/>
	<path id="Tracé_3761" class="st0" d="M53.2,43.7c3.1,0,5.3,1.7,5.3,4.2c0,1.6-0.9,3-2.3,3.7c-1.4,0.8-1.9,1.5-1.9,2.5v0.7h-2.9
		l0-0.7c-0.2-1.5,0.6-3,2-3.7c1.4-0.8,2-1.4,2-2.4c-0.1-1.1-1.1-1.9-2.2-1.8c0,0,0,0,0,0c-1.2-0.1-2.2,0.8-2.2,2c0,0,0,0,0,0.1h-3
		C47.8,45.5,49.8,43.7,53.2,43.7z M51,57.9c0-1,0.7-1.8,1.7-1.9c1,0,1.8,0.7,1.9,1.7c0,1-0.7,1.8-1.7,1.9c0,0-0.1,0-0.1,0
		C51.8,59.6,51,58.9,51,57.9C51,57.9,51,57.9,51,57.9z"/>
</g>
</svg>
