<?xml version="1.0" encoding="utf-8"?>
<!-- Generator: Adobe Illustrator 25.1.0, SVG Export Plug-In . SVG Version: 6.00 Build 0)  -->
<svg version="1.1" id="Calque_1" xmlns="http://www.w3.org/2000/svg" xmlns:xlink="http://www.w3.org/1999/xlink" x="0px" y="0px"
	 viewBox="0 0 100 100" style="enable-background:new 0 0 100 100;" xml:space="preserve">
<style type="text/css">
	.st0{fill:#6D6D6D;}
</style>
<g id="request" transform="translate(329.199 -235)">
	<path id="Tracé_3748" class="st0" d="M-267.6,262h-23c-4.2,0-7.5,3.4-7.5,7.5c0,0,0,0,0,0V304c0,1,0.8,1.8,1.8,1.8
		c0.4,0,0.8-0.1,1.1-0.4l7.2-5.4h20.5c4.2,0,7.5-3.4,7.5-7.5c0,0,0,0,0,0v-23C-260.1,265.4-263.4,262-267.6,262
		C-267.6,262-267.6,262-267.6,262z M-263.6,292.5c0,2.2-1.8,4-4,4c0,0,0,0,0,0h-21.1c-0.4,0-0.8,0.1-1.1,0.4l-4.8,3.6v-30.9
		c0-2.2,1.8-4,4-4c0,0,0,0,0,0h23c2.2,0,4,1.8,4,4c0,0,0,0,0,0L-263.6,292.5z"/>
</g>
</svg>
