<?xml version="1.0" encoding="utf-8"?>
<!-- Generator: Adobe Illustrator 25.1.0, SVG Export Plug-In . SVG Version: 6.00 Build 0)  -->
<svg version="1.1" id="Calque_1" xmlns="http://www.w3.org/2000/svg" xmlns:xlink="http://www.w3.org/1999/xlink" x="0px" y="0px"
	 viewBox="25 23 50 50" style="enable-background:new 0 0 100 100;" xml:space="preserve">
<style type="text/css">
	.st0{fill:#626262;}
</style>
<g id="Groupe_2062" transform="translate(0)">
	<g id="Groupe_2061">
		<path id="Tracé_3643" class="st0" d="M64.9,29.8L64.9,29.8c-0.7-0.3-1.5-0.2-2,0.3l-2.6,2.3l-3.6-3.2c-0.7-0.6-1.8-0.6-2.5,0
			l-3.6,3.2l-3.6-3.2c-0.7-0.6-1.8-0.6-2.5,0L41,32.4l-2.6-2.3c-0.8-0.7-2-0.6-2.6,0.2c-0.3,0.3-0.5,0.8-0.5,1.3v34.7
			c0,1,0.8,1.9,1.9,1.9c0.5,0,0.9-0.2,1.3-0.5l2.6-2.3l3.6,3.2c0.7,0.6,1.8,0.6,2.5,0l3.6-3.2l3.6,3.2c0.7,0.6,1.8,0.6,2.5,0
			l3.6-3.2l2.6,2.3c0.8,0.7,2,0.6,2.6-0.2c0.3-0.3,0.5-0.8,0.5-1.3V31.5C66,30.8,65.6,30.1,64.9,29.8z M61.5,63.9
			c-0.7-0.6-1.8-0.6-2.5,0l-3.6,3.2l-3.6-3.2c-0.7-0.6-1.8-0.6-2.5,0l-3.6,3.2l-3.6-3.2c-0.7-0.6-1.8-0.6-2.5,0l-2.6,2.3v-5l0-29.7
			l2.6,2.3c0.7,0.6,1.8,0.6,2.5,0l3.6-3.2l3.6,3.2c0.7,0.6,1.8,0.6,2.5,0l3.6-3.2l3.6,3.2c0.7,0.6,1.8,0.6,2.5,0l2.6-2.3v23.9
			l0,10.9L61.5,63.9z"/>
	</g>
</g>
<g id="Groupe_2064" transform="translate(5.009 17.516)">
	<g id="Groupe_2063" transform="translate(0)">
		<path id="Tracé_3644" class="st0" d="M54.6,30.4H36.7c-0.5,0-0.9,0.5-0.9,1c0,0.5,0.4,0.9,0.9,0.9h17.9c0.5,0,0.9-0.5,0.9-1
			C55.5,30.8,55.1,30.4,54.6,30.4L54.6,30.4z"/>
	</g>
</g>
<g id="Groupe_2066" transform="translate(5.009 12.352)">
	<g id="Groupe_2065" transform="translate(0)">
		<path id="Tracé_3645" class="st0" d="M46.1,29.9h-9.4c-0.5,0-1,0.4-1,0.9c0,0.5,0.4,1,0.9,1c0,0,0,0,0.1,0h9.4c0.5,0,1-0.4,1-0.9
			C47.1,30.4,46.7,29.9,46.1,29.9C46.1,29.9,46.1,29.9,46.1,29.9L46.1,29.9z"/>
	</g>
</g>
<g id="Groupe_2068" transform="translate(5.009 22.679)">
	<g id="Groupe_2067" transform="translate(0)">
		<path id="Tracé_3646" class="st0" d="M54.6,30.9H36.7c-0.5,0-1,0.4-1,0.9c0,0.5,0.4,1,0.9,1c0,0,0,0,0.1,0h17.9
			c0.5,0,0.9-0.5,0.9-1C55.5,31.3,55.1,30.9,54.6,30.9L54.6,30.9z"/>
	</g>
</g>
</svg>
