<?xml version="1.0" encoding="utf-8"?>
<!-- Generator: Adobe Illustrator 25.1.0, SVG Export Plug-In . SVG Version: 6.00 Build 0)  -->
<svg version="1.1" id="Calque_1" xmlns="http://www.w3.org/2000/svg" xmlns:xlink="http://www.w3.org/1999/xlink" x="0px" y="0px"
	 viewBox="26 23 50 50" style="enable-background:new 0 0 100 100;" xml:space="preserve">
<style type="text/css">
	.st0{fill:#2880F9;}
</style>
<path id="Tracé_3641" class="st0" d="M50.9,48.1c2.6,0,5.1-1,6.9-2.8c1.9-1.8,2.9-4.3,2.8-6.9c0-2.6-1-5.1-2.8-6.9
	c-3.8-3.8-9.9-3.8-13.7,0c-1.9,1.8-2.9,4.3-2.8,6.9c0,2.6,1,5.1,2.8,6.9C45.8,47.1,48.3,48.1,50.9,48.1z M45.7,33.2
	c2.9-2.9,7.5-2.9,10.4,0c0,0,0,0,0,0c1.4,1.4,2.2,3.2,2.2,5.2c0,2-0.7,3.8-2.2,5.2c-2.9,2.9-7.5,2.9-10.4,0c0,0,0,0,0,0
	c-1.4-1.4-2.2-3.2-2.2-5.2C43.5,36.4,44.3,34.5,45.7,33.2z"/>
<path id="Tracé_3642" class="st0" d="M67.9,59.7c-0.1-0.9-0.2-1.7-0.3-2.5c-0.2-0.9-0.4-1.7-0.6-2.6c-0.3-0.8-0.6-1.6-1.1-2.4
	c-0.4-0.8-1-1.5-1.6-2.1c-0.7-0.6-1.4-1.1-2.3-1.4c-0.9-0.4-1.9-0.5-2.9-0.5c-0.6,0.1-1.1,0.3-1.6,0.7c-0.5,0.3-1,0.7-1.6,1.1
	c-0.7,0.4-1.4,0.7-2.1,0.9c-1.7,0.6-3.5,0.6-5.2,0c-0.7-0.2-1.5-0.5-2.1-0.9c-0.6-0.4-1.2-0.7-1.6-1.1c-0.4-0.4-1-0.6-1.6-0.7
	c-1,0-2,0.2-2.9,0.5c-0.8,0.3-1.6,0.8-2.3,1.4c-0.6,0.6-1.2,1.3-1.6,2.1c-0.4,0.8-0.8,1.6-1.1,2.4c-0.3,0.8-0.5,1.7-0.6,2.6
	c-0.2,0.8-0.3,1.7-0.3,2.5c-0.1,0.8-0.1,1.6-0.1,2.4c-0.1,1.9,0.6,3.7,2,5.1c1.4,1.3,3.2,1.9,5.1,1.9h19.4c1.9,0.1,3.7-0.6,5.1-1.9
	c1.4-1.3,2.1-3.2,2-5.1C67.9,61.2,67.9,60.4,67.9,59.7z M64.3,65.4c-1,0.9-2.2,1.3-3.5,1.2H41.4c-1.3,0.1-2.5-0.4-3.5-1.2
	c-0.9-0.9-1.3-2.1-1.3-3.4c0-0.8,0-1.5,0.1-2.2c0.1-0.8,0.2-1.5,0.3-2.3c0.1-0.8,0.3-1.5,0.6-2.3c0.2-0.7,0.5-1.3,0.9-1.9
	c0.3-0.6,0.7-1.1,1.2-1.5c0.4-0.4,1-0.7,1.5-0.9c0.6-0.2,1.2-0.3,1.9-0.4c0.1,0,0.2,0.1,0.5,0.3c0.5,0.3,1,0.7,1.7,1.1
	c0.8,0.5,1.7,0.9,2.7,1.2c2.2,0.7,4.5,0.7,6.7,0c0.9-0.3,1.8-0.7,2.7-1.2c0.6-0.4,1.2-0.8,1.7-1.1c0.2-0.2,0.4-0.2,0.5-0.3
	c0.6,0,1.3,0.1,1.9,0.4c0.6,0.2,1.1,0.5,1.5,0.9c0.5,0.5,0.9,1,1.2,1.5c0.4,0.6,0.6,1.3,0.9,1.9c0.2,0.7,0.4,1.5,0.6,2.3
	c0.1,0.8,0.2,1.5,0.3,2.3l0,0c0.1,0.7,0.1,1.5,0.1,2.2C65.6,63.3,65.2,64.5,64.3,65.4z"/>
</svg>
