<?xml version="1.0" encoding="utf-8"?>
<!-- Generator: Adobe Illustrator 25.1.0, SVG Export Plug-In . SVG Version: 6.00 Build 0)  -->
<svg version="1.1" id="Calque_1" xmlns="http://www.w3.org/2000/svg" xmlns:xlink="http://www.w3.org/1999/xlink" x="0px" y="0px"
	 viewBox="0 0 100 100" style="enable-background:new 0 0 100 100;" xml:space="preserve">
<style type="text/css">
	.st0{fill:#6D6D6D;}
</style>
<g id="Groupe_2163">
	<g id="Groupe_2162" transform="translate(0 0)">
		<path id="Tracé_3666" class="st0" d="M65.6,46V34.8c-0.1-1.9-1.7-3.4-3.6-3.3c0,0,0,0,0,0H59v-2.4c0.1-0.3-0.2-0.6-0.5-0.7
			c-0.1,0-0.1,0-0.2,0h-4.2c-0.5,0-0.8,0.2-0.8,0.7v2.4h-9.6v-2.4c0-0.5-0.6-0.7-1.1-0.7h-4.2c-0.5,0-0.9,0.2-0.9,0.7v2.4h-2.7
			c-1.8-0.1-3.4,1.3-3.5,3.1c0,0.1,0,0.1,0,0.2v25.4c0,1.8,1.5,3.3,3.3,3.3c0.1,0,0.1,0,0.2,0h14.6c4.1,5.2,11.7,6.1,16.9,1.9
			c2.9-2.3,4.5-5.7,4.5-9.4C70.9,52,68.9,48.3,65.6,46z M55.1,30.2h2.2v3.9h-2.2V30.2z M39.3,30.2H42v3.9h-2.6L39.3,30.2z
			 M33.2,34.8c0-0.9,0.7-1.5,1.5-1.5c0.1,0,0.1,0,0.2,0h2.7v1.7c0,0.5,0.4,0.9,0.9,1h4.2c0.5,0,1-0.4,1.1-1v-1.7h9.6v1.7
			c0,0.5,0.3,0.9,0.8,1h4.2c0.5,0,0.7-0.5,0.7-1v-1.7H62c0.9-0.1,1.8,0.6,1.9,1.5c0,0,0,0,0,0v5.5H33.2V34.8z M34.9,61.8
			c-0.8,0.1-1.6-0.5-1.7-1.4c0-0.1,0-0.1,0-0.2V42h30.7v3c-1.5-0.7-3.2-1-4.9-1.1c-6.7,0-12,5.4-12,12.1c0,2,0.5,3.9,1.4,5.7
			L34.9,61.8L34.9,61.8z M58.9,66.3c-5.7,0-10.3-4.6-10.3-10.3c0-5.7,4.6-10.3,10.3-10.3c5.7,0,10.3,4.6,10.3,10.3c0,0,0,0,0,0
			c0,0,0,0.1,0,0.1C69.2,61.7,64.6,66.3,58.9,66.3L58.9,66.3z"/>
		<path id="Tracé_3667" class="st0" d="M63,56.1h-4v-5.3c0-0.5-0.4-0.9-0.9-0.9c-0.5,0-0.9,0.4-0.9,0.9v6.1
			c0.1,0.5,0.5,0.9,1.1,0.9H63c0.5,0,0.9-0.4,0.9-0.9C63.9,56.5,63.5,56.1,63,56.1L63,56.1z"/>
	</g>
</g>
</svg>
