<svg xmlns="http://www.w3.org/2000/svg" xmlns:xlink="http://www.w3.org/1999/xlink" width="629.402" height="431.33" viewBox="0 0 629.402 431.33"><defs><style>.a,.c,.d,.h,.k{fill:#fff;}.b{fill:#277ff9;}.c,.e,.i{font-size:10px;}.c,.g{font-family:Avenir-Black, Avenir;font-weight:800;}.d{stroke:#8e8f8d;}.e,.j{fill:#656565;}.e,.i,.j{font-family:Avenir-Medium, Avenir;font-weight:500;}.f{fill:#8e8f8d;}.g{fill:#2880fb;}.g,.j{font-size:6px;}.i{fill:#797979;}.j,.k{stroke:#8b8e8f;}.l{fill:#a0616a;}.m{fill:#2f2e41;}.n{fill:#d0cde1;}.o{fill:#3f3d56;opacity:0.247;}.p{fill:#28cc8b;}.q,.s{fill:none;}.q{stroke:#707070;stroke-width:3px;}.r,.t{stroke:none;}.t{fill:#8b8e8f;}.u{filter:url(#c);}.v{filter:url(#a);}</style><filter id="a" x="0" y="0" width="596.849" height="387.465" filterUnits="userSpaceOnUse"><feOffset dx="10" dy="10" input="SourceAlpha"/><feGaussianBlur stdDeviation="12.5" result="b"/><feFlood flood-opacity="0.161"/><feComposite operator="in" in2="b"/><feComposite in="SourceGraphic"/></filter><filter id="c" x="407.033" y="134.284" width="114.055" height="114.86" filterUnits="userSpaceOnUse"><feOffset dx="5" dy="5" input="SourceAlpha"/><feGaussianBlur stdDeviation="2.5" result="d"/><feFlood flood-opacity="0.161"/><feComposite operator="in" in2="d"/><feComposite in="SourceGraphic"/></filter></defs><g transform="translate(41.5 27.26)"><g class="v" transform="matrix(1, 0, 0, 1, -41.5, -27.26)"><rect class="a" width="521.849" height="312.465" transform="translate(27.5 27.5)"/></g><g transform="translate(368.033 109.524)"><g class="u" transform="matrix(1, 0, 0, 1, -409.53, -136.78)"><rect class="b" width="99.055" height="99.86" transform="translate(409.53 136.78)"/></g><g transform="translate(29.445 32.819)"><path class="a" d="M39.758,65.126V34.013a.777.777,0,0,0-.032-1.554H.778a.778.778,0,1,0,0,1.556V65.127a.778.778,0,0,0,.016,1.555H39.758a.778.778,0,0,0,0-1.556ZM38.2,34.015V65.126H10.89V55.8a.778.778,0,0,0-.778-.778H4.7a.778.778,0,0,0-.778.778v9.328H2.334V34.015ZM5.48,61.222a.776.776,0,0,0,0-1.551V56.577H9.334v8.55H5.48Z" transform="translate(0 -32.459)"/><path class="a" d="M217.111,100.071H231.2c.43,0,.778-.584.778-1.3V74.1c0-.72-.348-1.3-.778-1.3H217.111c-.43,0-.778.584-.778,1.3V98.767C216.333,99.487,216.681,100.071,217.111,100.071Zm.778-11.751h3.144V98.767h-3.144Zm7.78,0V98.767h-3.08V88.32Zm-3.08-1.344V74.417h3.08V86.976Zm4.636,11.791V88.32h3.2V98.767Zm3.2-11.791h-3.2V74.417h3.2Zm-9.391-12.559V86.976h-3.144V74.417Z" transform="translate(-195.295 -68.87)"/><path class="a" d="M41.132,89.065H55.223A.778.778,0,0,0,56,88.287V73.57a.778.778,0,0,0-.778-.778H41.132a.778.778,0,0,0-.778.778V88.287A.778.778,0,0,0,41.132,89.065Zm.778-7.01h3.144v5.454H41.91Zm7.78,0v5.454H46.61V82.055h3.08ZM46.61,80.5V74.348h3.08V80.5Zm4.635,7.01V82.055h3.2v5.454Zm3.2-7.01h-3.2V74.348h3.2Zm-9.391-6.151V80.5H41.91V74.348Z" transform="translate(-36.43 -68.87)"/></g><text class="c" transform="translate(35.461 84.09)"><tspan x="0" y="0">LOFT</tspan></text></g><g transform="translate(32.16 109.524)"><g class="d"><rect class="r" width="99.86" height="99.86"/><rect class="s" x="0.5" y="0.5" width="98.86" height="98.86"/></g><text class="e" transform="translate(32.983 82.506)"><tspan x="0" y="0">STUDIO</tspan></text><g transform="translate(30.078 34.743)"><path class="f" d="M39.216,103.279H36.464V82.756h2.752a.688.688,0,0,0,.674-.826l-1.376-6.88c-.066-.32-.674-.55-.674-.55H4.816a.688.688,0,0,0-.674.55L2.766,81.93a.688.688,0,0,0,.674.826H6.192v20.523H.688a.688.688,0,0,0,0,1.376H39.216a.688.688,0,0,0,0-1.376Zm-17.2-13.76L7.568,86.767h27.52l-2.752,2.752a.688.688,0,0,0-.688-.688H22.7A.688.688,0,0,0,22.016,89.519ZM7.568,93.647v0Zm24.768-4.128,2.752-2.752v16.512H32.336ZM5.38,75.876h31.9l1.1,5.5H4.279Zm29.708,6.88v4.011H7.568V82.756ZM22.016,89.519v13.76H7.568V86.767Zm1.376,13.76V90.207H30.96v13.072Z" transform="translate(0 -74.5)"/><path class="f" d="M12.766,27.891h5.36a.766.766,0,0,0,.766-.766v-5.36A.766.766,0,0,0,18.125,21h-5.36a.766.766,0,0,0-.766.766v5.36A.766.766,0,0,0,12.766,27.891Zm.766-5.36H17.36V26.36H13.531Z" transform="translate(-0.875 -6.715)"/></g></g><text class="g" transform="translate(181.198 195.251)"><tspan x="0" y="0">Maison</tspan></text><g class="h" transform="translate(144.099 109.524)"><path class="r" d="M 99.36009979248047 99.35984039306641 L 0.4999965727329254 99.35984039306641 L 0.4999965727329254 0.5000039935112 L 99.36009979248047 0.5000039935112 L 99.36009979248047 99.35984039306641 Z"/><path class="t" d="M 1 1.000007629394531 L 1 98.85984039306641 L 98.86009979248047 98.85984039306641 L 98.86009979248047 1.000007629394531 L 1 1.000007629394531 M 0 7.62939453125e-06 L 99.86009979248047 7.62939453125e-06 L 99.86009979248047 99.85984039306641 L 0 99.85984039306641 L 0 7.62939453125e-06 Z"/></g><text class="i" transform="translate(174.029 192.251)"><tspan x="0" y="0">MAISON</tspan></text><g transform="translate(178.094 138.523)"><g transform="translate(0 0)"><path class="f" d="M34.157,5.419a.678.678,0,0,0,.677-.677V.677A.678.678,0,0,0,34.157,0H3.677A.678.678,0,0,0,3,.677V4.741a.678.678,0,0,0,.677.677H6.387V30.48H5.713A2.714,2.714,0,0,0,3,33.189v2.032a.678.678,0,0,0,.677.677h30.48a.678.678,0,0,0,.677-.677V33.189a2.714,2.714,0,0,0-2.713-2.709h-.674V5.419ZM4.355,1.355H33.48V4.064H4.355ZM33.48,33.189v1.355H4.355V33.189a1.358,1.358,0,0,1,1.358-1.355H32.122A1.358,1.358,0,0,1,33.48,33.189ZM21.288,30.48H16.547V22.352h4.741Zm8.805,0H22.642V21.674A.678.678,0,0,0,21.965,21h-6.1a.678.678,0,0,0-.677.677V30.48H7.741V5.419H30.093Z" transform="translate(-3 0)"/><path class="f" d="M12.677,16.1h4.741a.678.678,0,0,0,.677-.677V10.677A.678.678,0,0,0,17.419,10H12.677a.678.678,0,0,0-.677.677v4.741A.678.678,0,0,0,12.677,16.1Zm.677-4.741h3.387v3.387H13.355Z" transform="translate(-5.904 -3.227)"/><path class="f" d="M32.677,16.1h4.741a.678.678,0,0,0,.677-.677V10.677A.678.678,0,0,0,37.419,10H32.677a.678.678,0,0,0-.677.677v4.741A.678.678,0,0,0,32.677,16.1Zm.677-4.741h3.387v3.387H33.355Z" transform="translate(-12.358 -3.227)"/><path class="f" d="M12.677,27.1h4.741a.678.678,0,0,0,.677-.677V21.677A.678.678,0,0,0,17.419,21H12.677a.678.678,0,0,0-.677.677v4.741A.678.678,0,0,0,12.677,27.1Zm.677-4.741h3.387v3.387H13.355Z" transform="translate(-5.904 -6.776)"/><path class="f" d="M32.677,27.1h4.741a.678.678,0,0,0,.677-.677V21.677A.678.678,0,0,0,37.419,21H32.677a.678.678,0,0,0-.677.677v4.741A.678.678,0,0,0,32.677,27.1Zm.677-4.741h3.387v3.387H33.355Z" transform="translate(-12.358 -6.776)"/></g></g><g transform="translate(256.094 109.524)"><text class="j" transform="translate(26.575 85.727)"><tspan x="0" y="0">Appartement</tspan></text><g class="k" transform="translate(0)"><rect class="r" width="99.86" height="99.86"/><rect class="s" x="0.5" y="0.5" width="98.86" height="98.86"/></g><g transform="translate(28.045 23.187)"><g transform="translate(0 0)"><path class="f" d="M42.4,10.467h-7.9V4.719A.719.719,0,0,0,33.775,4H9.342a.719.719,0,0,0-.719.719V14.779H.719A.719.719,0,0,0,0,15.5V44.961a.719.719,0,1,0,1.437,0V16.216H8.623V45.679a.719.719,0,0,0,.719.719H33.775a.719.719,0,0,0,.719-.719V11.9h7.186V44.961a.719.719,0,1,0,1.437,0V11.186A.719.719,0,0,0,42.4,10.467ZM20.84,44.961H17.965V38.493H20.84Zm4.312,0H22.277V38.493h2.874Zm7.9,0H26.589V37.775a.719.719,0,0,0-.719-.719H17.247a.719.719,0,0,0-.719.719v7.186H10.061V5.437h23Z" transform="translate(0 -4)"/><g transform="translate(11.498 2.874)"><path class="f" d="M133.03,36h-4.312a.719.719,0,0,0-.719.719V41.03a.719.719,0,0,0,.719.719h4.312a.719.719,0,0,0,.719-.719V36.719A.719.719,0,0,0,133.03,36Zm-.719,4.312h-2.874V37.437h2.874Z" transform="translate(-128 -36)"/></g><g transform="translate(18.684 2.874)"><path class="f" d="M213.03,36h-4.312a.719.719,0,0,0-.719.719V41.03a.719.719,0,0,0,.719.719h4.312a.719.719,0,0,0,.719-.719V36.719A.719.719,0,0,0,213.03,36Zm-.719,4.312h-2.874V37.437h2.874Z" transform="translate(-208 -36)"/></g><g transform="translate(25.87 2.874)"><path class="f" d="M293.03,36h-4.312a.719.719,0,0,0-.719.719V41.03a.719.719,0,0,0,.719.719h4.312a.719.719,0,0,0,.719-.719V36.719A.719.719,0,0,0,293.03,36Zm-.719,4.312h-2.874V37.437h2.874Z" transform="translate(-288 -36)"/></g><g transform="translate(11.498 10.061)"><path class="f" d="M133.03,116h-4.312a.719.719,0,0,0-.719.719v4.312a.719.719,0,0,0,.719.719h4.312a.719.719,0,0,0,.719-.719v-4.312A.719.719,0,0,0,133.03,116Zm-.719,4.312h-2.874v-2.874h2.874Z" transform="translate(-128 -116)"/></g><g transform="translate(18.684 10.061)"><path class="f" d="M213.03,116h-4.312a.719.719,0,0,0-.719.719v4.312a.719.719,0,0,0,.719.719h4.312a.719.719,0,0,0,.719-.719v-4.312A.719.719,0,0,0,213.03,116Zm-.719,4.312h-2.874v-2.874h2.874Z" transform="translate(-208 -116)"/></g><g transform="translate(25.87 10.061)"><path class="f" d="M293.03,116h-4.312a.719.719,0,0,0-.719.719v4.312a.719.719,0,0,0,.719.719h4.312a.719.719,0,0,0,.719-.719v-4.312A.719.719,0,0,0,293.03,116Zm-.719,4.312h-2.874v-2.874h2.874Z" transform="translate(-288 -116)"/></g><g transform="translate(11.498 17.247)"><path class="f" d="M133.03,196h-4.312a.719.719,0,0,0-.719.719v4.312a.719.719,0,0,0,.719.719h4.312a.719.719,0,0,0,.719-.719v-4.312A.719.719,0,0,0,133.03,196Zm-.719,4.312h-2.874v-2.874h2.874Z" transform="translate(-128 -196)"/></g><g transform="translate(18.684 17.247)"><path class="f" d="M213.03,196h-4.312a.719.719,0,0,0-.719.719v4.312a.719.719,0,0,0,.719.719h4.312a.719.719,0,0,0,.719-.719v-4.312A.719.719,0,0,0,213.03,196Zm-.719,4.312h-2.874v-2.874h2.874Z" transform="translate(-208 -196)"/></g><g transform="translate(25.87 17.247)"><path class="f" d="M293.03,196h-4.312a.719.719,0,0,0-.719.719v4.312a.719.719,0,0,0,.719.719h4.312a.719.719,0,0,0,.719-.719v-4.312A.719.719,0,0,0,293.03,196Zm-.719,4.312h-2.874v-2.874h2.874Z" transform="translate(-288 -196)"/></g><g transform="translate(11.498 24.433)"><path class="f" d="M133.03,276h-4.312a.719.719,0,0,0-.719.719v4.312a.719.719,0,0,0,.719.719h4.312a.719.719,0,0,0,.719-.719v-4.312A.719.719,0,0,0,133.03,276Zm-.719,4.312h-2.874v-2.874h2.874Z" transform="translate(-128 -276)"/></g><g transform="translate(18.684 24.433)"><path class="f" d="M213.03,276h-4.312a.719.719,0,0,0-.719.719v4.312a.719.719,0,0,0,.719.719h4.312a.719.719,0,0,0,.719-.719v-4.312A.719.719,0,0,0,213.03,276Zm-.719,4.312h-2.874v-2.874h2.874Z" transform="translate(-208 -276)"/></g><g transform="translate(25.87 24.433)"><path class="f" d="M293.03,276h-4.312a.719.719,0,0,0-.719.719v4.312a.719.719,0,0,0,.719.719h4.312a.719.719,0,0,0,.719-.719v-4.312A.719.719,0,0,0,293.03,276Zm-.719,4.312h-2.874v-2.874h2.874Z" transform="translate(-288 -276)"/></g><g transform="translate(2.874 13.654)"><path class="f" d="M33.437,156h-.719a.719.719,0,0,0-.719.719v.719a.719.719,0,0,0,.719.719h.719a.719.719,0,0,0,.719-.719v-.719A.719.719,0,0,0,33.437,156Z" transform="translate(-32 -156)"/></g><g transform="translate(5.749 13.654)"><path class="f" d="M65.437,156h-.719a.719.719,0,0,0-.719.719v.719a.719.719,0,0,0,.719.719h.719a.719.719,0,0,0,.719-.719v-.719A.719.719,0,0,0,65.437,156Z" transform="translate(-64 -156)"/></g><g transform="translate(2.874 16.528)"><path class="f" d="M33.437,188h-.719a.719.719,0,0,0-.719.719v.719a.719.719,0,0,0,.719.719h.719a.719.719,0,0,0,.719-.719v-.719A.719.719,0,0,0,33.437,188Z" transform="translate(-32 -188)"/></g><g transform="translate(5.749 16.528)"><path class="f" d="M65.437,188h-.719a.719.719,0,0,0-.719.719v.719a.719.719,0,0,0,.719.719h.719a.719.719,0,0,0,.719-.719v-.719A.719.719,0,0,0,65.437,188Z" transform="translate(-64 -188)"/></g><g transform="translate(2.874 19.402)"><path class="f" d="M33.437,220h-.719a.719.719,0,0,0-.719.719v.719a.719.719,0,0,0,.719.719h.719a.719.719,0,0,0,.719-.719v-.719A.719.719,0,0,0,33.437,220Z" transform="translate(-32 -220)"/></g><g transform="translate(5.749 19.402)"><path class="f" d="M65.437,220h-.719a.719.719,0,0,0-.719.719v.719a.719.719,0,0,0,.719.719h.719a.719.719,0,0,0,.719-.719v-.719A.719.719,0,0,0,65.437,220Z" transform="translate(-64 -220)"/></g><g transform="translate(2.874 22.277)"><path class="f" d="M33.437,252h-.719a.719.719,0,0,0-.719.719v.719a.719.719,0,0,0,.719.719h.719a.719.719,0,0,0,.719-.719v-.719A.719.719,0,0,0,33.437,252Z" transform="translate(-32 -252)"/></g><g transform="translate(5.749 22.277)"><path class="f" d="M65.437,252h-.719a.719.719,0,0,0-.719.719v.719a.719.719,0,0,0,.719.719h.719a.719.719,0,0,0,.719-.719v-.719A.719.719,0,0,0,65.437,252Z" transform="translate(-64 -252)"/></g><g transform="translate(2.874 25.151)"><path class="f" d="M33.437,284h-.719a.719.719,0,0,0-.719.719v.719a.719.719,0,0,0,.719.719h.719a.719.719,0,0,0,.719-.719v-.719A.719.719,0,0,0,33.437,284Z" transform="translate(-32 -284)"/></g><g transform="translate(5.749 25.151)"><path class="f" d="M65.437,284h-.719a.719.719,0,0,0-.719.719v.719a.719.719,0,0,0,.719.719h.719a.719.719,0,0,0,.719-.719v-.719A.719.719,0,0,0,65.437,284Z" transform="translate(-64 -284)"/></g><g transform="translate(2.874 28.026)"><path class="f" d="M33.437,316h-.719a.719.719,0,0,0-.719.719v.719a.719.719,0,0,0,.719.719h.719a.719.719,0,0,0,.719-.719v-.719A.719.719,0,0,0,33.437,316Z" transform="translate(-32 -316)"/></g><g transform="translate(5.749 28.026)"><path class="f" d="M65.437,316h-.719a.719.719,0,0,0-.719.719v.719a.719.719,0,0,0,.719.719h.719a.719.719,0,0,0,.719-.719v-.719A.719.719,0,0,0,65.437,316Z" transform="translate(-64 -316)"/></g><g transform="translate(2.874 30.9)"><path class="f" d="M33.437,348h-.719a.719.719,0,0,0-.719.719v.719a.719.719,0,0,0,.719.719h.719a.719.719,0,0,0,.719-.719v-.719A.719.719,0,0,0,33.437,348Z" transform="translate(-32 -348)"/></g><g transform="translate(5.749 30.9)"><path class="f" d="M65.437,348h-.719a.719.719,0,0,0-.719.719v.719a.719.719,0,0,0,.719.719h.719a.719.719,0,0,0,.719-.719v-.719A.719.719,0,0,0,65.437,348Z" transform="translate(-64 -348)"/></g><g transform="translate(2.874 33.775)"><path class="f" d="M33.437,380h-.719a.719.719,0,0,0-.719.719v.719a.719.719,0,0,0,.719.719h.719a.719.719,0,0,0,.719-.719v-.719A.719.719,0,0,0,33.437,380Z" transform="translate(-32 -380)"/></g><g transform="translate(5.749 33.775)"><path class="f" d="M65.437,380h-.719a.719.719,0,0,0-.719.719v.719a.719.719,0,0,0,.719.719h.719a.719.719,0,0,0,.719-.719v-.719A.719.719,0,0,0,65.437,380Z" transform="translate(-64 -380)"/></g><g transform="translate(2.874 36.649)"><path class="f" d="M33.437,412h-.719a.719.719,0,0,0-.719.719v.719a.719.719,0,0,0,.719.719h.719a.719.719,0,0,0,.719-.719v-.719A.719.719,0,0,0,33.437,412Z" transform="translate(-32 -412)"/></g><g transform="translate(5.749 36.649)"><path class="f" d="M65.437,412h-.719a.719.719,0,0,0-.719.719v.719a.719.719,0,0,0,.719.719h.719a.719.719,0,0,0,.719-.719v-.719A.719.719,0,0,0,65.437,412Z" transform="translate(-64 -412)"/></g><g transform="translate(35.931 9.342)"><path class="f" d="M403.593,108h-2.874a.719.719,0,0,0-.719.719v2.874a.719.719,0,0,0,.719.719h2.874a.719.719,0,0,0,.719-.719v-2.874A.719.719,0,0,0,403.593,108Zm-.719,2.874h-1.437v-1.437h1.437Z" transform="translate(-400 -108)"/></g><g transform="translate(35.931 15.091)"><path class="f" d="M403.593,172h-2.874a.719.719,0,0,0-.719.719v2.874a.719.719,0,0,0,.719.719h2.874a.719.719,0,0,0,.719-.719v-2.874A.719.719,0,0,0,403.593,172Zm-.719,2.874h-1.437v-1.437h1.437Z" transform="translate(-400 -172)"/></g><g transform="translate(35.931 20.84)"><path class="f" d="M403.593,236h-2.874a.719.719,0,0,0-.719.719v2.874a.719.719,0,0,0,.719.719h2.874a.719.719,0,0,0,.719-.719v-2.874A.719.719,0,0,0,403.593,236Zm-.719,2.874h-1.437v-1.437h1.437Z" transform="translate(-400 -236)"/></g><g transform="translate(35.931 26.589)"><path class="f" d="M403.593,300h-2.874a.719.719,0,0,0-.719.719v2.874a.719.719,0,0,0,.719.719h2.874a.719.719,0,0,0,.719-.719v-2.874A.719.719,0,0,0,403.593,300Zm-.719,2.874h-1.437v-1.437h1.437Z" transform="translate(-400 -300)"/></g><g transform="translate(35.931 32.337)"><path class="f" d="M403.593,364h-2.874a.719.719,0,0,0-.719.719v2.874a.719.719,0,0,0,.719.719h2.874a.719.719,0,0,0,.719-.719v-2.874A.719.719,0,0,0,403.593,364Zm-.719,2.874h-1.437v-1.437h1.437Z" transform="translate(-400 -364)"/></g></g></g><text class="i" transform="translate(13.93 83.727)"><tspan x="0" y="0">APPARTEMENT</tspan></text></g><g transform="translate(435.016 68.964)"><g transform="translate(55.337 0)"><g transform="translate(0 0)"><path class="l" d="M1045.24,481.457,1047.2,495.8l-13.7,1.3,1.956-17.609Z" transform="translate(-967.049 -187.643)"/><path class="l" d="M976.735,364.916s1.3,17.609,1.3,18.262-9.131,45.654-9.131,45.654-13.044,24.784,0,24.131,9.131-23.479,9.131-23.479l13.7-37.827-5.87-26.74Z" transform="translate(-963.111 -268.065)"/><path class="l" d="M984.456,481.457,982.5,495.8l13.7,1.3L994.24,479.5Z" transform="translate(-949.311 -187.643)"/><path class="m" d="M991.8,459.177l-3.261,4.565s-1.957,19.566,0,26.088,5.87,36.523,5.87,38.479.652,3.261,0,3.913-2.609.652-1.3,1.957,1.3,5.218,1.3,5.218v3.261l8.478,48.263s-5.218,5.87-1.3,5.87,18.261,0,17.609-6.522l-1.3-.652s-1.956-43.045-1.3-45,0-5.87,0-5.87-1.3-1.957,0-2.609,1.3-5.87,1.3-5.87l5.87-39.784s5.217,26.74,8.478,29.349,2.609,9.131,2.609,9.131l2.609,57.393s-2.609,6.522,0,7.827,13.7,5.87,14.348-.652,3.913-63.263,3.913-65.872-.652-3.913,0-5.87-.652-1.957,0-1.957-1.3-1.956-1.3-3.261V484.613s.652-6.522,1.3-7.826-.652-2.609,0-4.566-1.3-8.478-1.3-8.478l-29.349-7.826Z" transform="translate(-971.652 -299.715)"/><path class="m" d="M1019.118,683.177s3.261-3.261-1.3-3.261a21.227,21.227,0,0,0-8.479,1.957l-3.261,11.74s-13.37,10.762,1.631,9.457,12.718-.326,12.718-.326,4.565-1.3,5.217-2.609-1.3-20.218-1.3-20.218S1022.379,685.134,1019.118,683.177Z" transform="translate(-976.145 -377.623)"/><path class="m" d="M1067.439,683.177s-3.261-3.261,1.3-3.261a21.223,21.223,0,0,1,8.478,1.957l3.261,11.739s13.37,10.762-1.631,9.457-14.675-.326-14.675-.326-4.565-1.3-5.217-2.609,3.261-20.218,3.261-20.218S1064.178,685.134,1067.439,683.177Z" transform="translate(-996.423 -377.623)"/><ellipse class="l" cx="16.957" cy="16.957" rx="16.957" ry="16.957" transform="translate(11.667 11.413)"/><path class="l" d="M998,275.438s2.609,13.044,2.609,15,11.088,7.826,11.088,7.826l12.392-15.653s-7.826-11.087-7.826-13.7Z" transform="translate(-975.246 -234.676)"/><path class="b" d="M999.436,297.634s-5.685-1.513-7.408-4.017c0,0-18.028,17.714-18.028,20.975l14.349,25.436s0,9.131,1.3,9.783,0,0,0,2.609-3.913,19.566-2.609,22.175,2.609.652,1.3,4.565-4.566,24.783-4.566,24.783,11.739-3.913,28.7,2.609,37.175-2.609,37.175-2.609-5.217-11.74-3.913-15.653-3.261-11.087-3.261-11.087l-3.261-60s4.565-26.74,1.3-28.044L1034,286.547l-20.886-2.567S1007.914,296.982,999.436,297.634Z" transform="translate(-966.898 -239.915)"/><path class="n" d="M974.028,326.382l-.8,2.35s-3.261,9.783,0,14.348,4.565,11.087,4.565,11.087l13.044-1.3Z" transform="translate(-966.125 -254.056)"/><path class="m" d="M984.109,226.866l-2.941-1.178s6.15-6.771,14.707-6.182l-2.407-2.65s5.883-2.355,11.231,3.827c2.812,3.25,6.064,7.07,8.092,11.373h3.15l-1.314,2.895,4.6,2.895-4.724-.52a16.015,16.015,0,0,1-.447,7.5l.127,2.288s-5.475-8.47-5.475-9.648v2.944s-2.941-2.65-2.941-4.416l-1.6,2.061-.8-3.238-9.894,3.238,1.6-2.65-6.15.883,2.407-3.238s-6.952,3.827-7.22,7.065-3.744,7.36-3.744,7.36l-1.6-2.944S976.354,231.282,984.109,226.866Z" transform="translate(-968.431 -216.416)"/></g></g><ellipse class="o" cx="42.683" cy="9.766" rx="42.683" ry="9.766" transform="translate(67.52 315.573)"/><g transform="translate(0 97.021)"><ellipse class="p" cx="31.678" cy="30.896" rx="31.678" ry="30.896" transform="translate(0 0)"/><path class="a" d="M865.986,207.857H849.129V191h-6.272v16.857H826v6.272h16.857v16.857h6.272V214.129h16.857Z" transform="translate(-814.314 -180.097)"/></g><path class="l" d="M1023.817,332.916s-3.777,9.712-2.988,19.32a10.183,10.183,0,0,0,1.684,4.811h0l-46.27,21.967s-20.907,2.165-15.689,11.3,24.131-4.565,24.131-4.565,49.567-7.174,53.48-14.348,6.522-37.175,6.522-37.175Z" transform="translate(-906.591 -256.935)"/><path class="n" d="M1061.344,288.636l7,2.946s7.174,1.3,9.131,14.348,3.913,16.3,1.957,16.3-25.436-.652-25.436-1.3S1061.344,288.636,1061.344,288.636Z" transform="translate(-939.384 -242.342)"/></g><path class="q" d="M0,0H11.677" transform="translate(8.806 29.288)"/><path class="q" d="M0,0H11.464" transform="translate(8.806 36.536)"/></g></svg>