<svg xmlns="http://www.w3.org/2000/svg" xmlns:xlink="http://www.w3.org/1999/xlink" width="634.43" height="622.241" viewBox="0 0 634.43 622.241"><defs><style>.a{fill:#fff;}.b{fill:#3f3d56;opacity:0.274;}.c{fill:#40ac97;}.d{fill:#13bc79;}.e{fill:#2880fb;}.f{fill:#6c63ff;}.g{fill:#484562;}.h{fill:#d6d6e3;}.i{fill:#e0e1f3;}.j{fill:#2f2e41;}.k{fill:#ffb9b9;}.l{opacity:0.1;}.m,.n{opacity:0.2;}.n{fill:none;stroke:#000;stroke-miterlimit:10;stroke-width:2px;}.o{fill:#d0cde1;}.p{filter:url(#c);}.q{filter:url(#a);}</style><filter id="a" x="0" y="210.777" width="634.43" height="411.464" filterUnits="userSpaceOnUse"><feOffset dx="10" dy="10" input="SourceAlpha"/><feGaussianBlur stdDeviation="12.5" result="b"/><feFlood flood-opacity="0.161"/><feComposite operator="in" in2="b"/><feComposite in="SourceGraphic"/></filter><filter id="c" x="165.868" y="316.164" width="301.947" height="216.311" filterUnits="userSpaceOnUse"><feOffset dx="10" dy="10" input="SourceAlpha"/><feGaussianBlur stdDeviation="12.5" result="d"/><feFlood flood-opacity="0.161"/><feComposite operator="in" in2="d"/><feComposite in="SourceGraphic"/></filter></defs><g transform="translate(27.5)"><g transform="translate(-258.756 -4978.779)"><g class="q" transform="matrix(1, 0, 0, 1, 231.26, 4978.78)"><rect class="a" width="559.43" height="336.464" transform="translate(27.5 238.28)"/></g><ellipse class="b" cx="162.304" cy="14.021" rx="162.304" ry="14.021" transform="translate(426.138 5448.265)"/><path class="c" d="M41.186,7.808c18.43,11.113,25.555,33.139,25.555,33.139s-22.755,4.01-41.185-7.1S0,.7,0,.7,22.757-3.305,41.186,7.808Z" transform="translate(409.177 5387.998) rotate(40)"/><path class="d" d="M43.372,1601.932c18.388,11.1,25.471,33.142,25.471,33.142s-22.732,4.051-41.12-7.048S2.25,1594.884,2.25,1594.884,24.983,1590.833,43.372,1601.932Z" transform="translate(366.047 3827.958)"/><g transform="translate(424.624 4989.779)"><g transform="translate(0 332.664)"><g class="p" transform="matrix(1, 0, 0, 1, -193.37, -343.66)"><path class="e" d="M888.629,587.81h206.789a10.1,10.1,0,0,1,10.079,10.111V719.01a10.1,10.1,0,0,1-10.079,10.111H888.629A10.1,10.1,0,0,1,878.55,719.01V597.921A10.1,10.1,0,0,1,888.629,587.81Z" transform="translate(-685.18 -244.15)"/></g><rect class="f" width="226.946" height="25.907" transform="translate(0 24.729)"/><rect class="g" width="226.946" height="25.907" transform="translate(0 24.729)"/><rect class="h" width="183.905" height="12.56" transform="translate(21.522 69.869)"/><ellipse class="f" cx="18.001" cy="18.058" rx="18.001" ry="18.058" transform="translate(18.78 95.775)"/><ellipse class="i" cx="18.001" cy="18.058" rx="18.001" ry="18.058" transform="translate(18.78 95.775)"/></g><g transform="translate(183.96 -11)"><path class="j" d="M2101.087,41.25s-1.329,4.442,6.2,8.44,9.744,19.1.884,23.547-11.516,10.217-7.088,14.216,12.4,14.663,1.772,17.327-11.956,8-8.858,10.218-7.089-4-7.089-4-1.773,10.661-11.073,8-35.43-53.317-22.144-60.422S2101.087,41.25,2101.087,41.25Z" transform="translate(-1969.006 -23.996)"/><path class="k" d="M2120.477,134.94s-4.6,16.131,3.443,17.281a31.361,31.361,0,0,1,13.783,5.759l-14.928,19.586h-27.567l-17.227-17.281s22.973-17.282,18.378-27.654S2120.477,134.94,2120.477,134.94Z" transform="translate(-2004.444 -74.79)"/><path class="l" d="M2120.477,134.94s-4.6,16.131,3.443,17.281a31.361,31.361,0,0,1,13.783,5.759l-14.928,19.586h-27.567l-17.227-17.281s22.973-17.282,18.378-27.654S2120.477,134.94,2120.477,134.94Z" transform="translate(-2004.444 -74.79)"/><path class="k" d="M2177.773,598.425l-24.737,8.628-17.206,1.081,1.074-15.106L2172.4,582.5Z" transform="translate(-2062.458 -337.211)"/><path class="j" d="M2275.84,592.629s0,15.106-2.149,15.106-31.19-3.235-39.8,0-21.512-8.632-15.06-15.106,16.981-16.184,23.548-14.025,33.455,7.551,33.455,7.551v6.474Z" transform="translate(-2192.25 -334.655)"/><path class="j" d="M2031.517,579.08s12.907,25.9,4.3,28.051-18.283-1.077-19.361-2.158-16.132-5.393-18.284-3.235-2.15-8.632-2.15-8.632Z" transform="translate(-1868.877 -335.131)"/><path class="j" d="M2112.443,488.17s21.821,29.954,5.741,38.022-93.031,8.063-98.77,0-8.038-33.413,0-35.717S2112.443,488.17,2112.443,488.17Z" transform="translate(-1964.252 -283.999)"/><path class="m" d="M2112.443,488.17s21.821,29.954,5.741,38.022-93.031,8.063-98.77,0-8.038-33.413,0-35.717S2112.443,488.17,2112.443,488.17Z" transform="translate(-1964.252 -283.999)"/><ellipse class="k" cx="26.415" cy="26.499" rx="26.415" ry="26.499" transform="translate(80.428 15.218)"/><path class="d" d="M2143.231,192.509l-22.97-4.609s-5.742,18.436-24.12,14.977-22.97-14.977-22.97-14.977-13.785,5.759-14.932,5.759-16.079,5.759-16.079,9.218,17.226,38.022,17.226,38.022l-2.3,62.217,84.992-2.3-5.741-61.062Z" transform="translate(-1995.04 -109.312)"/><path class="k" d="M2023.236,270.54s6.892,61.062,2.3,65.671-22.971,17.282-22.971,17.282V339.666l9.188-17.281-9.188-40.326Z" transform="translate(-1862.411 -157.387)"/><path class="k" d="M2240.51,266.41s4.019,62.794,4.019,65.1,10.336,10.368,13.785,10.368,5.74-5.759,5.74-5.759l-8.039-9.218,5.743-47.24Z" transform="translate(-2198.556 -154.987)"/><path class="j" d="M2195.59,459.343s-51.685-28.8-52.832,0,26.414,40.326,26.414,40.326,71.211,21.422,74.079,13.588,8.612-20.5,4.019-21.656-10.337-3.455-12.632-1.15-31.013-17.281-31.013-17.281Z" transform="translate(-2142.723 -259.782)"/><path class="n" d="M2251.52,468.89s10.335,4.609,13.783,8.064,18.377,9.218,18.377,9.218" transform="translate(-2222.772 -272.781)"/><path class="d" d="M2002.674,197.8l5.862,1.119s21.231,30.009,13.188,36.923-8.594,5.708-10.89,8.012-10.327-2.989-10.327-2.989Z" transform="translate(-1860.343 -115.724)"/><path class="d" d="M2239.066,215.219l-6.993,5.286s-8.038,17.281-10.336,19.586,3.445,1.15,6.891,5.759,6.892,12.672,13.783,12.672S2258.493,247,2258.493,247Z" transform="translate(-2184.948 -126.939)"/><path class="j" d="M1952.095,478.9s43.642-31.109,58.571-8.064-64.317,54.153-75.8,58.758-21.822,9.218-21.822,9.218-10.335-25.349-10.335-29.954,8.039-4.609,10.335-4.609,12.632-2.3,14.93-5.759S1952.095,478.9,1952.095,478.9Z" transform="translate(-1806.197 -268.967)"/><path class="n" d="M2025.424,482.66s-11.486,9.218-21.82,11.522-13.784,8.064-13.784,8.064" transform="translate(-1855.409 -280.792)"/><path class="o" d="M2134.99,370.429l-.917,48.783a6.1,6.1,0,0,1-6.154,5.993l-90.494-1.021a6.1,6.1,0,0,1-6.007-5.755l-2.748-47.762a6.1,6.1,0,0,1,5.728-6.449c.118-.008.235-.008.351-.008h94.16a6.1,6.1,0,0,1,6.087,6.106A.877.877,0,0,0,2134.99,370.429Z" transform="translate(-1981.173 -211.883)"/><path class="j" d="M2152.708,20.15s-1.472,4.923,6.871,9.352,10.793,21.163.979,26.085-12.758,11.322-7.85,15.751,13.738,16.24,1.964,19.2-13.245,8.858-9.815,11.322-7.85-4.429-7.85-4.429-1.963,11.811-12.265,8.858-20.584-56.633-9.1-70.46C2126.321,22.969,2152.708,20.15,2152.708,20.15Z" transform="translate(-2047.271 -11.722)"/><path class="j" d="M2207.034,3.365c0-7.21-21.509-2.028-30.726,8.038-6.383,6.972-19.539,15.612-11.414,23.006s7.069,1.764,1.153,4.7-15.429,26.564-4.886,32.595.032,10.787-3.937,12.229,5.358,6.286,5.358,6.286-7.248,7.336,3.465,7.277,41.458-59.13,34.113-75.554C2193.331,6.677,2207.034,3.365,2207.034,3.365Z" transform="translate(-2098.469 -0.003)"/><path class="j" d="M2095.16,4.123C2123.919,2.387,2126.8,24.1,2126.8,24.1c-.2,12.568-20.091,6.445-25.618,8.319-6.667-4.81-19.516-13.91-28.705-20.41A43.36,43.36,0,0,1,2095.16,4.123Z" transform="translate(-1991.25 -2.339)"/></g></g></g></g></svg>