<svg xmlns="http://www.w3.org/2000/svg" xmlns:xlink="http://www.w3.org/1999/xlink" viewBox="0 0 850.65 583.17"><defs><style>.cls-1,.cls-26{fill:none;}.cls-1{stroke:#3f3d56;}.cls-2,.cls-4{fill:#3f3d56;}.cls-2{opacity:0.1;}.cls-14,.cls-2,.cls-25{isolation:isolate;}.cls-3{fill:#fff;}.cls-5{fill:#d45358;}.cls-6{fill:#d7b453;}.cls-7{fill:#7cb24f;}.cls-8{fill:#e0e1f3;}.cls-9{fill:#a0616a;}.cls-10{fill:#ffc1c7;}.cls-11{fill:#ffb8b8;}.cls-12{fill:#f2f2f2;}.cls-13{fill:#3c354c;}.cls-14{opacity:0.1;}.cls-15{fill:#28cc8b;}.cls-16{fill:#3fc482;}.cls-17{fill:#59b5a1;}.cls-18{fill:#5852ab;}.cls-19{fill:#0c5769;}.cls-20{fill:#3a0d87;}.cls-21{fill:#2f2e41;}.cls-22{fill:#fbbebe;}.cls-23{fill:#e6e6e6;}.cls-24{fill:#2880fb;}.cls-25{opacity:0.2;}.cls-26{stroke:#e0e1f3;stroke-width:3px;}.cls-27{fill:#d0cde1;}.cls-28{fill:#ebad2a;}.cls-29{fill:#ffbb2b;}.cls-30{fill:#6c63ff;}.cls-31{opacity:0.5;}.cls-32{fill:url(#Dégradé_sans_nom_2);}.cls-33{fill:#f5f5f5;}.cls-34{fill:#be7c5e;}.cls-35{fill:#333;}.cls-36{fill:#3ad29f;}.cls-37{fill:#e0e0e0;}.cls-38{fill:#65617d;}.cls-39{fill:#a1616a;}.cls-40{fill:#d7d9e1;}.cls-41{fill:#248afe;}.cls-42{fill:#2ba15a;}.cls-43{fill:#1f573b;}.cls-44{fill:#efc641;}</style><linearGradient id="Dégradé_sans_nom_2" x1="123.96" y1="700.48" x2="123.96" y2="701.48" gradientTransform="matrix(13.5, 5.46, 5.47, -13.55, -4956.14, 9251.46)" gradientUnits="userSpaceOnUse"><stop offset="0" stop-color="gray" stop-opacity="0.25"/><stop offset="0.54" stop-color="gray" stop-opacity="0.12"/><stop offset="1" stop-color="gray" stop-opacity="0.1"/></linearGradient></defs><g id="Calque_2" data-name="Calque 2"><g id="Calque_1-2" data-name="Calque 1"><g id="Groupe_374" data-name="Groupe 374"><line id="Ligne_12" data-name="Ligne 12" class="cls-1" x1="0.9" y1="452.09" x2="742.37" y2="452.09"/><ellipse id="Ellipse_221" data-name="Ellipse 221" class="cls-2" cx="121.65" cy="451.79" rx="120.72" ry="6.96"/><g id="Groupe_361" data-name="Groupe 361"><path id="Tracé_1213" data-name="Tracé 1213" class="cls-3" d="M742.58,14.69V360.82a4.72,4.72,0,0,1-4.72,4.72H174.93a4.71,4.71,0,0,1-4.71-4.72h0V14.69A4.71,4.71,0,0,1,174.93,10h562.9a4.73,4.73,0,0,1,4.75,4.7v0Z"/><path id="Tracé_1214" data-name="Tracé 1214" class="cls-4" d="M742.58,3.15v10.6H170.22V3.15A3.15,3.15,0,0,1,173.37,0H739.43a3.15,3.15,0,0,1,3.15,3.15Z"/><circle id="Ellipse_193" data-name="Ellipse 193" class="cls-5" cx="180.7" cy="6.55" r="3.27"/><circle id="Ellipse_194" data-name="Ellipse 194" class="cls-6" cx="189.87" cy="6.55" r="3.27"/><circle id="Ellipse_195" data-name="Ellipse 195" class="cls-7" cx="199.03" cy="6.55" r="3.27"/><rect id="Rectangle_485" data-name="Rectangle 485" class="cls-8" x="369.31" y="48.13" width="174.2" height="9.17"/><g id="Groupe_369" data-name="Groupe 369"><rect id="Rectangle_486" data-name="Rectangle 486" class="cls-8" x="381.38" y="140.46" width="134.25" height="157.17"/><path id="Tracé_1215" data-name="Tracé 1215" class="cls-9" d="M442.5,220.34c-.4,2.37-2.74,3.85-4.95,4.77s-4.67,1.69-6.09,3.63c-1.9,2.62-1.1,6.37.66,9.09,2,3.11,5,5.41,8,7.64a14.53,14.53,0,0,0,4.32,2.52,12.67,12.67,0,0,0,3.68.39,66.83,66.83,0,0,0,11.9-1.07c5-.91,10.42-2.75,13.1-7.12,2.18-3.58,2-8.06,1.83-12.25-2.37-.2-4.49-1.49-6.51-2.74-2.38-1.48-5-3.2-5.73-5.89s.49-6.31-1.45-8.52c-1.31-1.49-3.53-1.67-5.5-1.72-2.69-.07-5.37-.1-8.05-.11-1.85,0-6-.77-7.49.46C437.4,211.65,443,217.34,442.5,220.34Z"/><path id="Tracé_1216" data-name="Tracé 1216" class="cls-10" d="M442.5,220.34c-.4,2.37-2.74,3.85-4.95,4.77s-4.67,1.69-6.09,3.63c-1.9,2.62-1.1,6.37.66,9.09,2,3.11,5,5.41,8,7.64a14.53,14.53,0,0,0,4.32,2.52,12.67,12.67,0,0,0,3.68.39,66.83,66.83,0,0,0,11.9-1.07c5-.91,10.42-2.75,13.1-7.12,2.18-3.58,2-8.06,1.83-12.25-2.37-.2-4.49-1.49-6.51-2.74-2.38-1.48-5-3.2-5.73-5.89s.49-6.31-1.45-8.52c-1.31-1.49-3.53-1.67-5.5-1.72-2.69-.07-5.37-.1-8.05-.11-1.85,0-6-.77-7.49.46C437.4,211.65,443,217.34,442.5,220.34Z"/><circle id="Ellipse_196" data-name="Ellipse 196" class="cls-11" cx="451.65" cy="199.78" r="19.21"/><path id="Tracé_1217" data-name="Tracé 1217" class="cls-12" d="M489.63,247.15c-.13,1.15.58,1.57,0,2.57-.18.27.7.48.48.71a16.9,16.9,0,0,1-4,2.8c-3.93,2.39-8.34,5.5-9.07,10a33.7,33.7,0,0,1-1,4.2c-.92,3.11-2.11,6.18-2.82,9.3a21.32,21.32,0,0,0-.58,5.52,16.6,16.6,0,0,0,.16,1.73c.62,4.41,2.89,8.38,5.55,12.14l.87,1.21.19.26h-62.7c.1-.4.21-.79.31-1.19a1.33,1.33,0,0,1,.05-.19c.62-2.5,1.16-5,1.54-7.53a48.1,48.1,0,0,0,.59-6.78c0-2,.43-4.14,2.07-5.24.11-.4.22-.81.32-1.2a37.41,37.41,0,0,0-.09-18.09c-.09-.37-.2-.74-.29-1.1l-.15-.5a53.08,53.08,0,0,1-1.39-5.31c-.38-2.14-.47-4.42-1.61-6.26s-3.12-2.93-4.88-4.18a11,11,0,0,1-2.31-2.1h0a5.16,5.16,0,0,1-1.25-3,4.72,4.72,0,0,1,.07-1,7.57,7.57,0,0,1,2-3.56c4-4.38,10.07-6.23,16.05-6.3h0c.92,0,1.84,0,2.75.07a7.82,7.82,0,0,1,3.08.7,4.73,4.73,0,0,1,1.54,1.27,7.64,7.64,0,0,1,1.31,2.47,13.24,13.24,0,0,1,.52,2.22c.37,2.34.45,4.82,1.68,6.84,2.23,3.65,7.32,4.32,11.53,3.53A26,26,0,0,0,468,228.11a23.91,23.91,0,0,1,1.31-2.38,5.9,5.9,0,0,1,.89-1,36.54,36.54,0,0,1,16,7.2c1.46,1.1.94,3.07,2,4.57C490.09,239.55,490.18,243.53,489.63,247.15Z"/><path id="Tracé_1218" data-name="Tracé 1218" class="cls-9" d="M493.75,286a18.41,18.41,0,0,1-2.4,5.14,12.16,12.16,0,0,1-2.78,3.55c-2.32,1.83-5.54,1.79-8.51,1.62h-.24l-1.47-.09-8.46-.5a46.87,46.87,0,0,1-6.68-.71c-.58-.12-1.17-.26-1.75-.42-3.27-.88-6.48-2.19-9.86-2.38-1-.05-2,0-3,0h-.27a13,13,0,0,1-2-.13c-1.07-.15-2.13-.5-3.22-.55-2.8-.14-5.28,1.54-7.67,3.07l-.65.41a29.55,29.55,0,0,1-5.43,2.7H418.06a4.1,4.1,0,0,1-.53-.49,4.48,4.48,0,0,1-.51-.7l-.09-.18a6,6,0,0,1,0-5.05,9.79,9.79,0,0,1,1.66-2.48,23.33,23.33,0,0,1,2.4-2.26c4.41-3.68,9.49-6.78,15.13-7.86l1.19-.19a53.74,53.74,0,0,1,8.51-.28l2.67.05,11.16.23H460c4.49.09,9.2.12,13.25-1.67a14.29,14.29,0,0,0,1.51-.77,2.82,2.82,0,0,0,1-.9,3.12,3.12,0,0,0,.31-1.7l0-5.89L476,256.15h0q0-4.17-.05-8.36a5.72,5.72,0,0,1,1.6-4.76c1.63-2.05,5.61-9.28,8.42-9.4a2.27,2.27,0,0,1,1.41.39h0c2.4,1.6,2.41,7.66,2.47,9.7.07,2.26.16,4.52.29,6.77a229,229,0,0,0,3.28,27.5C493.85,280.59,494.38,283.33,493.75,286Z"/><path id="Tracé_1219" data-name="Tracé 1219" class="cls-11" d="M493.75,286a18.41,18.41,0,0,1-2.4,5.14,12.16,12.16,0,0,1-2.78,3.55c-2.32,1.83-5.54,1.79-8.51,1.62h-.24l-1.47-.09-8.46-.5a46.87,46.87,0,0,1-6.68-.71c-.58-.12-1.17-.26-1.75-.42-3.27-.88-6.48-2.19-9.86-2.38-1-.05-2,0-3,0h-.27a13,13,0,0,1-2-.13c-1.07-.15-2.13-.5-3.22-.55-2.8-.14-5.28,1.54-7.67,3.07l-.65.41a29.55,29.55,0,0,1-5.43,2.7H418.06a4.1,4.1,0,0,1-.53-.49,4.48,4.48,0,0,1-.51-.7l-.09-.18a6,6,0,0,1,0-5.05,9.79,9.79,0,0,1,1.66-2.48,23.33,23.33,0,0,1,2.4-2.26c4.41-3.68,9.49-6.78,15.13-7.86l1.19-.19a53.74,53.74,0,0,1,8.51-.28l2.67.05,11.16.23H460c4.49.09,9.2.12,13.25-1.67a14.29,14.29,0,0,0,1.51-.77,2.82,2.82,0,0,0,1-.9,3.12,3.12,0,0,0,.31-1.7l0-5.89L476,256.15h0q0-4.17-.05-8.36a5.72,5.72,0,0,1,1.6-4.76c1.63-2.05,5.61-9.28,8.42-9.4a2.27,2.27,0,0,1,1.41.39h0c2.4,1.6,2.41,7.66,2.47,9.7.07,2.26.16,4.52.29,6.77a229,229,0,0,0,3.28,27.5C493.85,280.59,494.38,283.33,493.75,286Z"/><path id="Tracé_1220" data-name="Tracé 1220" class="cls-13" d="M439,169.33c-1.66.25-3.5.69-4.41,2.11-.7,1.1-.65,2.5-.9,3.78a8.39,8.39,0,0,1-3.22,5.15c-1.37,1-3,1.58-4.46,2.53s-2.68,2.5-2.49,4.2c.17,1.49,1.35,2.62,1.91,4,1,2.56-.19,5.4-1.31,7.92s-2.19,5.48-.9,7.9,4.9,3.53,5.89,6.25c1.24,3.27-2,6.76-1.55,10.25.35,2.87,3.18,4.92,6,5.34a4.92,4.92,0,0,0,3.93-.85,5.16,5.16,0,0,0,1.42-3.78c.17-5.33-2.86-10.22-3.74-15.49a8.24,8.24,0,0,1,.48-5.16c.51-1,1.31-1.8,1.75-2.83.89-2.14-.12-4.73.83-6.84a17.76,17.76,0,0,1,1.86-2.62,3.09,3.09,0,0,0,.53-3,10.51,10.51,0,0,1,3.9,4.43c1.24-.25,1.2-2.91,2.42-2.53.34.11.54.47.76.75a3.42,3.42,0,0,0,3.63,1,7.15,7.15,0,0,0,3.2-2.3l2.07,2.57a2.35,2.35,0,0,1,2.27-1.44,5.35,5.35,0,0,1,2.68.92c3.93,2.35,6.88,7.16,5.37,11.48-.65,1.85-2,3.36-2.84,5.12s-1.1,4.11.3,5.47a10.17,10.17,0,0,1,.9.83c1,1.21.38,3.06.69,4.58.54,2.81,3.86,3.93,6.65,4.59,2,.44,4.3.78,5.68-.66s.83-4.14-.08-6.12-2-4.26-1-6.2,3.84-2.62,4.86-4.64c1.31-2.58-1-5.4-1.92-8.14-1.27-3.74.14-8-.89-11.79a16.37,16.37,0,0,0-2.9-5.31,34.5,34.5,0,0,0-11.26-10.27c-4.3-2.25-8.63-2.62-13.36-2.05C447.54,169,443.26,168.69,439,169.33Z"/><path id="Tracé_1222" data-name="Tracé 1222" class="cls-11" d="M480.06,296.26a3.84,3.84,0,0,1-.61.88l-.24.24a2.48,2.48,0,0,1-.3.25H467.53a29.47,29.47,0,0,1-5.42-2.7l-.66-.41c-2.39-1.53-4.87-3.21-7.67-3.07-1.09.06-2.15.4-3.22.55a14.38,14.38,0,0,1-2,.13h-.27c-1,0-2,0-3,0-3.38.19-6.58,1.5-9.86,2.38-.58.16-1.17.3-1.75.42a48.36,48.36,0,0,1-6.68.71l-9.93.59h-.24c-3,.17-6.18.21-8.52-1.61a12.57,12.57,0,0,1-2.77-3.55,18.47,18.47,0,0,1-2.4-5.15c-.66-2.62-.1-5.36.37-8a230.59,230.59,0,0,0,3.56-34.27c.06-2,.07-8.13,2.48-9.71a2,2,0,0,1,.91-.35h0a1.93,1.93,0,0,1,.48,0c2.82.11,6.79,7.35,8.43,9.4a5.77,5.77,0,0,1,1.6,4.76q0,4-.06,8.08v.37q0,8.6-.11,17.2a3.13,3.13,0,0,0,.31,1.7,1.9,1.9,0,0,0,.34.41,4.88,4.88,0,0,0,.7.49c4.36,2.57,9.71,2.54,14.76,2.44h.31l11.17-.23,2.66-.05a52.57,52.57,0,0,1,8.51.28l1.19.19a30.85,30.85,0,0,1,12,5.41c1.09.77,2.16,1.59,3.19,2.45a13.71,13.71,0,0,1,4,4.74A6,6,0,0,1,480.06,296.26Z"/><path id="Tracé_1223" data-name="Tracé 1223" class="cls-12" d="M421.5,256.37a1.64,1.64,0,0,0,.82-1.05q2.37-6.12,4.44-12.34a3.4,3.4,0,0,0-1.4-4.6l-.18-.09a28.92,28.92,0,0,0-7.79-4.2c-2.05-.74-5.07-2.05-7.12-.86-2.53,1.49.17,5.24,1.1,7.2a71.79,71.79,0,0,0,4.27,7.86C416.12,249.07,420.85,256.6,421.5,256.37Z"/></g><g id="Groupe_370" data-name="Groupe 370"><rect id="Rectangle_487" data-name="Rectangle 487" class="cls-8" x="569.01" y="140.46" width="134.25" height="157.17"/><path id="Tracé_1231" data-name="Tracé 1231" class="cls-4" d="M638.87,172.86a6.62,6.62,0,0,1,3.5,3c.6,1.23.58,2.68,1,4,.85,2.77,3.43,4.58,5,7,2.17,3.28,2.43,7.45,2.28,11.38S650,206.16,651,210c.46,1.86,1.25,3.63,1.57,5.52.39,2.3.07,4.69.66,6.95a18,18,0,0,0,2.92,5.58l5.09,7.45a58.39,58.39,0,0,1-6.72-2,12.12,12.12,0,0,0,3.63,5.5l-3.68-4.45a10.5,10.5,0,0,0-2.74-2.62,14.73,14.73,0,0,0-4.47-1.2c-2.91-.59-5.83-2.09-7.26-4.71-1.91-3.5-.65-7.89-1.75-11.73-.78-2.8-2.7-5.12-4-7.7-3-5.85-2.82-12.74-3.76-19.25a59.39,59.39,0,0,1-1-8.3c0-2.06.2-6,2.37-7C633.67,171.06,637.13,172.12,638.87,172.86Z"/><path id="Tracé_1232" data-name="Tracé 1232" class="cls-10" d="M641.12,219.71c.31,3.41,1,7.45,4.14,8.88,1.76.82,3.81.51,5.72.83,3.61.58,6.55,3.36,8.25,6.61s2.25,6.95,2.62,10.59c.49,4.55.66,9.5-1.85,13.33-2,3.12-5.52,5-9.1,6A25.42,25.42,0,0,1,629.7,262a47,47,0,0,1-7.8-7.71c-5.19-6-10.42-12.67-11.49-20.57a2.56,2.56,0,0,1,.66-2.51,2.78,2.78,0,0,1,1.67-.34l5,.1c1.26,0,2.69,0,3.54-1a4.37,4.37,0,0,0,.78-3.28q-.19-7.2-.38-14.44a2.09,2.09,0,0,1,.32-1.46,2,2,0,0,1,1.15-.49c2.74-.46,5.61,0,8.3-.75S638,206,639.87,209C641.45,211.49,640.88,216.8,641.12,219.71Z"/><path id="Tracé_1233" data-name="Tracé 1233" class="cls-14" d="M641.12,219.71c.31,3.41,1,7.45,4.14,8.88,1.76.82,3.81.51,5.72.83,3.61.58,6.55,3.36,8.25,6.61s2.25,6.95,2.62,10.59c.49,4.55.66,9.5-1.85,13.33-2,3.12-5.52,5-9.1,6A25.42,25.42,0,0,1,629.7,262a47,47,0,0,1-7.8-7.71c-5.19-6-10.42-12.67-11.49-20.57a2.56,2.56,0,0,1,.66-2.51,2.78,2.78,0,0,1,1.67-.34l5,.1c1.26,0,2.69,0,3.54-1a4.37,4.37,0,0,0,.78-3.28q-.19-7.2-.38-14.44a2.09,2.09,0,0,1,.32-1.46,2,2,0,0,1,1.15-.49c2.74-.46,5.61,0,8.3-.75S638,206,639.87,209C641.45,211.49,640.88,216.8,641.12,219.71Z"/><circle id="Ellipse_198" data-name="Ellipse 198" class="cls-10" cx="628.59" cy="199.75" r="19.02"/><path id="Tracé_1234" data-name="Tracé 1234" class="cls-15" d="M670.93,281.21a17.87,17.87,0,0,1-.54,2.3q-.93,2.64-2.1,5.17c-.3.7-.59,1.4-.83,2.12-.19.56-.35,1.14-.5,1.72s-.31,1.35-.43,2c-.18,1-.31,2-.41,3.07H616.48a31.13,31.13,0,0,0-.29-7.53,49.09,49.09,0,0,0-3.06-10c-3.16-8.1-6.7-16.37-8.64-24.82v0a49.15,49.15,0,0,1-1.2-16.79c0-.32.08-.65.13-1a24.46,24.46,0,0,1,.47-2.53,13.91,13.91,0,0,1,3.17-6.4c2.22-2.4,6-3.58,8.88-2.05a9,9,0,0,1,3.68,4.38c.55,1.15,1,2.37,1.5,3.53a36.13,36.13,0,0,0,7.52,11.23c.61.64,1.25,1.24,1.91,1.82s1.24,1.06,1.89,1.55c2.1,1.62,4.64,3.67,7.38,3.74,1.59.05,3.22,0,4.86,0,1.44,0,2.89-.06,4.33,0,3.07.06,6.55-.81,8-3.5,1-1.84.85-4.08.66-6.18-.15-1.64-.3-3.28-.46-4.92v-.25c-.1-1.19-.22-2.36-.33-3.54h0c0-.58-.1-1.15-.16-1.72h0l-.12-1.27c.55-.06,1.1-.12,1.65-.16,2.48-.2,5-.15,7.15,1.06a9.48,9.48,0,0,1,4.07,5.35,21.15,21.15,0,0,1,1,4.91c.73,7.44-.46,14.93,0,22.39C670.74,270.29,671.88,275.89,670.93,281.21Z"/><path id="Tracé_1235" data-name="Tracé 1235" class="cls-10" d="M682.27,297.63h-15c-.13-1.7-.22-3.41-.28-5.12-.06-1.17-.1-2.36-.11-3.54q-.11-4.77.07-9.51a21.47,21.47,0,0,0,9.66,2.76,18.53,18.53,0,0,1,3.28,5.19,26.09,26.09,0,0,1,1.12,3.22v0A44.4,44.4,0,0,1,682.27,297.63Z"/><path id="Tracé_1236" data-name="Tracé 1236" class="cls-3" d="M681,287.4a69.78,69.78,0,0,0-16.83,2.22c-.73-3.59-.37-7.3,0-10.93l2.43-25c.18-1.85-.16-18.86,3.43-15.86,1.31,1.11,3,11.06,3.4,12.66.62,2.41,1.11,4.85,1.55,7.3.9,5,1.5,10.1,2.38,15.14C677.55,274.35,679.65,287.41,681,287.4Z"/><path id="Tracé_1237" data-name="Tracé 1237" class="cls-4" d="M635.83,175.56a3.17,3.17,0,0,0-.39-1.71,2.88,2.88,0,0,0-2-1.08c-2.74-.42-5.75.66-8.23-.57-1.31-.66-2.3-2-3.61-2.7-3.09-1.74-7,0-9.73,2.27a28.35,28.35,0,0,0-9.12,13.9c-1.22,4.2-1.71,9.12-5.2,11.79-1.44,1.1-3.27,1.71-4.35,3.18a8.1,8.1,0,0,0-1.16,3.92c-.36,3.2-.65,6.47.18,9.58.66,2.31,1.87,4.4,2.62,6.68A17.73,17.73,0,0,1,590,239.27a5.74,5.74,0,0,0,4.26.74,3.72,3.72,0,0,1-.62,1.88c4.45-.14,8.32-4.48,12.68-3.53,3.32.72,5.18,4.15,7.66,6.48,3.2,3,8.16,4.27,12.17,2.49s6.45-6.85,4.75-10.9c-2-4.59-7.92-6.43-10-11-1.6-3.53-.41-7.64-.76-11.5-.3-3.31-1.72-6.4-2.62-9.6s-1.18-6.86.65-9.65c1.93-3,5.62-4.12,9-5.24C634.67,187,636.12,183.19,635.83,175.56Z"/><path id="Tracé_1238" data-name="Tracé 1238" class="cls-10" d="M631.16,244c.54-2.62,1.08-5.48.12-8-1.78-4.72-7.6-6.2-11.63-9.24a15.84,15.84,0,0,1-5.17-6.9c-.73-1.92-.83-4.59,1-5.56a4.42,4.42,0,0,1,2.24-.39c6.28.14,12,3.56,16.84,7.59,2.8,2.35,5.46,5,6.85,8.42a27.19,27.19,0,0,1,1.59,7.56l1,8.51a134.1,134.1,0,0,1,1.14,14.72,66.18,66.18,0,0,1-.53,8.44,12.64,12.64,0,0,1-1.79,5.66c-2.18,3-6.35,3.72-10.09,3.82a17.48,17.48,0,0,1-4.21-.27c-6.2-1.35-10.9-10-6.21-15.4,2-2.28,5-2.34,6.12-5.46C629.9,253.3,630.27,248.29,631.16,244Z"/><path id="Tracé_1239" data-name="Tracé 1239" class="cls-3" d="M626.12,245.44l4.9,8a4,4,0,0,1,.6,1.38c.13,1.05-.66,2-1.26,2.81-4.22,5.77-3.14,13.69-1.87,20.72a37.61,37.61,0,0,1-25.85-30.44c-.62-4.18-1.61-11.07,2.1-13.8C613.69,227.55,621.93,238.59,626.12,245.44Z"/><path id="Tracé_1240" data-name="Tracé 1240" class="cls-4" d="M651,229.42c-1.91-.32-3.93,0-5.72-.83-3.12-1.43-3.83-5.47-4.14-8.88,0-.32,0-.66-.06-1a27.8,27.8,0,0,1,3.62-3.15,18,18,0,0,1,3.7-1.63l3.46-1.22a19.71,19.71,0,0,1,.74,2.81c.39,2.3.07,4.69.66,6.95a18,18,0,0,0,2.92,5.58l5.1,7.45c-.93-.22-1.84-.47-2.75-.73A11.57,11.57,0,0,0,651,229.42Z"/></g></g><g id="Groupe_166" data-name="Groupe 166"><ellipse id="Ellipse_113" data-name="Ellipse 113" class="cls-14" cx="660.65" cy="453.05" rx="33.65" ry="3.35"/><g id="Groupe_165" data-name="Groupe 165"><g id="Groupe_163" data-name="Groupe 163"><path id="Tracé_787" data-name="Tracé 787" class="cls-16" d="M635.37,392.12a8.31,8.31,0,0,1-10.94-.39A8.31,8.31,0,0,1,635.37,392.12Z"/><g id="Groupe_162" data-name="Groupe 162"><path id="Tracé_788" data-name="Tracé 788" class="cls-16" d="M730.11,342.63a113.12,113.12,0,0,0-13.23,8.77,150.08,150.08,0,0,0-48,62.3,154.57,154.57,0,0,0-8.77,30.62l2.25.38a151.6,151.6,0,0,1,8.19-30.33,146.31,146.31,0,0,1,14.58-27.89,148.45,148.45,0,0,1,20.18-24.21,145.3,145.3,0,0,1,11.89-10.42,110.38,110.38,0,0,1,13-8.93Z"/><path id="Tracé_789" data-name="Tracé 789" class="cls-16" d="M747.25,330.67c-.25,3.53-2.59,7.43-6.5,10.18s-8.39,3.64-11.79,2.69c.25-3.53,2.6-7.44,6.5-10.19S743.85,329.71,747.25,330.67Z"/><path id="Tracé_790" data-name="Tracé 790" class="cls-16" d="M720.93,327.67c2.61,2.39,4.22,6.66,3.94,11.43s-2.36,8.83-5.23,10.9c-2.6-2.39-4.21-6.66-3.94-11.43S718.06,329.75,720.93,327.67Z"/><path id="Tracé_791" data-name="Tracé 791" class="cls-16" d="M681.42,293.25c-3,1.83-5.45,5.7-6.12,10.43s.57,9.12,3,11.72c3-1.83,5.44-5.7,6.11-10.43S683.82,295.85,681.42,293.25Z"/><path id="Tracé_792" data-name="Tracé 792" class="cls-16" d="M663.57,309.57c-.38,2.73.8,6.1,3.35,8.82s5.84,4.12,8.59,3.92c.37-2.73-.8-6.1-3.36-8.82S666.32,309.37,663.57,309.57Z"/><path id="Tracé_793" data-name="Tracé 793" class="cls-16" d="M675.75,322.71c2.33,1.5,5.87,1.88,9.42.73s6.21-3.53,7.21-6.1c-2.33-1.5-5.87-1.88-9.42-.73S676.75,320.14,675.75,322.71Z"/><path id="Tracé_794" data-name="Tracé 794" class="cls-16" d="M672.55,333.61c2.33,1.5,5.87,1.87,9.42.72s6.21-3.53,7.21-6.1c-2.33-1.5-5.87-1.87-9.42-.72S673.56,331,672.55,333.61Z"/><path id="Tracé_795" data-name="Tracé 795" class="cls-16" d="M668.93,346c2.32,1.5,5.86,1.87,9.41.72s6.21-3.53,7.21-6.1c-2.32-1.5-5.86-1.88-9.41-.72S669.93,343.37,668.93,346Z"/><path id="Tracé_796" data-name="Tracé 796" class="cls-16" d="M666.49,357.15c2.32,1.5,5.87,1.87,9.42.72s6.21-3.52,7.2-6.1c-2.32-1.5-5.86-1.87-9.41-.72S667.5,354.57,666.49,357.15Z"/><path id="Tracé_797" data-name="Tracé 797" class="cls-16" d="M665.89,357.24c-2.63.86-6.15.3-9.29-1.72s-5.1-5-5.4-7.74c2.62-.85,6.14-.31,9.28,1.72S665.58,354.49,665.89,357.24Z"/><path id="Tracé_798" data-name="Tracé 798" class="cls-16" d="M660.31,320.22c-.37,2.74.8,6.1,3.36,8.83s5.83,4.12,8.59,3.92c.37-2.74-.8-6.1-3.36-8.83S663.06,320,660.31,320.22Z"/><path id="Tracé_799" data-name="Tracé 799" class="cls-16" d="M656.75,332.79c-.37,2.74.8,6.1,3.36,8.83s5.83,4.12,8.59,3.92c.37-2.74-.8-6.1-3.36-8.83S659.51,332.6,656.75,332.79Z"/><path id="Tracé_800" data-name="Tracé 800" class="cls-16" d="M705.39,335.47c3.15,1.6,5.84,5.29,6.84,10s.08,9.14-2.13,11.9c-3.15-1.6-5.84-5.29-6.84-10S703.18,338.24,705.39,335.47Z"/><path id="Tracé_801" data-name="Tracé 801" class="cls-16" d="M694.91,345.12c3.15,1.6,5.83,5.29,6.84,10s.08,9.14-2.13,11.9c-3.15-1.6-5.84-5.29-6.84-10S692.7,347.88,694.91,345.12Z"/><path id="Tracé_802" data-name="Tracé 802" class="cls-16" d="M682.84,355c3.46.75,7,3.63,9.17,7.89s2.42,8.81,1,12.05c-3.45-.75-7-3.63-9.16-7.89S681.41,358.26,682.84,355Z"/><path id="Tracé_803" data-name="Tracé 803" class="cls-16" d="M674.35,367.44c3.15-.13,6.86,1.56,9.7,4.75s4.07,7.07,3.56,10.19c-3.16.13-6.86-1.56-9.7-4.75S673.83,370.56,674.35,367.44Z"/><path id="Tracé_804" data-name="Tracé 804" class="cls-16" d="M668.18,375.24c3.16-.13,6.86,1.56,9.7,4.75s4.07,7.07,3.56,10.19c-3.15.13-6.86-1.56-9.7-4.75S667.67,378.36,668.18,375.24Z"/><path id="Tracé_805" data-name="Tracé 805" class="cls-16" d="M664.66,386.75c2.7-.12,5.88,1.33,8.31,4.07s3.49,6.06,3,8.73c-2.7.12-5.88-1.33-8.31-4.06S664.22,389.42,664.66,386.75Z"/><path id="Tracé_806" data-name="Tracé 806" class="cls-16" d="M661.24,398.75a10.32,10.32,0,0,1,13.43,5.17A10.32,10.32,0,0,1,661.24,398.75Z"/><path id="Tracé_807" data-name="Tracé 807" class="cls-16" d="M659.86,408.64a8.27,8.27,0,0,1,11.52.5A8.27,8.27,0,0,1,659.86,408.64Z"/><path id="Tracé_808" data-name="Tracé 808" class="cls-16" d="M740.75,356.94c-3,1.86-7.55,2.25-12.07.68s-7.86-4.67-9.07-8c3-1.86,7.55-2.24,12.07-.68S739.54,353.62,740.75,356.94Z"/><path id="Tracé_809" data-name="Tracé 809" class="cls-16" d="M731.21,364.79c-3,1.87-7.55,2.25-12.07.69s-7.85-4.67-9.07-8c3-1.87,7.55-2.25,12.07-.69S730,361.47,731.21,364.79Z"/><path id="Tracé_810" data-name="Tracé 810" class="cls-16" d="M721,374.48c-3,1.86-7.55,2.24-12.07.68s-7.85-4.67-9.07-8c3-1.86,7.55-2.25,12.07-.68S719.83,371.15,721,374.48Z"/><path id="Tracé_811" data-name="Tracé 811" class="cls-16" d="M709.56,380.91c-2.44,1.52-6.14,1.83-9.81.56s-6.39-3.8-7.38-6.5c2.45-1.52,6.14-1.83,9.82-.56S708.58,378.22,709.56,380.91Z"/><path id="Tracé_812" data-name="Tracé 812" class="cls-16" d="M701,387.06a10.17,10.17,0,0,1-13.7-4.4c-.06-.13-.13-.26-.19-.4a10.17,10.17,0,0,1,13.69,4.41C700.84,386.8,700.91,386.93,701,387.06Z"/><path id="Tracé_813" data-name="Tracé 813" class="cls-16" d="M695.83,395a10.17,10.17,0,0,1-13.7-4.4c-.06-.13-.13-.26-.19-.4a10.18,10.18,0,0,1,13.7,4.41Z"/><path id="Tracé_814" data-name="Tracé 814" class="cls-16" d="M690.2,402.13a10.14,10.14,0,0,1-13.63-2.2A10.14,10.14,0,0,1,690.2,402.13Z"/><path id="Tracé_815" data-name="Tracé 815" class="cls-16" d="M684.76,411.14a8.8,8.8,0,0,1-10-6.86A8.8,8.8,0,0,1,684.76,411.14Z"/><path id="Tracé_816" data-name="Tracé 816" class="cls-16" d="M678.7,416.53a6.73,6.73,0,0,1-6.58-6.59,6.75,6.75,0,0,1,6.58,6.59Z"/><path id="Tracé_817" data-name="Tracé 817" class="cls-16" d="M674.69,417.94a3.76,3.76,0,0,1-4-3.5,4.51,4.51,0,0,1,0-.52,3.77,3.77,0,0,1,4,3.49,4.68,4.68,0,0,1,0,.53Z"/><path id="Tracé_818" data-name="Tracé 818" class="cls-16" d="M673.39,420.6a3.77,3.77,0,0,1-4-3.51,4.51,4.51,0,0,1,0-.52,3.77,3.77,0,0,1,4,3.5A4.68,4.68,0,0,1,673.39,420.6Z"/><path id="Tracé_819" data-name="Tracé 819" class="cls-16" d="M661.71,440.71a199.3,199.3,0,0,1-2.09-32.1c0-5.37.33-10.72.76-16.06s1.06-10.66,1.8-16a295.56,295.56,0,0,1,6.33-31.47q2-7.77,4.43-15.42c1.62-5.1,3.35-10.16,5.36-15.13l.63.25c-1.92,5-3.6,10-5.15,15.14s-2.95,10.24-4.22,15.42a293.32,293.32,0,0,0-5.91,31.4c-.67,5.28-1.25,10.57-1.6,15.88s-.58,10.63-.56,15.95A196.19,196.19,0,0,0,664,440.35Z"/><g id="Groupe_161" data-name="Groupe 161"><path id="Tracé_820" data-name="Tracé 820" class="cls-17" d="M648,408.11c-5-7.31-10.25-14.46-15.87-21.33l.09-.07c5.76,6.75,11.17,13.8,16.32,21a251,251,0,0,1,14.35,22.45c1,1.89,2.08,3.79,3.07,5.7l-1.16.66q-1.43-2.91-3-5.78A252.08,252.08,0,0,0,648,408.11Z"/><path id="Tracé_821" data-name="Tracé 821" class="cls-17" d="M626.7,377.45a7.23,7.23,0,0,1,5.88,8.37,7.09,7.09,0,0,1-.25,1,7.23,7.23,0,0,1-5.88-8.37A6,6,0,0,1,626.7,377.45Z"/><path id="Tracé_822" data-name="Tracé 822" class="cls-17" d="M640.28,381.72a8.3,8.3,0,0,1-3.94,10.2A8.29,8.29,0,0,1,640.28,381.72Z"/><path id="Tracé_823" data-name="Tracé 823" class="cls-17" d="M640.74,397.82a8.31,8.31,0,0,1-10.84-1.49,8.31,8.31,0,0,1,10.84,1.49Z"/><path id="Tracé_824" data-name="Tracé 824" class="cls-17" d="M646.27,405a8.3,8.3,0,0,1-10.84-1.5A8.3,8.3,0,0,1,646.27,405Z"/><path id="Tracé_825" data-name="Tracé 825" class="cls-17" d="M650,410.64a8.31,8.31,0,0,1-10.84-1.49A8.3,8.3,0,0,1,650,410.64Z"/><path id="Tracé_826" data-name="Tracé 826" class="cls-17" d="M654.18,416.91a8.3,8.3,0,0,1-10.83-1.49A8.3,8.3,0,0,1,654.18,416.91Z"/><path id="Tracé_827" data-name="Tracé 827" class="cls-17" d="M645.09,387.84a8.31,8.31,0,0,1-3.94,10.2A8.3,8.3,0,0,1,645.09,387.84Z"/><path id="Tracé_828" data-name="Tracé 828" class="cls-17" d="M649.69,394.14a8.31,8.31,0,0,1-3.94,10.2A8.3,8.3,0,0,1,649.69,394.14Z"/><path id="Tracé_829" data-name="Tracé 829" class="cls-17" d="M654.06,400.5a8.3,8.3,0,0,1-3.94,10.2A8.3,8.3,0,0,1,654.06,400.5Z"/><path id="Tracé_830" data-name="Tracé 830" class="cls-17" d="M658.3,406.71a8.3,8.3,0,0,1-3.94,10.2A8.3,8.3,0,0,1,658.3,406.71Z"/></g></g></g><g id="Groupe_164" data-name="Groupe 164"><rect id="Rectangle_313" data-name="Rectangle 313" class="cls-18" x="647.37" y="429.4" width="23.72" height="22.12"/><rect id="Rectangle_314" data-name="Rectangle 314" class="cls-19" x="641.9" y="425.04" width="34.68" height="1.81"/><rect id="Rectangle_315" data-name="Rectangle 315" class="cls-20" x="644.03" y="426.85" width="30.42" height="3.94"/></g></g></g><g id="Groupe_362" data-name="Groupe 362"><ellipse id="Ellipse_199" data-name="Ellipse 199" class="cls-2" cx="789.08" cy="484.66" rx="61.57" ry="6.34"/><path id="Tracé_1268" data-name="Tracé 1268" class="cls-21" d="M768.1,262.46,772,301h32.1l-1.54-58.64c0-12.62-8.72-23.66-21.34-23.66s-20.83,10.52-20.83,23.15L758.33,301h5.23Z"/><path id="Tracé_1269" data-name="Tracé 1269" class="cls-22" d="M786.76,454.7s-1.38,8.78-3.7,10.17,12,4.61,12,4.61l2.31-13.85Z"/><path id="Tracé_1270" data-name="Tracé 1270" class="cls-21" d="M803.64,354.47l5.08,6-2.31,20.79-1.84,41.11s3.7,35.57,0,36.49-20.33.46-19.86-1.85.92-4.15,1.84-7.39-.92-14.78-.92-14.78l2.31-12.93L779.62,366Z"/><path id="Tracé_1271" data-name="Tracé 1271" class="cls-21" d="M787.63,463.48s-5.08-.92-5.54,0-9.24,10.62-10.63,10.62-11.54,9.24-.92,9.7S798.72,476,798.72,476s-2.59-11.75-2.45-11.19S787.63,465.79,787.63,463.48Z"/><path id="Tracé_1272" data-name="Tracé 1272" class="cls-22" d="M781.53,442.23s12.93,14.32,13.4,15.7,7.39,0,7.39,0l2.77-9.24-2.31-3.23-12.94-10.62Z"/><path id="Tracé_1273" data-name="Tracé 1273" class="cls-21" d="M799.61,452.86l-6.7,6.3s8.54,13.1,8.54,14.48.46,12.93,5.08,11.08,5.08-20.32,5.08-20.32-.46-18.94-3.23-20.32-8.85-.95-8.85-.95S803.3,452.39,799.61,452.86Z"/><path id="Tracé_1274" data-name="Tracé 1274" class="cls-21" d="M762.76,313.36s-2.31,7.39-2.77,9.24-3.23,6.93-3.23,14.78.92,17.09,0,18-15.7,52.65-9.24,58.2,27.72,24,29.1,26.32,1.85,7.86,4.62,6.93,13.4-10.16,13.86-12-6-5.08-6-5.08-12.94-18.94-16.17-18.47-2.77-2.31-2.31-3.7,1.39-2.31,0-2.31-.46-3.7,0-5.55,11.09-26.79,11.09-26.79l28.17-12.47s-1.38-33.72-11.54-43L796,312S770.15,310.13,762.76,313.36Z"/><path id="Tracé_1275" data-name="Tracé 1275" class="cls-11" d="M773.94,250.44s2.31,16.17-3.24,17.09-10.16.46-10.16.92,13.86,14.78,13.86,14.78l12.94-.92,11.54-12.47s-10.62-1.85-10.62-8.31-.46-11.09-.46-11.09Z"/><circle id="Ellipse_207" data-name="Ellipse 207" class="cls-11" cx="780.98" cy="242.82" r="14.32"/><path id="Tracé_1276" data-name="Tracé 1276" class="cls-23" d="M772.89,264.15s-22.36,2.1-23.74,8.1,9.24,43.42,10.62,46.65a10.26,10.26,0,0,1,.93,5.54,18.26,18.26,0,0,1,14.78-3.23c8.77,1.85,21.24.92,21.24.92s4.16-17.09,5.08-18.93,4.62-12,4.62-14.79S812,274.1,812,274.1s-2.77-8.32-12.94-7.86c0,0-4.43-2-5.68-.53s-8.17,7.92-17,5.15S772.89,264.15,772.89,264.15Z"/><path id="Tracé_1277" data-name="Tracé 1277" class="cls-23" d="M801.51,271.62l8.77,2.31s6.47,23.56,6.93,24,.93,3.23.93,3.23,0,.46.92,1.85,2.31.46,1.39,2.31-2.31.92-1.39,2.77.46,6.93.46,6.93-2.31-8.78-10.62-6.47l-5.54-24.94Z"/><path id="Tracé_1278" data-name="Tracé 1278" class="cls-24" d="M805.5,276l0,.11L790.25,324l-10-2.21-10.8-2.4L784.71,270Z"/><path id="Tracé_1279" data-name="Tracé 1279" class="cls-23" d="M759.78,271.62,751,273.93s-6.46,23.56-6.93,24-.92,3.23-.92,3.23,0,.46-.92,1.85-2.31.46-1.39,2.31,2.31.92,1.39,2.77-.47,6.93-.47,6.93,2.31-8.78,10.63-6.47l5.54-24.94Z"/><path id="Tracé_1280" data-name="Tracé 1280" class="cls-11" d="M744.53,306.29l-2.88,4.82s-1.27,9,5.2,9,15.7-8.78,15.7-8.78,4.62-1.84,7.39-1.38,18,0,11.54-7.85-17.55,0-17.55,0l-11.54,5.54-6-3.23Z"/><path id="Tracé_1281" data-name="Tracé 1281" class="cls-23" d="M748.46,300.15l4.62,7.39s-10.63,1.39-11.55,3.7,4.16-12,4.16-12Z"/><path id="Tracé_1282" data-name="Tracé 1282" class="cls-21" d="M769.06,237.77c9.3-5,13.12-4.8,24.69,0l3.09-7.52a5.35,5.35,0,0,0-5.34-5.34H770.8a5.34,5.34,0,0,0-5.34,5.34Z"/><path id="Tracé_1283" data-name="Tracé 1283" class="cls-25" d="M805.21,276,790,323.93l-10-2.22,15-48.65Z"/><path id="Tracé_1284" data-name="Tracé 1284" class="cls-24" d="M797.74,273l-15.25,49.42,20.79,4.62,15.24-48Z"/><path id="Tracé_1285" data-name="Tracé 1285" class="cls-11" d="M817.16,306.29l2.88,4.82s1.28,9-5.2,9-15.7-8.78-15.7-8.78-4.61-1.84-7.39-1.38-18,0-11.54-7.85,17.55,0,17.55,0l11.55,5.54,6-3.23Z"/><path id="Tracé_1286" data-name="Tracé 1286" class="cls-23" d="M812.77,300.15l-4.62,7.39s10.63,1.39,11.55,3.7-4.16-12-4.16-12Z"/><ellipse id="Ellipse_199-2" data-name="Ellipse 199" class="cls-2" cx="247.69" cy="506.52" rx="36.87" ry="6.34"/></g><path id="Tracé_1336" data-name="Tracé 1336" class="cls-4" d="M237.28,366.32H190a1.33,1.33,0,0,0-1-.49h-13.6a1.36,1.36,0,0,0-1.36,1.36,1.37,1.37,0,0,0,1.36,1.36h2.72v18.66h-45a1.37,1.37,0,0,0-1.28-1H118.3a1.36,1.36,0,1,0,0,2.72h1.38v19.16H74a1.38,1.38,0,0,0-.56-.12H59.82a1.35,1.35,0,0,0-1.37,1.35,1.37,1.37,0,0,0,1.35,1.37h1.38V429H16.07a1.37,1.37,0,0,0-1.1-.61H1.37a1.36,1.36,0,0,0,0,2.72H2.73v20.4h234.8Z"/><rect id="Rectangle_498" data-name="Rectangle 498" class="cls-26" x="199.22" y="140.82" width="134.25" height="155.84"/><g id="Groupe_371" data-name="Groupe 371"><path id="Path_952" data-name="Path 952" class="cls-24" d="M289.8,219.66a23.55,23.55,0,0,1-3.85,13,23.13,23.13,0,0,1-1.74,2.33,23.72,23.72,0,0,1-5.08,4.51q-.76.51-1.59,1a23.56,23.56,0,0,1-9.21,2.84c-.73.07-1.48.1-2.23.1a23,23,0,0,1-6.12-.8,22.57,22.57,0,0,1-3.3-1.14c-.55-.24-1.09-.5-1.61-.78a23.16,23.16,0,0,1-3.57-2.31c-.52-.4-1-.83-1.5-1.28a23.7,23.7,0,1,1,39.8-17.38Z"/><g id="Group_32" data-name="Group 32"><rect id="Rectangle_273" data-name="Rectangle 273" class="cls-3" x="264.65" y="208.59" width="2.9" height="22.12"/><rect id="Rectangle_274" data-name="Rectangle 274" class="cls-3" x="255.04" y="218.2" width="22.12" height="2.9"/></g></g><g id="Groupe_373" data-name="Groupe 373"><ellipse id="Ellipse_212" data-name="Ellipse 212" class="cls-2" cx="554.86" cy="575.38" rx="139.2" ry="7.79"/><g id="Groupe_364" data-name="Groupe 364"><g id="Groupe_372" data-name="Groupe 372"><circle id="Ellipse_210" data-name="Ellipse 210" class="cls-21" cx="527.13" cy="270.51" r="22.04"/><path id="Tracé_1300" data-name="Tracé 1300" class="cls-9" d="M521.37,473.17l-16.7,17.71-29.4,49.79-12.7-4,15-29.74s8.69-22.72,13-25.73,11.7-22.72,11.7-22.72l8-6.35Z"/><path id="Tracé_1301" data-name="Tracé 1301" class="cls-9" d="M555.79,482.86l1.33,5.68s4.35,17.71,11,25.73l16,27.73,12-4-23.73-56.13Z"/><circle id="Ellipse_211" data-name="Ellipse 211" class="cls-9" cx="530.9" cy="278.21" r="18.04"/><path id="Tracé_1302" data-name="Tracé 1302" class="cls-9" d="M516.7,287.07l-2.34,19.37,15,7.36s0-16.71,4-21.05Z"/><path id="Tracé_1303" data-name="Tracé 1303" class="cls-9" d="M469.58,412l-1.67,5.68s-11,21.72-1.67,21.72,11-20.05,11-20.05l1-5Z"/><path id="Tracé_1304" data-name="Tracé 1304" class="cls-21" d="M546.43,389.31l-2.34,16.37,28.4,59.81,1.67,17.37L521,489.54l-11.69-32.41-18.72,24.06,10.7-24.73s3.34-16.7,2.34-21,.66-26.06,3.67-31.4S546.43,389.31,546.43,389.31Z"/><path id="Tracé_1305" data-name="Tracé 1305" class="cls-21" d="M477.27,540.67l-16-5.35-5,8s-9.69,2.67-9.36,9.69-1.67,19-1.67,19l7,.67,2.67-13.7,13.7,16.38s24.39,1.33,25.4-2.68-17.38-8.35-17.38-8.35l-3-14.37Z"/><path id="Tracé_1306" data-name="Tracé 1306" class="cls-21" d="M597.22,536l-14.7,4.68V544s-4.34,6.68-3.67,12.36,3.67,19.38,3.67,19.38h7.68l-.33-12.7,15.37,12.7s27.4-2,27.4-6.35-21-7.35-21-7.35Z"/><path id="Tracé_1309" data-name="Tracé 1309" class="cls-21" d="M508.32,263.82c.34-4.13,2.32-8.36,6-10.3-1.84-3.69-3.48-7.89-2.27-11.82a9,9,0,0,1,6.8-6.08,17.63,17.63,0,0,1,5.28.06l8.24.94c2.67.3,5.44.64,7.71,2.08A8.93,8.93,0,0,1,542.83,251a9.29,9.29,0,0,1-1.74,2c5.76,4.61,9.61,8.11,12.23,15-4.8-3.87-9.4-5.23-15.56-5.57a14.83,14.83,0,0,0-15.58,13.59c-.16,1.92.05,3.9-.51,5.75s-2.24,3.58-4.16,3.31c.27,0,1.9-4.86.75-7.12l0,0a2.13,2.13,0,0,0-1.17-1,3.37,3.37,0,0,0-4.35,1.94,3,3,0,0,0-.12.4c-.64,2.46-1.67,5.59-2.56,4.76-1.17-1.09-.68-10.69-1-12.18a27.67,27.67,0,0,1-.72-8.06Z"/><path id="Tracé_1310" data-name="Tracé 1310" class="cls-27" d="M514.38,253.45s18.11,1.18,26.77-.39"/><path id="Tracé_1311" data-name="Tracé 1311" class="cls-21" d="M515.41,251c-1.84-3.68-3.47-7.89-2.27-11.82a9,9,0,0,1,3.16-4.44,9.06,9.06,0,0,0-4.83,5.44c-1.2,3.93.43,8.14,2.27,11.82C515.19,251.81,511.76,253,515.41,251Z"/><path id="Tracé_1312" data-name="Tracé 1312" class="cls-25" d="M521.21,344.7l-26.07,46.11-10,25.06,14-24.06Z"/><path id="Tracé_1299" data-name="Tracé 1299" class="cls-28" d="M545.1,369.93,553.45,392l8.35,15.37L551.44,414l-8.35-14.7-10-23.05Z"/><path id="Tracé_1307" data-name="Tracé 1307" class="cls-29" d="M530.39,309.78s-13.7-13.7-20-10.35v6s-9.36,4.34-9.69,11-10,67.49-10,67.49l-22.72,79.19s7,11,32.74-1.34l16-54.46s-17,61.48-8.69,60.48,41.1-77.19,41.1-77.19l-2.34-36.08s5.35-15.7-5.34-26.4Z"/><path id="Tracé_1308" data-name="Tracé 1308" class="cls-28" d="M507,311.79s-5.68,2-9.69,10.69-24.06,69.84-24.06,69.84L467.91,414l15,3.68,7.36-22.39,27.4-50.79S522,317.8,507,311.79Z"/></g></g><g id="Groupe_237" data-name="Groupe 237"><g id="Groupe_236" data-name="Groupe 236"><rect id="Rectangle_439" data-name="Rectangle 439" class="cls-30" x="556.39" y="454.71" width="2.08" height="11.42" transform="translate(-122.54 706.09) rotate(-59.42)"/><rect id="Rectangle_452" data-name="Rectangle 452" class="cls-3" x="522.31" y="431.87" width="65.79" height="47.45" transform="translate(-75.2 799.7) rotate(-68)"/><g id="Groupe_234" data-name="Groupe 234" class="cls-31"><path id="Tracé_1143" data-name="Tracé 1143" class="cls-32" d="M547.88,428a7.28,7.28,0,1,1,8.25,9.85v0a2.69,2.69,0,0,1-1,.18v0a6.63,6.63,0,0,1-3.46-.58h0a6.73,6.73,0,0,1-2.67-1.86v-.06a2.74,2.74,0,0,1-.46-.7l0-.08A7.25,7.25,0,0,1,547.88,428Z"/></g><circle id="Ellipse_181" data-name="Ellipse 181" class="cls-33" cx="554.63" cy="430.68" r="7.06"/><path id="Tracé_1144" data-name="Tracé 1144" class="cls-34" d="M551.05,432.14s-1.61-.5-2.35,2.51a2.4,2.4,0,0,0,.55.78l2.08-2.62Z"/><path id="Tracé_1145" data-name="Tracé 1145" class="cls-34" d="M556.11,434.19s1.51.75-.05,3.44a2.52,2.52,0,0,1-.94.17l.33-3.33Z"/><path id="Tracé_1146" data-name="Tracé 1146" class="cls-35" d="M553,427.51s-.26.3-.6.64c-.73.73-1.67,4.3-.93,5a5.36,5.36,0,0,0,3.6,1.65c1.36.05,3.29-3.67,2.83-4.95a4.22,4.22,0,0,0-.18-.45Z"/><circle id="Ellipse_182" data-name="Ellipse 182" class="cls-35" cx="555.59" cy="428.32" r="3.13"/><path id="Tracé_1147" data-name="Tracé 1147" class="cls-14" d="M556.08,434.18,551,432.13,549.73,434s-.66.83-.48,1.38,3,2.8,5.91,2.47a2.82,2.82,0,0,0,.75-1.66c.11-1.06,0-.1,0-.1Z"/><path id="Tracé_1148" data-name="Tracé 1148" class="cls-14" d="M556.15,434.2l-5.07-2L549.79,434s-.66.83-.47,1.38,3,2.79,5.91,2.47a2.88,2.88,0,0,0,.75-1.66c.11-1.06,0-.1,0-.1Z"/><path id="Tracé_1149" data-name="Tracé 1149" class="cls-36" d="M556.11,434.19l-5.06-2.05L549.76,434s-.66.83-.48,1.37,3,2.8,5.91,2.47a2.82,2.82,0,0,0,.75-1.66c.11-1.05,0-.09,0-.09Z"/><path id="Tracé_1150" data-name="Tracé 1150" class="cls-14" d="M553.28,431.09l2,.82-.76,1.86a.82.82,0,0,1-1.07.46h0l-.5-.2a.82.82,0,0,1-.45-1.08h0Z"/><path id="Tracé_1151" data-name="Tracé 1151" class="cls-34" d="M553.31,431l2,.82-.76,1.87a.83.83,0,0,1-1.07.46h0l-.5-.2a.83.83,0,0,1-.45-1.08h0Z"/><path id="Tracé_1152" data-name="Tracé 1152" class="cls-14" d="M553.2,431.3a3.09,3.09,0,0,0,2,.82l.1-.25-2-.82Z"/><circle id="Ellipse_183" data-name="Ellipse 183" class="cls-34" cx="555.33" cy="428.95" r="3.13"/><path id="Tracé_1153" data-name="Tracé 1153" class="cls-35" d="M553,426.73l5.54,2.23s.43-2.42-1.73-3.13A4,4,0,0,0,553,426.73Z"/><ellipse id="Ellipse_184" data-name="Ellipse 184" class="cls-34" cx="552.54" cy="427.68" rx="0.55" ry="0.29" transform="translate(-50.98 779.77) rotate(-68)"/><ellipse id="Ellipse_185" data-name="Ellipse 185" class="cls-34" cx="558.21" cy="429.97" rx="0.55" ry="0.29" transform="translate(-49.56 786.46) rotate(-68)"/><path id="Tracé_1154" data-name="Tracé 1154" class="cls-14" d="M553,426.8l5.54,2.24s.43-2.43-1.73-3.13A4,4,0,0,0,553,426.8Z"/><rect id="Rectangle_453" data-name="Rectangle 453" class="cls-37" x="557.27" y="430.7" width="2.08" height="34.25" transform="translate(-66.05 797.72) rotate(-68)"/><rect id="Rectangle_454" data-name="Rectangle 454" class="cls-37" x="555.33" y="435.51" width="2.08" height="34.25" transform="translate(-71.73 798.93) rotate(-68)"/><rect id="Rectangle_455" data-name="Rectangle 455" class="cls-37" x="571.19" y="426.72" width="2.08" height="17.64" transform="translate(-45.96 802.94) rotate(-68)"/><rect id="Rectangle_456" data-name="Rectangle 456" class="cls-30" x="569.24" y="433.09" width="2.08" height="14.53" transform="translate(-51.64 804.15) rotate(-68)"/><rect id="Rectangle_457" data-name="Rectangle 457" class="cls-37" x="551.46" y="441.62" width="2.08" height="30.1" transform="translate(-77.89 797.86) rotate(-68)"/><rect id="Rectangle_458" data-name="Rectangle 458" class="cls-37" x="547.59" y="447.73" width="2.08" height="25.95" transform="translate(-84.05 796.8) rotate(-68)"/><rect id="Rectangle_459" data-name="Rectangle 459" class="cls-37" x="544.2" y="453.52" width="2.08" height="22.83" transform="translate(-90.09 796.3) rotate(-68)"/><rect id="Rectangle_460" data-name="Rectangle 460" class="cls-37" x="545.14" y="456.38" width="2.08" height="29.06" transform="translate(-95.04 800.92) rotate(-68)"/><rect id="Rectangle_461" data-name="Rectangle 461" class="cls-30" x="535.02" y="466.71" width="2.08" height="11.42" transform="translate(-102.77 792.47) rotate(-68)"/></g></g><path id="Tracé_1371" data-name="Tracé 1371" class="cls-9" d="M558.46,404l3.34,6.68s10.7,17.38,3.34,19.38-9.69-13-9.69-13l-1.33-8Z"/></g><g id="Groupe_368" data-name="Groupe 368"><g id="Groupe_366" data-name="Groupe 366"><path id="Tracé_1338" data-name="Tracé 1338" class="cls-4" d="M192.42,356.79c-3.7,1.52-7.65,2.9-11.66,2.68-.61,0-1.37-.26-1.46-.87a1.32,1.32,0,0,1,.12-.62,37.81,37.81,0,0,0,1.75-7.57.42.42,0,0,1,.51-.45c1.82-.07,3.58.7,5.41.72a7.06,7.06,0,0,0,2.69-.5c.76-.29,1.64-1.2,2.35-1.33C192.37,351.46,192,354.1,192.42,356.79Z"/><path id="Tracé_1339" data-name="Tracé 1339" class="cls-4" d="M117.7,369.62c-3-1.07-6.11-2.22-8.33-4.51a.94.94,0,0,1-.32-.49,1.14,1.14,0,0,1,.07-.58,22.34,22.34,0,0,1,3.88-7.3,16.15,16.15,0,0,1,3.82,2c.82.51,2.88,1.15,3.15,2.14.17.6-.34,1.44-.53,2-.25.75-.49,1.5-.7,2.25A27.94,27.94,0,0,0,117.7,369.62Z"/><path id="Tracé_1340" data-name="Tracé 1340" class="cls-38" d="M179.35,368.5a2.64,2.64,0,0,0,.91,1.56,2.23,2.23,0,0,0,1.13.31c5.91.51,11.49-3.55,17.4-3.11,1.25.09,2.41.39,3.61.46a18.31,18.31,0,0,0,4.25-.35c2-.31,3.91-.71,5.83-1.16a14.43,14.43,0,0,0,4.21-1.51,5.45,5.45,0,0,0,2.63-3.51,2.72,2.72,0,0,0-.33-1.91,2.29,2.29,0,0,0-.52-.51,5.26,5.26,0,0,0-1.55-.69l-2.32-.76a13.37,13.37,0,0,0-3.43-.79,22.15,22.15,0,0,0-2.57.09c-3-.09-5.72-1.74-8.27-3.34l-3.45-2.17a2.7,2.7,0,0,0-1.14-.49,2.64,2.64,0,0,0-1.18.19,16,16,0,0,0-6.71,4.42,10.61,10.61,0,0,1-1.53,1.54,6.67,6.67,0,0,1-5.25.71c-.8-.18-.7-.44-1.17-1s-1.27-.82-1.74,0a1.69,1.69,0,0,0-.19.83,21.28,21.28,0,0,0,1.23,6.1,2.88,2.88,0,0,1,.13,1,5.65,5.65,0,0,1-.3,1,1.22,1.22,0,0,0-.06.26,6.07,6.07,0,0,0,.38,2.95Z"/><path id="Tracé_1341" data-name="Tracé 1341" class="cls-4" d="M179.35,368.51a2.64,2.64,0,0,0,.91,1.55,2.23,2.23,0,0,0,1.13.31c5.91.51,11.49-3.55,17.4-3.11,1.25.1,2.41.39,3.61.46a18.31,18.31,0,0,0,4.25-.35c2-.31,3.91-.71,5.83-1.16a14.43,14.43,0,0,0,4.21-1.51,5.45,5.45,0,0,0,2.63-3.51,2.72,2.72,0,0,0-.33-1.91,2.29,2.29,0,0,0-.52-.51c-.15.74-.14,1.68-.26,2.05a3.88,3.88,0,0,1-2.05,2.48,6.15,6.15,0,0,1-2.37.31c-5.21.08-10.42,1.44-15.59.85a36.93,36.93,0,0,0-5.35-.58,40.38,40.38,0,0,0-5.34,1c-2.81.5-5.7.38-8.54.67A6,6,0,0,0,179.35,368.51Z"/><path id="Tracé_1342" data-name="Tracé 1342" class="cls-38" d="M105.28,372.53a10.16,10.16,0,0,0,4.38,4.51,34.52,34.52,0,0,1,5.38,3.47c2,1.76,3.29,4.25,5.59,5.57a10.78,10.78,0,0,0,2.75,1.05,18.19,18.19,0,0,0,3.36.59,23.28,23.28,0,0,0,8.59-1.78,8.05,8.05,0,0,0,2.55-1.24,6.64,6.64,0,0,0,.89-1,5.46,5.46,0,0,0,1.26-2.22,1.83,1.83,0,0,0-.15-1.24,3,3,0,0,0-1.14-1,20.38,20.38,0,0,0-2.55-1.3,12.38,12.38,0,0,1-3.29-1.65,7.4,7.4,0,0,1-1.65-2.08,20.15,20.15,0,0,1-1.92-4.26,14.26,14.26,0,0,0-1.11-2.89c-.83-1.41-2.33-2.5-2.64-4.11a1.16,1.16,0,0,0-.24-.67,1,1,0,0,0-.62-.19,10.5,10.5,0,0,0-3,.1,3.35,3.35,0,0,0-2.31,1.7c-.27.58-.36,1.26-.88,1.68a2.26,2.26,0,0,1-.88.27,7.41,7.41,0,0,1-4.37-.19,5.24,5.24,0,0,1-2.68-3.25c-.12-.54,0-1.15-.87-1.05s-1,.86-1.2,1.37a14.18,14.18,0,0,0-1.42,5.69,1.7,1.7,0,0,0-.55,0,2.31,2.31,0,0,0-1.59,1.45,3.83,3.83,0,0,0,.26,2.7Z"/><path id="Tracé_1343" data-name="Tracé 1343" class="cls-4" d="M105.27,372.53a10.21,10.21,0,0,0,4.39,4.5,35.33,35.33,0,0,1,5.38,3.48c2,1.76,3.29,4.25,5.59,5.57a10.78,10.78,0,0,0,2.75,1.05,17.27,17.27,0,0,0,3.35.58,23.18,23.18,0,0,0,8.59-1.77,8,8,0,0,0,2.56-1.24,6.64,6.64,0,0,0,.89-1,5.46,5.46,0,0,0,1.26-2.22,4.17,4.17,0,0,0-1.86.07c-1.23.39-1.83,1.82-2.95,2.5-1.58,1-3.6.21-5.45.27-1.25,0-2.4.42-3.6.35a9.31,9.31,0,0,1-3-.86,14.1,14.1,0,0,1-3.43-1.92,17.94,17.94,0,0,1-2.44-2.78,47.21,47.21,0,0,0-4.87-5.33,4.93,4.93,0,0,0-.89-.69,10.45,10.45,0,0,0-1.06-.4,7.05,7.05,0,0,1-3-3.21,6.41,6.41,0,0,0-.8-1.13,2.27,2.27,0,0,0-1.6,1.44,3.82,3.82,0,0,0,.21,2.76Z"/><path id="Tracé_1344" data-name="Tracé 1344" class="cls-39" d="M179.34,158.75a12.94,12.94,0,0,0-2.4,5c-.39,1.82-1.81,15.46-1.06,17.15-1.94-1.18-8.07.21-10-.89-.82-.48-5.1-2.79-5.87-3.4s-5-1.19-5.67-1.84c-2.35-2.42,7.66-16.61,5.27-18.94a.53.53,0,0,1-.17-.74l.05-.07a20.84,20.84,0,0,1,3-3.52,6.23,6.23,0,0,0,1.94-4.13,12.33,12.33,0,0,1,3.87,1.37q4.35,2.07,8.6,4.35c1.1.58,3.11,1.23,3.83,2.29S180,157.86,179.34,158.75Z"/><path id="Tracé_1345" data-name="Tracé 1345" class="cls-40" d="M157.33,159.71a37.42,37.42,0,0,1,6.7,3,11.42,11.42,0,0,1,5,4.69c.39.82.61,1.71,1,2.55,1.58,3.7,5.62,5.58,8,8.76a18.47,18.47,0,0,1,1.84,3.16,43.06,43.06,0,0,1,2.43,6.5c.61,2.17-1.1,4.23-1.38,6.46a37.71,37.71,0,0,0,.23,6.55,76.56,76.56,0,0,1-.44,12.39c-.77,8.68-4.28,33.06-5.05,41.75-9.38.12-34.13,1.2-43.14-1.35-3-.86,12.92-23.78,9.89-24.25a1.09,1.09,0,0,1-1.18-1,1.93,1.93,0,0,1,0-.24c-.45-12.89,5.6-25.2,6.42-38,.29-4.46,1.82-8.62,2.66-13,.74-4,.61-8.12,1.75-12a7.24,7.24,0,0,1,1-2.22,8.7,8.7,0,0,1,1.37-1.41C155.38,161.17,156.36,160.51,157.33,159.71Z"/><circle id="Ellipse_220" data-name="Ellipse 220" class="cls-39" cx="174.88" cy="143.76" r="14.23"/><path id="Tracé_1346" data-name="Tracé 1346" class="cls-4" d="M162.59,153.93a4.79,4.79,0,0,0-5.38.62,2.62,2.62,0,0,0-.87,2.89l-6.8,1.91a15,15,0,0,0-3.16,1.15,4.93,4.93,0,0,0-2.25,2.41c-.06.14-.12.29-.25.34s-.23,0-.34,0a6.18,6.18,0,0,0-3.56.28,19,19,0,0,0-8.83,7,3.26,3.26,0,0,0-.82,1.76c0,.84.53,1.76.09,2.5,1.7,6.4,1.08,13,1.26,19.6A8.56,8.56,0,0,1,130.4,198a12.42,12.42,0,0,0-1.34,3.88c-.38,3.56,2.33,6.91,2,10.48a16.93,16.93,0,0,1-1.37,4.33,9.79,9.79,0,0,0-.73,5.29c.16.79.47,1.56.65,2.35a14.66,14.66,0,0,1,.25,3.24c.07,2,0,4-.07,6-.08,3.26-.38,6.83-2.66,9.16,6.84-.62,14-1.36,19.67-5.29a10.6,10.6,0,0,0,2.13-1.88c1.84-2.2,2.2-5.24,2.47-8.08a33.28,33.28,0,0,0,0-9.61,10.38,10.38,0,0,1-.36-3c.19-1.85,1.6-3.31,2.9-4.66a19.31,19.31,0,0,0,3.7-4.86,7.56,7.56,0,0,0,.44-5.93c-.37-.93-1-1.75-1.35-2.71a2.35,2.35,0,0,1,.7-2.7c4.39-2.66,5.17-8.93,4.94-14.1a38.72,38.72,0,0,0-1.4-7.78l-1.23-5a6.83,6.83,0,0,0,.89-5.27,5.63,5.63,0,0,1-.38-1.57,4.3,4.3,0,0,1,.65-1.95,15.76,15.76,0,0,0,1.68-4.4Z"/><path id="Tracé_1347" data-name="Tracé 1347" class="cls-4" d="M181.41,165.79a41,41,0,0,0,1.41,4.58c.28.55.66,1,1,1.56a10.32,10.32,0,0,1,1.09,6.65,36,36,0,0,1-1.8,6.6,9.37,9.37,0,0,0-.53,2.27,10.44,10.44,0,0,0,.18,2.37,69.65,69.65,0,0,1,.8,9.56,18.59,18.59,0,0,1-1.28,8.18,2.22,2.22,0,0,1-1.09,1.28,2.52,2.52,0,0,1-1.19,0l-3.86-.42a2.31,2.31,0,0,1-.93-.22,2.19,2.19,0,0,1-.86-1.22,20.94,20.94,0,0,1-.66-8.73c.71-8.86,2.44-17.67,2.09-26.55-.09-2.5-.78-6.12.44-8.43.49-.95.34-.56,1.24-.38a10.76,10.76,0,0,1,1.39.31,4.22,4.22,0,0,1,2.58,2.54Z"/><path id="Tracé_1349" data-name="Tracé 1349" class="cls-41" d="M174.87,184q.56,7.82,1.06,15.61l-14.61,0a10,10,0,0,1,.11-4.41c.43-3.45-.47-6.93-.37-10.41.12-2.65.86-5.24,1-7.9,0-1.54-.11-3.08-.17-4.63a33.41,33.41,0,0,1,.5-4.58,27.93,27.93,0,0,1,1.52-6.31c1.92.2,4,.45,5.4,1.78a6.5,6.5,0,0,1,1.62,2.7c1.06,3,.76,6.39,1.93,9.34a27.73,27.73,0,0,1,2,8.79Z"/><path id="Tracé_1350" data-name="Tracé 1350" class="cls-38" d="M175.5,254.29c0,3.13,1.93,5.87,3.6,8.51a71.29,71.29,0,0,1,6.3,12.6,11.59,11.59,0,0,0,1.58,3.19,30.19,30.19,0,0,0,2.38,2.28c2,2.07,2.76,5,3.2,7.9q.44,2.84.59,5.7c.14,2.32.16,4.78,1.41,6.76-1.15,0-1.52,1.63-1.16,2.73s1,2.19.77,3.31c-1.22.83-.73,2.68-.32,4.1a33.41,33.41,0,0,1,1,7.58q.81,15.41,1.25,30.84c-4.52,2.82-9.79,5.93-15.1,5.07a3.16,3.16,0,0,1-2.45-1.46,3.52,3.52,0,0,1-.22-1.54l.09-8.68a15.44,15.44,0,0,0-.78-6.22c-.62-1.44-1.69-2.88-1.31-4.4.14-.51.43-1,.61-1.48.72-2-.5-4.13-1.14-6.21a4.89,4.89,0,0,1-.27-1.42,7.42,7.42,0,0,1,.25-1.69,24,24,0,0,0-.49-12.24,2.84,2.84,0,0,1-.19-1.55,4.68,4.68,0,0,0,.21-.73,1.78,1.78,0,0,0-.41-1.08,10.55,10.55,0,0,0,1.33-2.21,2.6,2.6,0,0,1-1.72-3.25,2.18,2.18,0,0,1,.25-.56,1.36,1.36,0,0,1-1.43-1.29,1.41,1.41,0,0,1,.21-.8c.24-.28.58-.47.72-.81s-.21-1-.59-1.43l-2-2.05c-1.49-1.56-2.31-3.75-3.87-5.24a45,45,0,0,1-5.75-7.23l-6.72-9.77-2,3a8.29,8.29,0,0,0-1.52,3,10.6,10.6,0,0,0,.11,3.13c.59,6.12-1.76,12.19-1.61,18.33a11.16,11.16,0,0,1-.25,4.07,8.14,8.14,0,0,0-.43,1.26,6.06,6.06,0,0,0,.17,1.85,8.47,8.47,0,0,1-1.91,6.85c-1.06,1.29-2.55,2.28-2.84,3.85a6.56,6.56,0,0,1-.28,1.4c-.43.93-1.75,1.38-1.78,2.39,0,.57.44,1.13.26,1.68a1.53,1.53,0,0,1-.51.64l-3.29,2.91c-3.64,3.24-4.56,8.66-6.74,13a22.2,22.2,0,0,0-1.86,4.51c-.71,2.78-.53,6-2.4,8.14a6.48,6.48,0,0,0-1.33,1.66c-.47,1.13.14,2.38.39,3.58s-.28,2.86-1.51,2.81a8.43,8.43,0,0,1,1.16,4.38,22.85,22.85,0,0,1-14.86-1.88,5.49,5.49,0,0,1-3.16-3.09,1.35,1.35,0,0,1,0-.77,2.18,2.18,0,0,1,.68-.88c3-2.85,2.93-7.6,3.75-11.67.73-3.6,2.26-7,3.49-10.45,2.54-7.49,3.36-15.95,8.63-21.84,1.21-1.29,2.56-2.59,2.87-4.26.16-1-.07-1.95,0-2.93A2.35,2.35,0,0,1,130.1,304a12.36,12.36,0,0,1-1.59-4.1,5.76,5.76,0,0,1-.26-1.89,9.41,9.41,0,0,1,.45-2,17.9,17.9,0,0,0-.06-10,15.75,15.75,0,0,1-1.17-5.06c0-.89.29-1.74.4-2.62a14.68,14.68,0,0,0-.44-4.57l-1.12-5.69a28.18,28.18,0,0,1-.74-5.72c0-4.65-3.65-23.14-.18-26.25s14,9.09,18.55,8.18a20.44,20.44,0,0,1,6.14-.42,29,29,0,0,1,9.31,3.15l10.1,4.76a31.78,31.78,0,0,0,6,2.54Z"/><path id="Tracé_1351" data-name="Tracé 1351" class="cls-4" d="M183.76,125.06a10.76,10.76,0,0,0-9-1.79,19.33,19.33,0,0,0-8.27,4.56,11.27,11.27,0,0,1-2.3,1.75c-1.38.68-3.1.72-4.24,1.76-1.5,1.39-1.21,3.79-.53,5.77s1.6,4,1,5.95a16.31,16.31,0,0,0-.62,1.78,5.28,5.28,0,0,0,.95,3.22,23.35,23.35,0,0,0,1.17-2.54,2.18,2.18,0,0,1,2.24-1.33c.88.25,1.11,1.21,1.32,2.06s.74,1.75,1.59,1.8a1.7,1.7,0,0,0,1.54-1.14c.91-2-.31-4.44.57-6.42.51-1.14,1.63-1.92,2.08-3.09.34-.91.22-1.93.47-2.88s1.19-1.85,2.11-1.47a3.22,3.22,0,0,1,.84.67,3.73,3.73,0,0,0,4.59.15,7.29,7.29,0,0,1,1.63-1.3,2.32,2.32,0,0,1,2.4.59,4.61,4.61,0,0,1,1.19,2.28,5.82,5.82,0,0,0,1.36,3.22,3.85,3.85,0,0,0,1.28.6,3,3,0,0,0,3.3-.53,2.49,2.49,0,0,0,.13-2.5A19,19,0,0,0,189.2,134c-1-1.67-.86-3.88-1.87-5.43A18.37,18.37,0,0,0,183.76,125.06Z"/><path id="Tracé_1352" data-name="Tracé 1352" class="cls-41" d="M187.24,168.07a2.16,2.16,0,0,1,.2,1.25,2,2,0,0,1-.51.84A14.62,14.62,0,0,1,181,174a1.91,1.91,0,0,0-.83.47,1.65,1.65,0,0,0,.06,1.91,4.74,4.74,0,0,1,.92,1.8c.15,1.25-1.18,2.2-2.32,2.67a6.8,6.8,0,0,1-5.18.35,7.68,7.68,0,0,1-2.82-2.52c-5.38-6.79-8.79-15-14.2-21.72a5.33,5.33,0,0,1-.93-1.46,1.65,1.65,0,0,1,.24-1.64c.53-.55,1.57-.59,1.83-1.31.13-.36,0-.78.09-1.14.2-.81,1.21-1,1.85-1.56s.7-1.13,1.21-1.4a2,2,0,0,1,1.77.26c2.54,1.32,4.21,3.68,6,5.87a87.88,87.88,0,0,0,8.81,9.39c-.36-.34.33-3.83.9-4.1,1-.5,2.81,1,3.55,1.52A15.2,15.2,0,0,1,187.24,168.07Z"/><path id="Tracé_1358" data-name="Tracé 1358" class="cls-14" d="M159.94,150.39a2.9,2.9,0,0,1,2.45.5,6.71,6.71,0,0,1,1.67,2.65,25.93,25.93,0,0,0,5.87,8.32"/><path id="Tracé_1359" data-name="Tracé 1359" class="cls-14" d="M157.59,153.52a3.4,3.4,0,0,1,3.27.95,9.78,9.78,0,0,1,1.47,2.69,16.36,16.36,0,0,0,4.42,5.29"/></g><path id="Tracé_1370-2" data-name="Tracé 1370-2" class="cls-8" d="M147,362.2,63.36,262.54l116.67-98,83.69,99.66Z"/><g id="Groupe_367" data-name="Groupe 367"><path id="Tracé_1360" data-name="Tracé 1360" class="cls-13" d="M189,240.69c3.12,2.3.23,8.56,3.24,11,1.65,1.34,4.58,1,5.79,2.71,1.39,2-.47,4.88-1.52,7.37-1.81,4.31-1,9.23,2.1,12.09,2.16-.11,4-2,5.25-3.9s2.17-4,3.91-5.51c2.31-2,6-2.86,6.88-5.61.71-2.11-.7-4-.92-6.11-.18-1.63.38-3.35.6-5a11.4,11.4,0,0,0-1.7-7.8,20.58,20.58,0,0,0-4.86-4.68l-8.39-6.5a2.79,2.79,0,0,0-1.6-.76,5.57,5.57,0,0,0-2.17.72c-3.1,1.32-6.23-.07-9.22-.85s-7.23-.33-8.65,2.67c-.79,1.7-.41,3.79-1.75,5.17s-3.07,1.19-4.69,1.23c-6.86.18-2.83,9.31,1.44,8.73C177.44,245,184.51,237.41,189,240.69Z"/><path id="Tracé_1361" data-name="Tracé 1361" class="cls-9" d="M159.63,258.18a31.18,31.18,0,0,0-4.43.08,7.9,7.9,0,0,0-4.82,3.5,22.33,22.33,0,0,0-2.43,5.58,31.45,31.45,0,0,0-1.8,7.71,11.62,11.62,0,0,0,1.83,7.57c1.66,2.29,4.3,3.63,6.88,4.8a9.08,9.08,0,0,0,3.34,1,9.17,9.17,0,0,0,2.88-.58l5.45-1.7a14.45,14.45,0,0,0,3.91-1.63,15,15,0,0,0,4.11-5.1l5.89-10.21a2.78,2.78,0,0,0,.2-3.36,42.87,42.87,0,0,0-4-6.77c-1.15-1.58-3.48-5.42-5.42-6-1.79-.55-3.36,1.63-4.76,2.56A13.35,13.35,0,0,1,159.63,258.18Z"/><path id="Tracé_1362" data-name="Tracé 1362" class="cls-14" d="M159.63,258.18a31.18,31.18,0,0,0-4.43.08,7.9,7.9,0,0,0-4.82,3.5,22.33,22.33,0,0,0-2.43,5.58,31.45,31.45,0,0,0-1.8,7.71,11.62,11.62,0,0,0,1.83,7.57c1.66,2.29,4.3,3.63,6.88,4.8a9.08,9.08,0,0,0,3.34,1,9.17,9.17,0,0,0,2.88-.58l5.45-1.7a14.45,14.45,0,0,0,3.91-1.63,15,15,0,0,0,4.11-5.1l5.89-10.21a2.78,2.78,0,0,0,.2-3.36,42.87,42.87,0,0,0-4-6.77c-1.15-1.58-3.48-5.42-5.42-6-1.79-.55-3.36,1.63-4.76,2.56A13.35,13.35,0,0,1,159.63,258.18Z"/><circle id="Ellipse_222" data-name="Ellipse 222" class="cls-9" cx="183.54" cy="255.3" r="17.56"/><path id="Tracé_1363" data-name="Tracé 1363" class="cls-13" d="M175,313.29c-3.69,3.15-8.45,4.73-13.09,6.11s-9.55,2.33-14.25,3.82l-1.14.38q-12.69,4.33-25,9.78l-.6.26L85.92,292c8.88-4.21,17.53-8.7,18.72-17.48,0-.27.08-.55.14-.82,1.09-6,4.87-11.47,5-17.59a11.35,11.35,0,0,1,.37-4.18,5.53,5.53,0,0,1,1.54-2,17.41,17.41,0,0,1,1.82-1.34c3.45-2.3,7.13-4.63,11.28-4.86a17,17,0,0,1,5.45.68,32,32,0,0,1,11.06,5.37c3.71,2.8,7.05,6.54,11.6,7.55a16.22,16.22,0,0,1,3.08.72l.25.13a2.65,2.65,0,0,1,1.54,2.28,3.71,3.71,0,0,1-.87,1.92l-4.35,6.29a7.5,7.5,0,0,0-1.56,3.31c-.28,2.57,2.1,5.06,1.34,7.51-.46,1.49,2.12,2.19,3.67,2.14a54,54,0,0,0,11.1-1.51,15.8,15.8,0,0,1,4.26-.68,5,5,0,0,1,2.7.93,3.25,3.25,0,0,1,.94,1.05,6.69,6.69,0,0,1,.25,4.1,74,74,0,0,0,.66,24.89,3.24,3.24,0,0,1,0,1.85,2.45,2.45,0,0,1-.62.84A1.6,1.6,0,0,1,175,313.29Z"/><path id="Tracé_1364" data-name="Tracé 1364" class="cls-13" d="M190.89,241.57c2.37,1.84.61,6.29,2.89,8.23,1.25,1.07,3.31,1,4.29,2.3,1.09,1.52-.08,3.55-.7,5.32a8.76,8.76,0,0,0,2.12,9c1.54,0,2.77-1.26,3.55-2.59s1.35-2.85,2.51-3.85c1.57-1.31,4.11-1.79,4.63-3.76.4-1.51-.7-3-1-4.53a17.21,17.21,0,0,1,.16-3.66,9.33,9.33,0,0,0-1.61-5.8,18.63,18.63,0,0,0-3.73-3.69l-6.34-5.21a2.37,2.37,0,0,0-1.19-.65,3.46,3.46,0,0,0-1.5.43c-2.15.81-4.46-.38-6.64-1.1s-5.19-.61-6.05,1.5c-.47,1.23-.1,2.76-1,3.73s-2.14.71-3.29.66c-4.89-.23-1.54,6.68,1.49,6.48C182.85,244.14,187.51,238.93,190.89,241.57Z"/><path id="Tracé_1365" data-name="Tracé 1365" class="cls-13" d="M138.56,354.64,129,343.29c4.81-3.72,7.94-9.58,12.49-13.8a46.9,46.9,0,0,0,5.09-4.78,14.07,14.07,0,0,0,1-1.49c.66-1,1.25-2.13,1.93-3.16,2.25-3.44,5.49-6.09,8.67-8.69q5.26-4.31,10.54-8.58c.91-.75,2-2.14,3.08-1.64,2.41,1.14,2.33,4.48,2.65,7.1.18,1.59.62,3.21.73,4.81a8.08,8.08,0,0,1-.24,2.77,11.13,11.13,0,0,1-1.77,3.2q-6.15,8.69-12.87,16.94a70,70,0,0,1-6.22,6.88C149.41,347.32,143.53,350.5,138.56,354.64Z"/><path id="Tracé_1366" data-name="Tracé 1366" class="cls-13" d="M84.75,279.58a11.5,11.5,0,0,0-4.5,2.18,7.32,7.32,0,0,0-1.37,1.81l-8.63-10.28a47.75,47.75,0,0,1,4.36-5.65A52.29,52.29,0,0,1,85.42,259,50.58,50.58,0,0,1,95,254c4.35-1.62,9-2.27,13.46-3.31,1-.23,2.16-.58,3.23-.79,2.32-.48,4.43-.35,5.23,2.78,2,7.76-5.36,18-12.09,21l-.05,0a35.24,35.24,0,0,1-5.39,1.73Q92,277.34,84.75,279.58Z"/></g><path id="Tracé_1367" data-name="Tracé 1367" class="cls-39" d="M206.73,195.39a1.14,1.14,0,0,1,.55,0,3,3,0,0,1,2.5,2.55,1.07,1.07,0,0,0,.1.39.93.93,0,0,0,.48.35,2,2,0,0,1,1.34,1.81,3.55,3.55,0,0,0-.15,1c.13.58.9.74,1.26,1.21.47.64.07,1.55-.42,2.17a1.94,1.94,0,0,1-1.52.91,1.45,1.45,0,0,1-1.09-1.12,4.31,4.31,0,0,1,0-1.64,1.8,1.8,0,0,1-2.31,0,2.52,2.52,0,0,1-.79-2.27.89.89,0,0,0,0-.62c-.14-.24-.47-.25-.75-.26-1.21,0-3.23-1.11-2.35-2.6a4.24,4.24,0,0,1,1.28-1.14c.39-.23.58,0,.94-.11S206.36,195.53,206.73,195.39Z"/><path id="Tracé_1368" data-name="Tracé 1368" class="cls-39" d="M127.1,234.67a28.34,28.34,0,0,1,4,2.46,6.82,6.82,0,0,1,2.56,3.85,2.22,2.22,0,0,1-.07,1.35,1.11,1.11,0,0,1-1.09.67,1.88,1.88,0,0,1-.72-.36,24.18,24.18,0,0,0-2.55-1.6c-.32-.18-.72-.36-1-.18a1,1,0,0,0-.34.38,2.83,2.83,0,0,0-.48,1.49A3.12,3.12,0,0,0,129,245a6.58,6.58,0,0,1,2.11,1.85,1,1,0,0,1,.16.73,1,1,0,0,1-.35.5,6.73,6.73,0,0,1-5.4,1.82c-1.25-.16-2.52-.7-3.85-.8a8.21,8.21,0,0,1-1.64-.16,3.17,3.17,0,0,1-1.86-1.64,8.49,8.49,0,0,1-.74-2.47A29.07,29.07,0,0,1,117,235a1.3,1.3,0,0,1,.2-.58,1.24,1.24,0,0,1,.53-.31c1.44-.55,3.68-1.95,5.27-1.78a4,4,0,0,1,1.57.79C125,233.38,127,234.29,127.1,234.67Z"/><path id="Tracé_1369" data-name="Tracé 1369" class="cls-4" d="M127.25,233.23c-.35-1.43.49-5.32-2.37-4.81-.39-1.52,1.5-3,.68-4.54-.27-.49-.83-.82-1-1.35-.59-1.5,2-3.08,1.09-4.45-.33-.53-1-.71-1.29-1.2-.67-1.23,1.57-2.5,1.26-3.9-.11-.46-.5-.83-.61-1.3a4,4,0,0,1,.39-1.73c.39-1.49-.5-3.41.65-4.44-.87.32-1.51-.91-1.31-1.8s.71-1.79.48-2.67a4,4,0,0,1-.27-1c0-.91,1.39-1.3,1.39-2.27a6.35,6.35,0,0,0-.22-1,1.86,1.86,0,0,1,1.07-1.64,5.64,5.64,0,0,0,1.7-1.16c.32-.41.66-1.06,1.21-.91.19,0,.33.23.49.34.68.46,1.61-.06,2.15-.69a9.24,9.24,0,0,0,1.74-6.88c-.19-2.43-.83-4.8-.93-7.23a17.07,17.07,0,0,1,.07-2.26,11,11,0,0,0,.43-2.34c-.25-1.37-2.78.28-3.79.69a17.16,17.16,0,0,0-2.88,1.35c-.94.68-1.85,1.4-2.72,2.17-3.72,3-8.73,4.55-11.28,8.55-.84,1.28-1.42,2.91-2.74,3.76a18.1,18.1,0,0,0-1.82,1c-1.41,1.17-1.13,3.36-1.56,5.13a10.44,10.44,0,0,0-.38,1.46,5.77,5.77,0,0,0,.19,1.7l1,4.06a153.39,153.39,0,0,0,5.71,20.17,17.69,17.69,0,0,1,1.68,6.66c0,.61-.12,1.25-.11,1.85a10.36,10.36,0,0,0,.34,2.15l.59,2.64a.81.81,0,0,0,.3.57.87.87,0,0,0,.74,0c3.55-1.28,6.68-4.31,10.44-4"/></g><path class="cls-42" d="M253.81,403.49c10.34-15.2,35.52-22.75,38.45-37.3s-6.84-28.39-13.83-29.89c-4.86,5.5-13.37,13.4-19.15,28.75S252.6,402,253.81,403.49Z"/><path class="cls-42" d="M236.19,407.53c-.61-17.11-5.47-22-10.64-37.16s-12.46-22.76-25.22-31.9S169,324.13,163.87,331s-6.39,26,18.53,47C205.19,395.89,219.17,392.13,236.19,407.53Z"/><path class="cls-42" d="M234.86,428.2c-6.08,8.87-25.85,21-37.51,32.06-9.38,8.49-24.58,5.27-33.71,3.46s-13.94-15.09-5.32-28.22,26.36-20,45.62-16.68S231.82,422.63,234.86,428.2Z"/><path class="cls-43" d="M158.09,457.64l-.56-.58c6.29-6,21.29-14.42,37.33-20.84,18-7.19,32.59-10.26,40.1-8.41h0l.05,0c3.22,1.79,6.4,5.86,8.95,11.46,2.27,5,3.68,10.54,3.68,14.49h-.81c0-8.12-5.72-21.59-12.17-25.22C218.41,424.64,170.87,445.37,158.09,457.64Z"/><path class="cls-43" d="M242.37,460.65l-.81-.06c0-.37,2.63-36.82-5.72-52.86-14.83-24.05-42.15-52.47-71.31-74.18l.49-.64c29.23,21.76,56.64,50.28,71.51,74.41l0,0C245,423.58,242.39,460.28,242.37,460.65Z"/><path class="cls-43" d="M253.9,463.82l-.48-3.14c-.06-.36-5.42-35.88,0-57.29,2.23-8.78,7.26-16.77,12.13-24.49,6.48-10.27,13.18-20.89,13.69-33.78l.81,0c-.53,13.11-7.28,23.82-13.81,34.18-4.84,7.67-9.84,15.6-12,24.26-4.46,17.58-1.57,44.83-.41,53.91,1-7.43,4.41-26.25,12.64-34.84l.58.56c-10,10.41-12.78,37.17-12.8,37.44Z"/><path class="cls-43" d="M186.33,351.2c-.74-.11-18.12-2.67-21.81-5.76l.52-.62c3.51,2.94,21.23,5.56,21.41,5.58Z"/><path class="cls-43" d="M180.64,361.38a45.2,45.2,0,0,1-9.58-.73l.2-.78c6.24,1.56,25.16,0,25.35,0l.07.81C196.16,360.71,188,361.38,180.64,361.38Z"/><path class="cls-43" d="M199.23,363.22c0-.17-2.36-17.13-4.44-22.5l.75-.29c2.12,5.46,4.39,22,4.49,22.68Z"/><path class="cls-43" d="M214.57,379.43c0-.19-1.9-19.1-3.69-25.67l.78-.21c1.81,6.64,3.7,25.61,3.72,25.81Z"/><path class="cls-43" d="M225.77,393.1c-5.86-2.49-22-2.14-22.18-2.14l0-.81c.67,0,16.5-.35,22.52,2.21Z"/><path class="cls-43" d="M262.67,383.68c-.07-.55-1.66-13.68-1.05-19.13l.8.09c-.59,5.36,1,18.81,1.05,18.95Z"/><path class="cls-43" d="M272.68,366.64a48,48,0,0,1-1.34-17.94l.8.1a47.41,47.41,0,0,0,1.31,17.61Z"/><path class="cls-43" d="M279,352.22l-.41-.7A26.6,26.6,0,0,0,286,344.9l.66.46A26.92,26.92,0,0,1,279,352.22Z"/><path class="cls-43" d="M271.52,370.47l-.21-.78c.06,0,5.81-1.67,14.71-12.31l.62.52C277.55,368.77,271.76,370.4,271.52,370.47Z"/><path class="cls-43" d="M259.14,390.93l-.15-.79c.11,0,11.41-2.3,17.93-9.41l.59.54C270.81,388.58,259.26,390.91,259.14,390.93Z"/><path class="cls-43" d="M195.64,457.46l-.78-.22c.23-.81,5.79-19.72,14.33-26.07l.48.65C201.35,438,195.69,457.27,195.64,457.46Z"/><path class="cls-43" d="M215.08,430.31c-1-.1-23.55-2.55-31.12-8.38l.49-.64c7.4,5.69,30.49,8.2,30.72,8.22Z"/><path class="cls-43" d="M182,440.86c-6.89,0-15.29-1.85-21.73-3.62l.22-.78c11.49,3.16,20.6,4.27,26.33,3.21l.15.79A27.73,27.73,0,0,1,182,440.86Z"/><path class="cls-43" d="M175.59,458.69l-.8-.15a65.2,65.2,0,0,1,5.55-15.76l.71.37A64.47,64.47,0,0,0,175.59,458.69Z"/><path class="cls-43" d="M167.69,458.67l-.8-.11c.52-3.65,2.09-8.65,4.32-11l.58.55C169.69,450.34,168.19,455.15,167.69,458.67Z"/><polygon class="cls-44" points="279.74 507.57 216.64 507.57 206.29 453.71 290.09 453.71 279.74 507.57"/><path class="cls-42" d="M269.78,415.38c-11.18,5.48-13.08,18.09-3.8,36.14s15.6,27.32,32.89,22.68,15.39-19.65,9.7-31.12S285.38,408.77,269.78,415.38Z"/><path class="cls-43" d="M300.48,467.71c-.94-1.78-2.16-4.29-3.58-7.2-6.82-14-19.51-40-29.65-43.37l.25-.76c10.46,3.43,22.77,28.69,30.13,43.78,1.41,2.9,2.63,5.4,3.57,7.18Z"/><path class="cls-43" d="M290.21,426a70.47,70.47,0,0,1-14.36-2l.2-.78c.13,0,13.46,3.28,19.25,1.3l.26.76A17.12,17.12,0,0,1,290.21,426Z"/><path class="cls-43" d="M269.44,449.34l-.78-.18a143.89,143.89,0,0,0,3.12-29.44h.81A144.56,144.56,0,0,1,269.44,449.34Z"/><path class="cls-43" d="M281,463.4l-.78-.18c0-.17,3.91-17,3.08-28.57l.8-.06C284.93,446.34,281,463.23,281,463.4Z"/><path class="cls-43" d="M308.36,450.82c-.53-.09-13.09-2.36-19.76-6.85l.45-.67c6.53,4.39,19.32,6.7,19.45,6.72Z"/><path class="cls-43" d="M309.81,456.05c-.11,0-10.31-.83-17.66-5.28l.42-.69c7.19,4.35,17.2,5.16,17.3,5.16Z"/><path class="cls-43" d="M294.18,471.2l-.74-.32c1.09-2.58,2.12-13.13,2.13-13.23l.81.07C296.33,458.16,295.32,468.5,294.18,471.2Z"/></g></g></g></svg>