<svg xmlns="http://www.w3.org/2000/svg" width="29.999" height="37.007" viewBox="0 0 29.999 37.007"><defs><style>.a{fill:#2880f9;}</style></defs><g transform="translate(-8.036 -8.654)"><g transform="translate(8.036 8.654)"><path class="a" d="M77.683,8.654h1.765A2.647,2.647,0,0,1,82.094,11.3v3.04a13,13,0,0,1,6.176,11.078v1.045a2.647,2.647,0,0,1,1.765,2.485v1.765a.882.882,0,0,1-.882.882H60.918a.882.882,0,0,1-.882-.882V28.948A2.647,2.647,0,0,1,61.8,26.463V25.418a13.183,13.183,0,0,1,3.882-9.362,11.9,11.9,0,0,1,2.294-1.73V11.3a2.647,2.647,0,0,1,2.647-2.647h7.059ZM61.8,28.948v.882h26.47v-.882a.882.882,0,0,0-.882-.882H62.683A.882.882,0,0,0,61.8,28.948Zm5.125-11.641a11.424,11.424,0,0,0-3.361,8.112V26.3h22.94v-.882a11.263,11.263,0,0,0-5.535-9.706H69.094A10.288,10.288,0,0,0,66.926,17.306Zm3.7-6.887a.882.882,0,0,0-.882.882v2.647H80.33V11.3a.882.882,0,0,0-.882-.882Zm3.529-1.765h0Z" transform="translate(-60.036 -8.654)"/></g><g transform="translate(21.829 33.605)"><g transform="translate(0 0)"><path class="a" d="M181.206,336a1.206,1.206,0,0,1,1.206,1.206v4.823a1.206,1.206,0,0,1-2.411,0v-4.823A1.206,1.206,0,0,1,181.206,336Z" transform="translate(-180 -336)"/></g></g><g transform="translate(17.006 38.427)"><g transform="translate(0 0)"><path class="a" d="M213.206,368a1.206,1.206,0,0,1,1.206,1.206v4.823a1.206,1.206,0,1,1-2.411,0v-4.823A1.206,1.206,0,0,1,213.206,368Z" transform="translate(-212 -368)"/></g></g><g transform="translate(26.651 38.427)"><g transform="translate(0 0)"><path class="a" d="M149.206,368a1.206,1.206,0,0,1,1.206,1.206v4.823a1.206,1.206,0,1,1-2.411,0v-4.823A1.206,1.206,0,0,1,149.206,368Z" transform="translate(-148 -368)"/></g></g><g transform="translate(31.474 33.605)"><g transform="translate(0 0)"><path class="a" d="M117.206,336a1.206,1.206,0,0,1,1.206,1.206v4.823a1.206,1.206,0,0,1-2.411,0v-4.823A1.206,1.206,0,0,1,117.206,336Z" transform="translate(-116 -336)"/></g></g><g transform="translate(12.183 33.605)"><g transform="translate(0 0)"><path class="a" d="M245.206,336a1.206,1.206,0,0,1,1.206,1.206v4.823a1.206,1.206,0,0,1-2.411,0v-4.823A1.206,1.206,0,0,1,245.206,336Z" transform="translate(-244 -336)"/></g></g></g></svg>