<svg xmlns="http://www.w3.org/2000/svg" width="101.555" height="107.347" viewBox="0 0 101.555 107.347"><defs><style>.a{fill:#0081f9;}.b{fill:#fff;}</style></defs><g transform="translate(0.001)"><path class="a" d="M48.6,0c13.529,0,6.2,24.051,14.927,35,12.78,15.222,31.554,4.648,31.554,18.67,0,29.643-20.81,53.673-46.481,53.673S-6.471,83.316-6.471,53.673,22.933,0,48.6,0Z" transform="translate(6.47 0)"/><g transform="translate(30.519 34.032)"><path class="b" d="M63.9,42.776l-5.588-5.588a2.1,2.1,0,1,0-2.964,2.964l2.011,2.011H54.037a11.823,11.823,0,0,0-7.684,2.829V31.155l2.011,2.011A2.1,2.1,0,0,0,51.327,30.2l-5.588-5.588a2.1,2.1,0,0,0-2.964,0L37.187,30.2a2.1,2.1,0,0,0,2.964,2.964l2.011-2.011V44.991a11.823,11.823,0,0,0-7.684-2.829H31.155l2.011-2.011A2.1,2.1,0,1,0,30.2,37.188l-5.588,5.588a2.1,2.1,0,0,0,0,2.964L30.2,51.328a2.1,2.1,0,0,0,2.964-2.964l-2.011-2.011h3.323a7.693,7.693,0,0,1,7.684,7.684V62.42a2.1,2.1,0,1,0,4.191,0V54.037a7.693,7.693,0,0,1,7.684-7.684H57.36l-2.011,2.011a2.1,2.1,0,0,0,2.964,2.964L63.9,45.74a2.1,2.1,0,0,0,0-2.964Z" transform="translate(-24 -24)"/></g></g></svg>