<svg xmlns="http://www.w3.org/2000/svg" width="117.962" height="127.615" viewBox="0 0 117.962 127.615"><defs><style>.a{fill:#0081f9;}.b{fill:#fff;stroke:#fff;}</style></defs><g transform="translate(0)"><g transform="translate(0 0)"><path class="a" d="M40.82,8.26c23.886,25.48,60.089-5.753,59.207,37.733S76.251,111.944,50.6,111.944.051,89.683.051,60.2c0-1.887-.115-12.005,0-14.209C1.564,16.924,18.463-15.59,40.82,8.26Z" transform="translate(0 17.372) rotate(-10)"/><g transform="translate(40.834 46.713)"><path class="b" d="M35.63,10.89v-.031c-.018-.386-.03-.793-.038-1.247a4.341,4.341,0,0,0-4.18-4.168A17.606,17.606,0,0,1,19.685.708L19.658.683a2.767,2.767,0,0,0-3.643,0l-.027.025A17.607,17.607,0,0,1,4.262,5.444,4.341,4.341,0,0,0,.082,9.612c-.007.451-.019.859-.038,1.247l0,.073c-.094,4.706-.21,10.563,1.835,15.879a20.14,20.14,0,0,0,5.061,7.554,26.731,26.731,0,0,0,9.9,5.613,3.17,3.17,0,0,0,.406.106,3.127,3.127,0,0,0,1.179,0,3.171,3.171,0,0,0,.407-.107,26.745,26.745,0,0,0,9.893-5.616,20.169,20.169,0,0,0,5.061-7.555C35.84,21.473,35.724,15.605,35.63,10.89Zm-4.149,15.1c-2.157,5.6-6.559,9.451-13.459,11.763a.655.655,0,0,1-.078.02.576.576,0,0,1-.216,0,.644.644,0,0,1-.077-.02C10.744,35.446,6.338,31.6,4.183,26,2.3,21.1,2.405,15.72,2.5,10.977V10.95c.019-.408.032-.835.039-1.3A1.93,1.93,0,0,1,4.4,7.8a22.364,22.364,0,0,0,7.32-1.543,19.224,19.224,0,0,0,5.965-3.84.234.234,0,0,1,.3,0,19.231,19.231,0,0,0,5.965,3.84A22.364,22.364,0,0,0,31.274,7.8a1.929,1.929,0,0,1,1.859,1.851c.007.472.02.9.039,1.3C33.267,15.7,33.371,21.08,31.481,25.99Zm0,0" transform="translate(0 0.001)"/><path class="b" d="M164.2,212.5l-6.177,6.907-1.677-1.875a1.452,1.452,0,0,0-2.215,0,1.9,1.9,0,0,0,0,2.476l2.784,3.113a1.452,1.452,0,0,0,2.214,0l7.285-8.146a1.9,1.9,0,0,0,0-2.476A1.451,1.451,0,0,0,164.2,212.5Zm0,0" transform="translate(-142.438 -197.744)"/></g></g></g></svg>