<svg xmlns="http://www.w3.org/2000/svg" width="42" height="54.7" viewBox="0 0 23.072 29.358"><defs><style>.a{fill:#fff;stroke:#fff;}</style></defs><g transform="translate(0.5 0.508)"><path class="a" d="M21.846,5.739,11.193.062a.529.529,0,0,0-.5,0L.33,5.742a.53.53,0,0,0-.275.465v7.415a15.354,15.354,0,0,0,9.2,14.052L10.7,28.3a.53.53,0,0,0,.422,0l1.62-.7a15.323,15.323,0,0,0,9.39-14.127V6.207A.531.531,0,0,0,21.846,5.739Zm-.78,7.736a14.265,14.265,0,0,1-8.744,13.151l0,0-1.411.609L9.682,26.7a14.292,14.292,0,0,1-8.566-13.08v-7.1l9.832-5.388L21.066,6.525Zm0,0" transform="translate(-0.055 0)"/><path class="a" d="M80.776,148.253a.53.53,0,0,0-.807.689l2.8,3.281a.53.53,0,0,0,.738.067l6.525-5.308a.53.53,0,1,0-.669-.823l-6.123,4.981Zm0,0" transform="translate(-73.796 -134.974)"/></g></svg>