<svg xmlns="http://www.w3.org/2000/svg" width="40.405" height="17.193" viewBox="0 0 40.405 17.193"><path d="M7.639,2.216A3.093,3.093,0,0,0,8.344,0,3.192,3.192,0,0,0,6.3,1.041a2.919,2.919,0,0,0-.739,2.116,2.412,2.412,0,0,0,2.082-.94m.705,1.142C7.2,3.291,6.228,4,5.691,4s-1.377-.6-2.283-.6A3.369,3.369,0,0,0,.553,5.138c-1.209,2.116-.336,5.238.873,6.951.571.839,1.276,1.78,2.183,1.746.873-.034,1.209-.571,2.25-.571s1.343.571,2.283.537,1.545-.839,2.116-1.713a6.763,6.763,0,0,0,.94-1.948,3.042,3.042,0,0,1-.369-5.406A3.126,3.126,0,0,0,8.344,3.358" transform="translate(0.026)"/><g transform="translate(13.474 0.974)"><path d="M44.868,2.9a3.993,3.993,0,0,1,4.2,4.164,4.037,4.037,0,0,1-4.265,4.2h-2.72v4.332H40.1V2.9ZM42.081,9.616h2.25A2.38,2.38,0,0,0,47.017,7.1a2.365,2.365,0,0,0-2.686-2.518H42.048V9.616Zm7.488,3.392c0-1.612,1.242-2.619,3.459-2.754l2.552-.134V9.414c0-1.041-.705-1.645-1.847-1.645a1.771,1.771,0,0,0-1.948,1.343H49.972c.1-1.679,1.545-2.921,3.828-2.921,2.25,0,3.694,1.175,3.694,3.056v6.38H55.681V14.116h-.034a3.29,3.29,0,0,1-2.921,1.679A2.845,2.845,0,0,1,49.569,13.008Zm6.011-.839v-.739l-2.283.134c-1.142.067-1.78.571-1.78,1.377s.672,1.343,1.679,1.343A2.22,2.22,0,0,0,55.58,12.168Zm3.593,6.884V17.507a3.65,3.65,0,0,0,.6.034,1.553,1.553,0,0,0,1.645-1.31c0-.034.168-.571.168-.571L58.233,6.392h2.048l2.351,7.555h.034l2.351-7.555h2.015l-3.459,9.772c-.806,2.25-1.713,2.955-3.627,2.955C59.811,19.085,59.341,19.085,59.173,19.052Z" transform="translate(-40.1 -2.9)"/></g></svg>