<svg xmlns="http://www.w3.org/2000/svg" width="38.107" height="26.825" viewBox="0 0 38.107 26.825"><defs><style>.a{fill:#2880fb;stroke:#2880f9;stroke-width:0.5px;}</style></defs><g transform="translate(0.25 0.25)"><g transform="translate(0 19.878)"><path class="a" d="M122,235.015H86.273a1.084,1.084,0,0,0,0,2.149H122a1.084,1.084,0,0,0,0-2.149Z" transform="translate(-85.333 -235.015)"/></g><g transform="translate(2.148 0)"><g transform="translate(0.001 4.298)"><path class="a" d="M123.321,43.015c-9.182,0-16.654,7.159-16.654,15.956v.886a.907.907,0,0,0,.925.886h31.458a.907.907,0,0,0,.925-.886v-.886C139.976,50.174,132.5,43.015,123.321,43.015Zm-14.8,15.956c0-7.822,6.641-14.183,14.8-14.183s14.8,6.363,14.8,14.183Z" transform="translate(-106.667 -43.015)"/></g><g transform="translate(4.403 8.342)"><g transform="translate(0)"><path class="a" d="M163.432,85.682a10.6,10.6,0,0,0-10.352,8.182.762.762,0,0,0,.564.915.709.709,0,0,0,.176.021.759.759,0,0,0,.739-.585,9.088,9.088,0,0,1,8.874-7.013.76.76,0,1,0,0-1.52Z" transform="translate(-153.059 -85.682)"/></g></g><g transform="translate(12.357)"><g transform="translate(0)"><path class="a" d="M260.3.348a4.3,4.3,0,0,0-4.3,4.3V5.72a1.075,1.075,0,0,0,2.149,0V4.646a2.149,2.149,0,1,1,4.3,0V5.72a1.075,1.075,0,0,0,2.149,0V4.646A4.3,4.3,0,0,0,260.3.348Z" transform="translate(-256 -0.348)"/></g></g><g transform="translate(0 19.88)"><path class="a" d="M139.7,235.345a.838.838,0,0,0-1.308,0l-3.431,3.984h-23.29l-3.431-3.984a.838.838,0,0,0-1.308,0,1.2,1.2,0,0,0,0,1.519l3.7,4.3a.871.871,0,0,0,.655.314h24.057a.871.871,0,0,0,.655-.314l3.7-4.3A1.2,1.2,0,0,0,139.7,235.345Z" transform="translate(-106.661 -235.031)"/></g></g></g></svg>