<svg xmlns="http://www.w3.org/2000/svg" width="33" height="33" viewBox="0 0 33 33"><defs><style>.a{fill:#2880fb;}</style></defs><path class="a" d="M31.711,10.7H17.789V4.834a2.256,2.256,0,0,1,4.512,0V6.188a1.289,1.289,0,0,0,2.578,0V4.834a4.834,4.834,0,0,0-9.668,0V10.7H10.7V8.766a1.289,1.289,0,0,0-2.578,0V10.7H1.289A1.289,1.289,0,0,0,0,11.988a16.494,16.494,0,0,0,15.211,16.45v3.273a1.289,1.289,0,0,0,2.578,0V28.438A16.494,16.494,0,0,0,33,11.988,1.289,1.289,0,0,0,31.711,10.7ZM16.5,25.91A13.917,13.917,0,0,1,2.637,13.277H30.363A13.917,13.917,0,0,1,16.5,25.91Z"/></svg>