<svg xmlns="http://www.w3.org/2000/svg" width="23.809" height="33.071" viewBox="0 0 23.809 33.071"><defs><style>.a{fill:#2880fb;}</style></defs><g transform="translate(0 0)"><path class="a" d="M56.191,3.646c-.764-1.123-1.438-2.156-2.066-3.1a1.367,1.367,0,0,0-.359-.359,1.17,1.17,0,0,0-1.617.359c-.584.943-1.258,1.932-2.066,3.1-3.549,5.211-8.85,13.073-8.85,17.565a11.851,11.851,0,0,0,3.5,8.4,12,12,0,0,0,8.4,3.459,11.964,11.964,0,0,0,11.9-11.9C65.041,16.674,59.74,8.857,56.191,3.646Zm3.729,24.3a9.5,9.5,0,0,1-6.783,2.785,9.69,9.69,0,0,1-6.783-2.785,9.5,9.5,0,0,1-2.785-6.783c0-3.774,5.076-11.276,8.446-16.262.4-.584.764-1.168,1.123-1.662.359.494.719,1.078,1.123,1.662,3.369,5.031,8.446,12.489,8.446,16.262A9.69,9.69,0,0,1,59.92,27.95Z" transform="translate(-41.232 0)"/></g><g transform="translate(13.777 19.338)"><path class="a" d="M172.256,181.243a1.244,1.244,0,0,0-1.31,1.164,6.245,6.245,0,0,1-.922,2.959,5.9,5.9,0,0,1-2.232,2.135,1.282,1.282,0,0,0,1.261,2.232,8.406,8.406,0,0,0,3.1-3.008,8.256,8.256,0,0,0,1.261-4.172A1.244,1.244,0,0,0,172.256,181.243Z" transform="translate(-167.152 -181.24)"/></g></svg>