<svg xmlns="http://www.w3.org/2000/svg" width="45.321" height="29.975" viewBox="0 0 45.321 29.975"><defs><style>.a{opacity:0;}.b{fill:#fff;}.c{fill:#ff5f00;}.d{fill:#eb001b;}.e{fill:#f79e1b;}</style></defs><g class="a"><rect class="b" width="45.321" height="29.975"/></g><rect class="c" width="11.955" height="19.527" transform="translate(16.684 5.222)"/><path class="d" d="M22.793,19.871a12.4,12.4,0,0,1,4.743-9.762,12.418,12.418,0,1,0,0,19.527,12.4,12.4,0,0,1-4.743-9.765Z" transform="translate(-4.877 -4.883)"/><path class="e" d="M120.048,64.843v-.4h.172V64.36h-.41v.083h.162v.4Zm.8,0V64.36h-.124l-.145.345-.145-.345h-.124v.483h.09v-.366l.135.314h.093l.135-.314v.366Z" transform="translate(-78.484 -42.16)"/><path class="e" d="M85.782,19.861A12.418,12.418,0,0,1,65.69,29.623a12.418,12.418,0,0,0,0-19.527,12.418,12.418,0,0,1,20.092,9.762Z" transform="translate(-43.031 -4.874)"/></svg>