<svg xmlns="http://www.w3.org/2000/svg" width="33.652" height="33.652" viewBox="0 0 33.652 33.652"><defs><style>.a{fill:#2880fb;stroke:#2880f9;stroke-width:0.5px;}</style></defs><g transform="translate(0.25 0.25)"><path class="a" d="M108.38,214.19a.857.857,0,0,0-1.714,0c0,2.251,2.483,5.341,2.766,5.687a.858.858,0,1,0,1.326-1.088C109.838,217.669,108.38,215.431,108.38,214.19Z" transform="translate(-99.265 -198.725)"/><path class="a" d="M312.765,213.333a.857.857,0,0,0-.857.857c0,1.236-1.458,3.477-2.377,4.6a.857.857,0,0,0,1.326,1.087c.283-.346,2.766-3.436,2.766-5.687A.857.857,0,0,0,312.765,213.333Z" transform="translate(-287.872 -198.725)"/><path class="a" d="M224.857,213.333a.857.857,0,0,0-.857.857v5.143a.857.857,0,1,0,1.714,0V214.19A.857.857,0,0,0,224.857,213.333Z" transform="translate(-208.281 -198.725)"/><path class="a" d="M24.864,3.014a7.891,7.891,0,0,0-1.429.152,9.012,9.012,0,0,0-13.717,0,7.9,7.9,0,0,0-1.429-.152,8.285,8.285,0,0,0-3.75,15.674L4.524,30.074A3.075,3.075,0,0,0,7.6,33.152H25.557a3.077,3.077,0,0,0,3.074-3.074v-11.4A8.283,8.283,0,0,0,24.864,3.014Zm2.26,27.064a1.569,1.569,0,0,1-1.567,1.567H7.6A1.568,1.568,0,0,1,6.03,30.075l0-2.951h21.09ZM27.59,17.5a.676.676,0,0,0-.113.058.754.754,0,0,0-.346.529.728.728,0,0,0-.008.127v7.4H6.036l.01-7.39a.776.776,0,0,0-.007-.124.755.755,0,0,0-.119-.312.747.747,0,0,0-.224-.219.789.789,0,0,0-.118-.061A6.778,6.778,0,0,1,8.288,4.521c.146,0,.3.018.452.03A8.976,8.976,0,0,0,7.534,9.041a.753.753,0,1,0,1.507,0,7.534,7.534,0,1,1,15.069,0,.753.753,0,1,0,1.507,0A8.976,8.976,0,0,0,24.412,4.55c.151-.012.306-.03.452-.03A6.777,6.777,0,0,1,27.59,17.5Z"/></g></svg>