<svg xmlns="http://www.w3.org/2000/svg" width="43.682" height="31" viewBox="0 0 43.682 31"><defs><style>.a{fill:#8e8f8d;}</style></defs><path class="a" d="M50.977,103.25h-.7V97.614A2.822,2.822,0,0,0,47.455,94.8V82.818A2.822,2.822,0,0,0,44.636,80H15.045a2.822,2.822,0,0,0-2.818,2.818V94.8a2.822,2.822,0,0,0-2.818,2.818v5.636H8.7a.7.7,0,0,0-.7.7v2.818a.7.7,0,0,0,.7.7h.7V110.3a.7.7,0,0,0,.7.7h2.114a.7.7,0,0,0,.69-.566l.592-2.956H46.172l.592,2.956a.7.7,0,0,0,.69.566h2.114a.7.7,0,0,0,.7-.7v-2.818h.7a.7.7,0,0,0,.7-.7v-2.818A.7.7,0,0,0,50.977,103.25ZM13.636,82.818a1.411,1.411,0,0,1,1.409-1.409H44.636a1.411,1.411,0,0,1,1.409,1.409V94.8H44.636V91.977a2.822,2.822,0,0,0-2.818-2.818H33.364a2.822,2.822,0,0,0-2.818,2.818V94.8H29.136V91.977a2.822,2.822,0,0,0-2.818-2.818H17.864a2.822,2.822,0,0,0-2.818,2.818V94.8H13.636Zm29.591,9.159V94.8H31.955V91.977a1.411,1.411,0,0,1,1.409-1.409h8.455A1.411,1.411,0,0,1,43.227,91.977Zm-15.5,0V94.8H16.455V91.977a1.411,1.411,0,0,1,1.409-1.409h8.455A1.411,1.411,0,0,1,27.727,91.977ZM10.818,97.614A1.411,1.411,0,0,1,12.227,96.2H47.455a1.411,1.411,0,0,1,1.409,1.409v5.636H10.818Zm.831,11.977h-.831v-2.114h1.254Zm37.214,0h-.831l-.423-2.114h1.254Zm1.409-3.523H9.409v-1.409H50.273Z" transform="translate(-8 -80)"/></svg>