<svg xmlns="http://www.w3.org/2000/svg" width="37.999" height="20.86" viewBox="0 0 37.999 20.86"><defs><style>.a{fill:#2880f9;}</style></defs><g transform="translate(0 -8.111)"><path class="a" d="M30.288,26.359H7.711c-2.584,0-4.8-2.043-5.393-4.969L.052,10.362A5.44,5.44,0,0,1,0,9.7,3.469,3.469,0,0,1,3.167,6H19.791a.867.867,0,0,1,.792.925.867.867,0,0,1-.792.925H3.167A1.735,1.735,0,0,0,1.583,9.7c0,.111.014.222.025.333l2.25,10.927a4.115,4.115,0,0,0,3.852,3.546H30.288a4.118,4.118,0,0,0,3.854-3.544L36.408,9.931c-.006-.007.008-.118.008-.229a1.735,1.735,0,0,0-1.583-1.851H30.874a.867.867,0,0,1-.792-.925A.867.867,0,0,1,30.874,6h3.958A3.469,3.469,0,0,1,38,9.7a5.483,5.483,0,0,1-.036.557l-2.28,11.134c-.594,2.922-2.81,4.966-5.394,4.966Z" transform="translate(0 2.613)"/><path class="a" d="M20.708,16.025h-4.75A3.733,3.733,0,0,1,12,12.579V7.067A2.24,2.24,0,0,1,14.375,5h7.916a2.24,2.24,0,0,1,2.375,2.067v5.512A3.733,3.733,0,0,1,20.708,16.025ZM14.375,6.378a.747.747,0,0,0-.792.689v5.512a2.24,2.24,0,0,0,2.375,2.067h4.75a2.24,2.24,0,0,0,2.375-2.067V7.067a.747.747,0,0,0-.792-.689Z" transform="translate(7 3.111)"/><path class="a" d="M18.545,10.861H1.252A.856.856,0,0,1,.5,9.931.856.856,0,0,1,1.252,9H18.545a.856.856,0,0,1,.752.931A.856.856,0,0,1,18.545,10.861Z" transform="translate(0.431 3.27)"/><path class="a" d="M25.333,10.861H19.792A.87.87,0,0,1,19,9.931.87.87,0,0,1,19.792,9h5.542a.87.87,0,0,1,.792.931A.87.87,0,0,1,25.333,10.861Z" transform="translate(11.083 3.271)"/></g></svg>