<svg xmlns="http://www.w3.org/2000/svg" width="59.383" height="71.11" viewBox="0 0 59.383 71.11"><defs><style>.a{fill:#fff;}</style></defs><path class="a" d="M59.535,33.657a12.772,12.772,0,0,0-4.451-9.684,25.274,25.274,0,0,0-50.481,0,12.792,12.792,0,0,0,8.356,22.49,1.624,1.624,0,0,0,1.624-1.624V22.475a1.624,1.624,0,0,0-1.624-1.624,12.736,12.736,0,0,0-4.868.967,22.026,22.026,0,0,1,43.505,0,12.732,12.732,0,0,0-4.867-.967,1.624,1.624,0,0,0-1.624,1.624V44.84a1.624,1.624,0,0,0,1.624,1.624,12.728,12.728,0,0,0,4.875-.969,22.091,22.091,0,0,1-16.31,17.874,6.147,6.147,0,0,0-5.458-3.092c-3.347,0-6.069,2.43-6.069,5.417s2.722,5.417,6.069,5.417A5.9,5.9,0,0,0,35.8,66.581,25.329,25.329,0,0,0,55.09,43.337,12.775,12.775,0,0,0,59.535,33.657Zm-48.2,9.421a9.56,9.56,0,0,1,0-18.841Zm18.5,24.784c-1.555,0-2.821-.973-2.821-2.168s1.266-2.168,2.821-2.168,2.82.973,2.82,2.168S31.391,67.862,29.836,67.862ZM48.353,24.237a9.56,9.56,0,0,1,0,18.841Zm0,0" transform="translate(-0.152)"/></svg>