<svg xmlns="http://www.w3.org/2000/svg" width="98.029" height="107.122" viewBox="0 0 98.029 107.122"><defs><style>.a{fill:#0081f9;}.b{fill:none;stroke:#fff;stroke-linecap:round;stroke-linejoin:round;stroke-width:4px;}</style></defs><g transform="translate(0 0)"><path class="a" d="M49.015-3.159C74.762-34,98.029,18.719,98.029,45.706A49.015,49.015,0,0,1,0,45.706C0,18.719,23.267,27.685,49.015-3.159Z" transform="translate(0 12.551)"/><g transform="translate(34.378 37.298)"><g transform="translate(-302.495)"><g transform="translate(302.495)"><path class="b" d="M7.753,16.5H30.521a3.253,3.253,0,0,1,3.253,3.253V31.137a3.253,3.253,0,0,1-3.253,3.253H7.753A3.253,3.253,0,0,1,4.5,31.137V19.753A3.253,3.253,0,0,1,7.753,16.5Z" transform="translate(-4.5 -1.863)"/><path class="b" d="M10.5,17.637V11.132a8.132,8.132,0,1,1,16.263,0v6.505" transform="translate(-3.995 -3)"/></g></g></g></g></svg>