<svg xmlns="http://www.w3.org/2000/svg" width="28.458" height="28.177" viewBox="0 0 28.458 28.177"><defs><style>.a{fill:#2880fb;}</style></defs><g transform="translate(0 9.367)"><path class="a" d="M11.264,189.766a5.166,5.166,0,0,1-4.735-3.057,6.87,6.87,0,0,0-3.471-3.471,5.188,5.188,0,0,1,1.354-9.866,2.867,2.867,0,0,0,1.643-.824l.034-.034a5.69,5.69,0,0,1,4.881-1.5,9.02,9.02,0,0,1,5.14,2.639,9.019,9.019,0,0,1,2.639,5.14,5.69,5.69,0,0,1-1.5,4.881l-.031.03a2.871,2.871,0,0,0-.825,1.645,5.166,5.166,0,0,1-5.131,4.414Zm-1.2-17.146a3.871,3.871,0,0,0-2.8,1.074l-.022.023a4.523,4.523,0,0,1-2.589,1.306,3.488,3.488,0,0,0-1.991,1.015,3.521,3.521,0,0,0,1.073,5.678,8.536,8.536,0,0,1,4.313,4.313,3.52,3.52,0,0,0,6.693-.92,4.526,4.526,0,0,1,1.305-2.59l.021-.021a4.063,4.063,0,0,0,1.023-3.488,7.347,7.347,0,0,0-2.164-4.174,7.114,7.114,0,0,0-4.863-2.215Z" transform="translate(-0.001 -170.956)"/></g><g transform="translate(13.375)"><path class="a" d="M243.961,10.979A3.416,3.416,0,0,1,241.5,10a3.507,3.507,0,0,1-.951-2.954,5.113,5.113,0,0,1,1.5-2.991,5.113,5.113,0,0,1,2.991-1.5,3.508,3.508,0,0,1,2.954.951,3.508,3.508,0,0,1,.951,2.954,5.113,5.113,0,0,1-1.5,2.991,5.113,5.113,0,0,1-2.991,1.5A4.269,4.269,0,0,1,243.961,10.979Zm1.56-6.784a2.541,2.541,0,0,0-.292.017,3.442,3.442,0,0,0-2,1.023,3.442,3.442,0,0,0-1.023,2,1.877,1.877,0,0,0,.473,1.583,1.877,1.877,0,0,0,1.583.473,3.442,3.442,0,0,0,2-1.023,3.442,3.442,0,0,0,1.023-2,1.877,1.877,0,0,0-.473-1.583A1.785,1.785,0,0,0,245.521,4.195Z" transform="translate(-240.518 -2.526)"/></g><g transform="translate(2.177 0.424)"><path class="a" d="M42.582,18.613a3.416,3.416,0,0,1-2.464-.979,3.507,3.507,0,0,1-.951-2.954,5.314,5.314,0,0,1,4.491-4.491,3.4,3.4,0,0,1,3.9,3.9,5.314,5.314,0,0,1-4.491,4.491A4.265,4.265,0,0,1,42.582,18.613Zm1.56-6.784a2.542,2.542,0,0,0-.292.017,3.651,3.651,0,0,0-3.025,3.025,1.739,1.739,0,0,0,2.056,2.056A3.651,3.651,0,0,0,45.906,13.9a1.877,1.877,0,0,0-.473-1.583A1.785,1.785,0,0,0,44.142,11.828Z" transform="translate(-39.139 -10.159)"/></g><g transform="translate(20.004 6.629)"><path class="a" d="M363.165,130.184a3.416,3.416,0,0,1-2.464-.979,3.507,3.507,0,0,1-.951-2.954,5.314,5.314,0,0,1,4.491-4.491,3.4,3.4,0,0,1,3.9,3.9,5.314,5.314,0,0,1-4.491,4.491A4.294,4.294,0,0,1,363.165,130.184Zm1.56-6.784a2.536,2.536,0,0,0-.292.017,3.651,3.651,0,0,0-3.025,3.025,1.739,1.739,0,0,0,2.056,2.056,3.651,3.651,0,0,0,3.025-3.025,1.877,1.877,0,0,0-.473-1.583A1.784,1.784,0,0,0,364.725,123.4Z" transform="translate(-359.722 -121.731)"/></g><g transform="translate(19.444 17.692)"><path class="a" d="M353.081,329.111a3.416,3.416,0,0,1-2.464-.979,3.507,3.507,0,0,1-.951-2.954,5.314,5.314,0,0,1,4.491-4.491,3.4,3.4,0,0,1,3.9,3.9,5.314,5.314,0,0,1-4.491,4.491A4.28,4.28,0,0,1,353.081,329.111Zm1.56-6.784a2.536,2.536,0,0,0-.292.017,3.651,3.651,0,0,0-3.025,3.025,1.739,1.739,0,0,0,2.056,2.056,3.651,3.651,0,0,0,3.025-3.025,1.877,1.877,0,0,0-.473-1.583A1.784,1.784,0,0,0,354.641,322.327Z" transform="translate(-349.638 -320.658)"/></g></svg>