<svg xmlns="http://www.w3.org/2000/svg" width="43.072" height="43.072" viewBox="0 0 43.072 43.072"><defs><style>.a{fill:#2880f9;}</style></defs><g transform="translate(-16 -16)"><path class="a" d="M58.354,16H16.718a.718.718,0,0,0-.718.718V58.354a.718.718,0,0,0,.718.718H58.354a.718.718,0,0,0,.718-.718V16.718A.718.718,0,0,0,58.354,16Zm-.718,41.636h-40.2V26.05h40.2Zm0-33.022h-40.2V17.436h40.2Z"/><path class="a" d="M184.718,52.307H196.2a.718.718,0,0,0,.718-.718V48.718A.718.718,0,0,0,196.2,48H184.718a.718.718,0,0,0-.718.718v2.871A.718.718,0,0,0,184.718,52.307Zm.718-2.871h10.05v1.436h-10.05Z" transform="translate(-152.925 -29.129)"/><path class="a" d="M58.154,52.307A2.154,2.154,0,1,0,56,50.154,2.154,2.154,0,0,0,58.154,52.307Zm0-2.871a.718.718,0,1,1-.718.718A.718.718,0,0,1,58.154,49.436Z" transform="translate(-36.411 -29.129)"/><path class="a" d="M122.154,52.307A2.154,2.154,0,1,0,120,50.154,2.154,2.154,0,0,0,122.154,52.307Zm0-2.871a.718.718,0,1,1-.718.718A.718.718,0,0,1,122.154,49.436Z" transform="translate(-94.668 -29.129)"/><path class="a" d="M346.154,52.307A2.154,2.154,0,1,0,344,50.154,2.154,2.154,0,0,0,346.154,52.307Zm0-2.871a.718.718,0,1,1-.718.718A.718.718,0,0,1,346.154,49.436Z" transform="translate(-298.567 -29.129)"/><path class="a" d="M410.154,52.307A2.154,2.154,0,1,0,408,50.154,2.154,2.154,0,0,0,410.154,52.307Zm0-2.871a.718.718,0,1,1-.718.718A.718.718,0,0,1,410.154,49.436Z" transform="translate(-356.824 -29.129)"/><path class="a" d="M110.868,208H80.718a.718.718,0,0,0-.718.718v18.665a.718.718,0,0,0,.718.718h30.15a.718.718,0,0,0,.718-.718V208.718A.718.718,0,0,0,110.868,208Zm-.718,18.665H81.436V209.436H110.15Z" transform="translate(-58.257 -174.771)"/><path class="a" d="M112.718,385.436h24.407a.718.718,0,1,0,0-1.436H112.718a.718.718,0,1,0,0,1.436Z" transform="translate(-87.386 -334.978)"/><path class="a" d="M56.718,145.436H91.175a.718.718,0,1,0,0-1.436H56.718a.718.718,0,0,0,0,1.436Z" transform="translate(-36.411 -116.514)"/></g></svg>