<svg xmlns="http://www.w3.org/2000/svg" width="44.517" height="47" viewBox="0 0 44.517 47"><defs><style>.a{fill:#8e8f8d;}</style></defs><g transform="translate(-13.526)"><path class="a" d="M51.287,32.143V28.226a.69.69,0,1,0-1.38,0v3.917A7.44,7.44,0,0,0,46.288,45.62H39.644A5.846,5.846,0,0,1,33.9,38.7l1.3-6.952h7.27A2.532,2.532,0,0,0,45,29.217V20.091a12.576,12.576,0,0,1,2.9-.337,2.014,2.014,0,0,1,2.012,2.012v3.7a.69.69,0,0,0,1.38,0v-3.7a3.4,3.4,0,0,0-2.019-3.1V15.006a.69.69,0,0,0-.69-.69h-.01V5.045a5.045,5.045,0,0,0-9.652-2.058l-3.922,8.78a.69.69,0,0,0,1.26.563l3.922-8.78a3.666,3.666,0,0,1,7.013,1.495v9.271h-1.38V5.045a2.286,2.286,0,0,0-4.373-.932L25.681,39.381H24.17L35.128,14.85a.69.69,0,0,0-1.26-.563L22.66,39.381h-.372a1.611,1.611,0,0,0-1.61,1.61v1.442H18.337a4.948,4.948,0,0,0-4.789,3.7.69.69,0,0,0,.668.863H25.064a.69.69,0,0,0,0-1.38H15.233a3.57,3.57,0,0,1,3.1-1.808h11.7a2.167,2.167,0,0,1,2.1,1.623l.048.186H27.823a.69.69,0,1,0,0,1.38H33.07a.69.69,0,0,0,.668-.863l-.272-1.049a3.547,3.547,0,0,0-3.433-2.655h-1.52V40.991a1.611,1.611,0,0,0-1.332-1.584L42.694,4.676a.906.906,0,0,1,1.734.37v9.271h-.118a.69.69,0,0,0-.69.69v4.038a13.977,13.977,0,0,0-9.452,10.724l-1.626,8.676A7.225,7.225,0,0,0,39.644,47H50.6a7.444,7.444,0,0,0,.69-14.857ZM22.058,42.432V40.991a.23.23,0,0,1,.23-.23H26.9a.23.23,0,0,1,.23.23v1.442ZM45,15.7h2.888v2.678a13.968,13.968,0,0,0-2.888.3ZM43.621,20.5v8.715a1.151,1.151,0,0,1-1.15,1.15H35.46l.065-.345a12.6,12.6,0,0,1,8.1-9.52ZM50.6,45.62a6.065,6.065,0,1,1,6.065-6.065A6.072,6.072,0,0,1,50.6,45.62Z"/><path class="a" d="M386.715,397.143a3.1,3.1,0,1,0,3.1,3.1A3.1,3.1,0,0,0,386.715,397.143Zm0,4.817a1.719,1.719,0,1,1,1.719-1.719A1.721,1.721,0,0,1,386.715,401.96Z" transform="translate(-336.118 -360.687)"/></g></svg>