<svg xmlns="http://www.w3.org/2000/svg" width="50.267" height="54.6" viewBox="0 0 50.267 54.6"><defs><style>.a{fill:#fff;}</style></defs><path class="a" d="M69.044,12.872a1.431,1.431,0,0,0-.138-.611,1.335,1.335,0,0,0-.933-.738L44.5.138a1.393,1.393,0,0,0-1.21,0l-23.7,11.489a1.388,1.388,0,0,0-.784,1.2v28.89a1.373,1.373,0,0,0,.784,1.245l23.7,11.489c.012,0,.012,0,.023.012a.41.41,0,0,1,.1.046c.012,0,.023.012.046.012l.1.035c.012,0,.023.012.035.012.035.012.081.012.115.023h.035c.046,0,.1.012.15.012a.657.657,0,0,0,.15-.012h.035a.409.409,0,0,0,.115-.023c.012,0,.023-.012.035-.012l.1-.035c.012,0,.023-.012.046-.012a.409.409,0,0,0,.1-.046c.012,0,.012,0,.023-.012L68.283,42.926a1.394,1.394,0,0,0,.784-1.245V12.907C69.044,12.9,69.044,12.884,69.044,12.872ZM43.887,2.916l20.558,9.968L56.874,16.56,36.316,6.592Zm0,19.936L23.329,12.884l9.818-4.759,20.558,9.968ZM21.566,15.108,42.5,25.26V50.993L21.566,40.84Zm23.7,35.885V25.26l9.83-4.771v6.73a1.383,1.383,0,0,0,2.766,0V19.141l8.412-4.079V40.794Z" transform="translate(-18.8)"/></svg>