<svg xmlns="http://www.w3.org/2000/svg" xmlns:xlink="http://www.w3.org/1999/xlink" viewBox="0 0 631.01 524.32"><defs><style>.cls-1{fill:#2880fb;}.cls-2{fill:url(#Dégradé_sans_nom_4);}.cls-3{fill:#c2c2c6;}.cls-4{fill:#fff;}.cls-5{fill:#a5a6aa;}.cls-17,.cls-6{fill:#565554;}.cls-7{fill:#28cc8b;}.cls-8{opacity:0.05;isolation:isolate;}.cls-9{fill:#2f2e41;}.cls-10{fill:#e5adb3;}.cls-11{fill:#ffb8b8;}.cls-12{fill:#67676b;}.cls-13{fill:#212120;}.cls-14{fill:#5d9343;}.cls-15{fill:#79b543;}.cls-16{fill:#5b5b5b;}.cls-17{stroke:#000;stroke-miterlimit:10;}</style><linearGradient id="Dégradé_sans_nom_4" x1="108.8" y1="726.81" x2="108.8" y2="727.81" gradientTransform="matrix(373.45, 0, 0, -373.45, -40236.77, 271874.27)" gradientUnits="userSpaceOnUse"><stop offset="0" stop-color="gray" stop-opacity="0.25"/><stop offset="0.54" stop-color="gray" stop-opacity="0.12"/><stop offset="1" stop-color="gray" stop-opacity="0.1"/></linearGradient></defs><g id="Calque_2" data-name="Calque 2"><g id="Calque_1-2" data-name="Calque 1"><g id="Groupe_421" data-name="Groupe 421"><g id="Groupe_413" data-name="Groupe 413"><path id="Tracé_1428" data-name="Tracé 1428" class="cls-1" d="M124.85,47.2c-3.7,1.63-7.49,3.73-9.52,7.42-2.15,3.88-1.89,8.71-1.49,13.21,3.49,39,12.68,80.52-3.19,115.86-7.71,17.15-20.6,30.89-30.85,46.46s-18,35-13.23,53.34c5.81,22.38,27.5,34.79,42.13,52,9.57,11.26,16.28,24.95,25.21,36.8s21.16,22.28,35.42,23c20.5,1,37.19-17.89,57.29-22.26,20.59-4.48,41.33,6.92,58,20.57s31.89,30.19,51.34,38.71c21.49,9.42,45.71,8,68.33,13.63,20.6,5.16,39.56,16.13,60,22s44.41,5.49,60.25-9.44c20.65-19.54,19-54.33,32.21-80.17C569,354.3,593,340,609.15,318.74c29-38.2,28.08-96.59,3.43-138.13s-69.32-66.7-115-73.26c-20.6-2.94-41.8-2.54-61.6-9.25C383,80.15,351.45,15.85,297.35,2.47,263-6,229.5,8.68,200.21,26.78,174.78,42.49,151.32,35.48,124.85,47.2Z"/><circle id="Ellipse_230" data-name="Ellipse 230" class="cls-2" cx="395.78" cy="259.31" r="186.73"/><path id="Tracé_1541" data-name="Tracé 1541" class="cls-3" d="M387,75.68c101.41,0,183.63,82.22,183.63,183.63S488.42,442.94,387,442.94A183.62,183.62,0,0,1,203.38,259.31h0C203.38,157.9,285.59,75.68,387,75.68Z"/><circle id="Ellipse_232" data-name="Ellipse 232" class="cls-4" cx="387.01" cy="259.31" r="145.98"/><rect id="Rectangle_535" data-name="Rectangle 535" class="cls-5" x="382.88" y="139.13" width="8.25" height="128.95"/><rect id="Rectangle_538" data-name="Rectangle 538" class="cls-6" x="395.78" y="254.16" width="116.57" height="10.32"/><rect id="Rectangle_539" data-name="Rectangle 539" class="cls-6" x="342.63" y="197.95" width="10.32" height="82.8" transform="translate(-25.59 436.41) rotate(-62.36)"/><circle id="Ellipse_234" data-name="Ellipse 234" class="cls-7" cx="387.01" cy="259.31" r="15.47"/><path id="Tracé_1469" data-name="Tracé 1469" class="cls-8" d="M494.44,189.59s-1.89,4.47-.95,5.89"/><path id="Tracé_1470" data-name="Tracé 1470" class="cls-8" d="M419.28,188.17s.94,4.48,0,5.89"/></g></g><g id="Groupe_458" data-name="Groupe 458"><g id="Groupe_456" data-name="Groupe 456"><path id="Tracé_1497-2" data-name="Tracé 1497-2" class="cls-9" d="M458.27,95.61a3.83,3.83,0,0,0-2.22.5,5.9,5.9,0,0,0-1.5,2,23.53,23.53,0,0,1-6.44,7.28c-1.91,1.4-4.34,3.15-4,5.73a7.42,7.42,0,0,0,.93,2.42c1.76,3.57,6.58,6.32,6.11,10.39,1.75-2.94-.59-4.39,1.16-7.33.84-1.39,2.28-3,3.55-2.1.42.3.7.83,1.14,1.08,1.05.62,2.16-.56,3.09-1.39,3.2-2.87,7.76-2.12,11.74-1.22,1.88.42,3.95,1,5.06,2.77,1.46,2.36-1.39,4.92-2.11,7.59a1.45,1.45,0,0,0,1.05,1.77,1.26,1.26,0,0,0,.51,0c1.2-.12,2.62-.21,2.69-.74,1.5.06,3.34-.11,4-1.68a6.59,6.59,0,0,0,.31-1.92,39.3,39.3,0,0,1,2.09-7.53c.74-2.51,1.06-5.44-.19-7.66a8.66,8.66,0,0,0-1.63-2C476.5,96.73,467.19,95.6,458.27,95.61Z"/><path id="Tracé_1498-2" data-name="Tracé 1498-2" class="cls-10" d="M452.68,129s1.54,12.84-4.11,13.87,5.14,18.49,5.14,18.49l25.68,3.08-6.17-20.54s-4.11-1.54-1.54-11.81S452.68,129,452.68,129Z"/><path id="Tracé_1499-2" data-name="Tracé 1499-2" class="cls-11" d="M437,349.62l2.06,28.25h10.78l-3.08-28.25Z"/><path id="Tracé_1500-2" data-name="Tracé 1500-2" class="cls-11" d="M516.1,296.21l1.54,23.62,11.82-5.14-4.63-19.51Z"/><path id="Tracé_1501-2" data-name="Tracé 1501-2" class="cls-12" d="M429.31,241.76s.51,29.79,3.59,39.55,2.57,10.27,2.06,11.81-1,.52-1,3.09-1,43.14,0,46.73-3.08,9.76,0,10.27,17.46,0,18-3.08S447.8,346,449.85,344,455,299.8,455,299.8l7.19-29.27,13.35-15.41h28.25l8.73,33.9s-3.59,9.75-1,9.75,18,3.09,18-8.21-5.14-44.68-6.17-45.71.52-4.62-1-6.16-19.52-12.33-26.2-14.38-16-4.5-16-4.5Z"/><path id="Tracé_1502-2" data-name="Tracé 1502-2" class="cls-9" d="M529.46,310.59s-7.7-2.57-11.3,5.13-2,9.76-2,9.76,11.81,4.11,13.86,2c.9-.89,3.73-1.2,6.65-1.26,4.45-.1,5.64-6.4,1.44-7.86l-.38-.11C533.57,317.26,529.46,310.59,529.46,310.59Z"/><circle id="Ellipse_239-2" data-name="Ellipse 239-2" class="cls-11" cx="464.23" cy="122.1" r="15.41"/><path id="Tracé_1503-2" data-name="Tracé 1503-2" class="cls-4" d="M444.2,149.32s25.16,5.14,31.33-3.08,8.73,23.11,8.73,23.11l3.08,32.87-4.62,18s-24.14,19.52-31.84,21.06-19.51,2.57-19.51,2.57,3.59-57,3.59-58S444.2,149.32,444.2,149.32Z"/><path id="Tracé_1504-2" data-name="Tracé 1504-2" class="cls-13" d="M451.86,139.69s-5.6-3.21-7.14-.13-15.92,10.79-17.46,10.79,3.08,42.62,1,47.76-11.81,42.63-6.16,45.71,1.54-3.08,7.19,4.62,33.38,7.7,34.92,4.62-12.33-26.19-9.76-47.76,6.68-51.36,3.08-55.47A35.82,35.82,0,0,1,451.86,139.69Z"/><path id="Tracé_1505-2" data-name="Tracé 1505-2" class="cls-13" d="M470.4,143.16l.71-2.47s21.37,7.09,22.4,11.71.51,37-3.08,39.55-8.73,6.67-5.14,12.84,7.71,12.84,10.79,13.35,8.73,4.11,7.19,7.7-20-3.08-20-3.08-12.33-9.25-11.82-23.62S470.4,143.16,470.4,143.16Z"/><path id="Tracé_1506-2" data-name="Tracé 1506-2" class="cls-11" d="M488.37,203.76l-12.32,23.11s-18,18.49-7.71,20.54,15.92-16.95,15.92-16.95l13.36-19Z"/><path id="Tracé_1507-2" data-name="Tracé 1507-2" class="cls-9" d="M459,99.65a3.44,3.44,0,0,0-1.81.35,4.05,4.05,0,0,0-1.21,1.39,17.74,17.74,0,0,1-5.25,5.14c-1.55,1-3.53,2.23-3.27,4.06a5.15,5.15,0,0,0,.76,1.71,13.45,13.45,0,0,1,1.64,8.38l4.28-6.22c.68-1,1.86-2.11,2.89-1.48.34.2.57.58.92.76.86.43,1.77-.4,2.52-1,2.61-2,6.32-1.5,9.56-.87a6.31,6.31,0,0,1,4.12,2c1.5,2.11-.07,5.16.81,7.6a2.25,2.25,0,0,0,.93-1.48c1.22,0,2.72-.08,3.25-1.19a4.2,4.2,0,0,0,.25-1.36,25.56,25.56,0,0,1,1.7-5.32,6.29,6.29,0,0,0-.15-5.41,6.59,6.59,0,0,0-1.33-1.41C473.86,100.44,466.28,99.64,459,99.65Z"/><path id="Tracé_1508-2" data-name="Tracé 1508-2" class="cls-13" d="M488.37,150.35l4.79,1.26s11.13,28.52,8.56,48-4.1,15.41-4.1,15.41-4.11-9.25-13.36-7.19Z"/><path id="Tracé_1509-2" data-name="Tracé 1509-2" class="cls-9" d="M437.73,374.13c-1.24,1.69-1,4.09-2.09,5.87-.95,1.54-2.75,2.35-3.93,3.72a9.65,9.65,0,0,0-1,1.45c-1.11,1.85-2,4.22-.92,6.08.88,1.49,2.71,2.08,4.4,2.47a16,16,0,0,0,6.5.52,6.46,6.46,0,0,0,5-3.75,16.07,16.07,0,0,1,.53-1.52c1.17-2.3,4.83-2.32,6-4.61.84-1.6.07-3.53-.7-5.16l-2.35-5c-.78-1.66-3.94-.7-5.58-1.1C441.49,372.6,439.27,372,437.73,374.13Z"/><path id="Tracé_1510-2" data-name="Tracé 1510-2" class="cls-11" d="M420.58,214l21.57,33.39s13.35,16.94,17.46,9.25-14.38-20.55-14.38-20.55l-13.86-25.68Z"/><path id="Tracé_1511-2" data-name="Tracé 1511-2" class="cls-13" d="M431.37,151.37l-4.11-1S419,152.91,417,163.7s-.51,53.93,2.06,54.44,12.68-7.51,14.3-5.81-3.52-7-2-11.65S431.37,151.37,431.37,151.37Z"/></g></g><path class="cls-14" d="M31.22,412c.5-10.06-7.54-25.14-7.54-40.72s7-40.22,2-53.29-6-22.62-6-40.22-7-27.15-4-41.22,6.54-22.63,9-11.06a98.57,98.57,0,0,1,1.9,33.68c-1.4,11.06,2.88,14.08.74,27.15s-.08,19.6,6.94,35.19,2.49,40.72,2.49,56.3.5,32.05-.44,34.19A30.77,30.77,0,0,1,31.22,412Z"/><path class="cls-14" d="M40.83,411.08C54,403,51.2,389.4,49.32,383.37S41.77,372.43,39.89,373s-4.37,12.82-3,22.81-1.68,15.27-1.68,15.27C39,413.34,40.83,411.08,40.83,411.08Z"/><path class="cls-14" d="M86.27,412.07c21.49-14.56,26.39-26.63,27.52-32.66s-1.13-24.13-1.88-31.3-6-3-8.68,6,2.27,16.22-5.65,31.68S83,409.19,83,410,86.27,412.07,86.27,412.07Z"/><path class="cls-14" d="M75.71,409.19c8.29-19.6-3.77-38.83,4.52-55.42s8.3-30.92,12.45-44.87,5.65-21.87.75-31.67-9.37-27.15-7-34.69,1.78-13.2,11.53-1.89,12.63,18.86,13.83,38.84-.31,21.87-4.08,33.93-4.15,21.5-11.31,35.82-8.85,26-6.79,36.58-9.43,23.37-9.43,23.37A7.45,7.45,0,0,1,75.71,409.19Z"/><path class="cls-14" d="M27.82,358.67c-7.16.38-10.8-10.56-12.94-19.23S9.35,319.83,4.45,318.33s-7.17-10.94.75-12.82,12.82,10.54,14,20.73,3.77,20.36,8.67,24.51C30.84,356,27.82,358.67,27.82,358.67Z"/><path class="cls-14" d="M24.81,253.1c7.16,1.5,6.78-9.43,8.29-12.82s6,1.5,8.1,8.67-9.56,18.08-17,12.83C19.53,256.49,24.81,253.1,24.81,253.1Z"/><path class="cls-14" d="M61.38,409.53c-7.16-19.19-9.43-51-4.15-76.75s7.54-31.42,6-52.16-.52-34.69,3.51-50.9S69.3,183.34,72.69,183s13.83,23.75,8.42,48.26-6.91,30.54-5.4,45.62-2.38,25.26-8,41.85-4.58,47.51-.75,61.46,1.07,29.28,1.51,30.54S61.38,409.53,61.38,409.53Z"/><path class="cls-14" d="M62.89,361.7c13.57-15.1,10.93-25.65,10.93-35.46s.38-15.83,4.15-8.67,7.51,27.79,3.74,45.14-18.82,23.86-18.82,23.86A89.23,89.23,0,0,1,62.89,361.7Z"/><path class="cls-14" d="M65.41,301.86c-4.53-11.06-12.83-11.81-14.34-22.37S56.4,262,57.74,268.43c2,9.68-1.14,17.59,8.08,21.87C68.92,294.07,65.41,301.86,65.41,301.86Z"/><path class="cls-15" d="M72.69,183c-.64.07-1.11,1.21-1.47,3.12-.4,24.43,6.35,37.08.29,53.09-6.61,17.44-4.86,27.36-3,49.61S65.24,319,61.05,345.6C57.53,368,64.4,396,65.51,410.68c1.67.4,3.18.6,3,0-.44-1.26,2.32-16.59-1.51-30.54s-4.85-44.87.75-61.46,9.49-26.77,8-41.85,0-21.11,5.4-45.62S76.09,182.59,72.69,183Z"/><path class="cls-15" d="M34.26,321.47c-7-15.59-9.08-22.12-6.94-35.19s-2.14-16.09-.74-27.15a98.57,98.57,0,0,0-1.9-33.68,14.48,14.48,0,0,0-1.55-4.54C22.26,231.38,20,246.59,21.8,253c2.66,9.37,3,22.3,1.76,30.15s-1,15.91,6.49,32.55,3.43,22.95,1.38,45.95c-1.91,21.39,2.48,34.63.88,50.34a27.44,27.44,0,0,0,4-.07c.94-2.14.44-18.6.44-34.19S41.27,337.05,34.26,321.47Z"/><path class="cls-15" d="M27.9,358.6c.42-.43,2.67-3-.08-7.85-4.9-4.15-7.54-14.33-8.67-24.51s-6-22.62-13.95-20.73c-3,.71-4.55,2.52-5,4.57h0c5.91-2.94,12.7-5.71,14.71,12.64s7.18,25.73,10.5,30.19A15.89,15.89,0,0,1,27.9,358.6Z"/><path class="cls-15" d="M41.2,249c-2.08-7.17-6.59-12.07-8.1-8.67,6.95,5.47,5.57,14.56-1.74,20.7a27.69,27.69,0,0,1-3,2.17C35.31,263.3,42.92,254.85,41.2,249Z"/><path class="cls-15" d="M43.14,399.3c-1.65,5.28-3.3,9.56-4.67,12.78a3.35,3.35,0,0,0,2.36-1C54,403,51.2,389.4,49.32,383.37S41.77,372.43,39.89,373C39.76,384.81,47.1,386.6,43.14,399.3Z"/><path class="cls-15" d="M81.71,362.71c3.77-17.35,0-38-3.74-45.14-1-1.82-1.69-2.78-2.26-3.05h0C77.47,326,81.5,339.75,79.36,353s-13,15.78-14.71,27.09a6.69,6.69,0,0,0,2.12,4.31A35.07,35.07,0,0,0,81.71,362.71Z"/><path class="cls-15" d="M109.07,344.61c-6.22,11.53,2.07,23.16-1.69,36.18-2.83,9.8-8.77,19.61-15.27,27.08,16.57-12.67,20.66-23,21.68-28.46,1.13-6-1.13-24.13-1.88-31.3C111.59,345.09,110.46,344.09,109.07,344.61Z"/><path class="cls-15" d="M98,240.65c-3.92-4.55-6.16-6.35-7.6-6.39,1.14,21.1,15.45,30.69,14,59.08s-6.41,43.08-14,60.8-9.42,20.15-7.16,29.5c1.6,6.62-.77,18-3.63,25.7l.61-.15s11.49-12.79,9.43-23.37-.38-22.25,6.79-36.58,7.54-23.75,11.31-35.82,5.28-13.95,4.08-33.93S107.76,252,98,240.65Z"/><path class="cls-15" d="M57.74,268.43c-.42-2-1.35-2.69-2.41-2.41,1,6.68,1.15,12.71,2.18,19.32.75,4.84,5.79,6.37,9.58,9.47a6.74,6.74,0,0,0-1.27-4.51C56.6,286,59.75,278.11,57.74,268.43Z"/><polygon class="cls-16" points="87.27 523.82 32.35 523.82 16.51 407.85 103.1 407.85 87.27 523.82"/><rect class="cls-4" x="35.17" y="427.24" width="1.32" height="13.3" transform="matrix(0.94, -0.35, 0.35, 0.94, -151.11, 40.7)"/><rect class="cls-4" x="57.86" y="431.19" width="1.32" height="6.91" transform="translate(-157.8 53.14) rotate(-21.89)"/><rect class="cls-4" x="83.98" y="438.95" width="1.32" height="12.12" transform="translate(-331.46 265.96) rotate(-55.95)"/><rect class="cls-4" x="83.77" y="424.75" width="6.76" height="1.32" transform="translate(-262.35 167.69) rotate(-42.02)"/><rect class="cls-4" x="68.37" y="464" width="11.37" height="1.32" transform="translate(-94.29 25.28) rotate(-11.91)"/><rect class="cls-4" x="42.79" y="463.77" width="10.08" height="1.32" transform="translate(-346.52 214.49) rotate(-51.75)"/><rect class="cls-4" x="33.16" y="466.24" width="1.32" height="12.21" transform="translate(-347.74 191.87) rotate(-49.59)"/><rect class="cls-4" x="55.91" y="489.22" width="10.05" height="1.32" transform="translate(-314.76 169.66) rotate(-42.47)"/><rect class="cls-4" x="44.05" y="497.57" width="1.32" height="13.27" transform="translate(-444.54 374.33) rotate(-70.07)"/><rect class="cls-4" x="66.31" y="513.73" width="11.58" height="1.32" transform="translate(-374.93 249.89) rotate(-51.41)"/><rect class="cls-4" x="84.56" y="485.61" width="1.32" height="5.15" transform="translate(-338.01 230.37) rotate(-48.75)"/><rect class="cls-4" x="33.63" y="515.05" width="8.19" height="1.32" transform="translate(-389.64 224.6) rotate(-51.55)"/><rect class="cls-4" x="39.39" y="414.76" width="12.62" height="1.32" transform="matrix(0.86, -0.51, 0.51, 0.86, -204.74, 80.85)"/><rect class="cls-4" x="78.44" y="410.34" width="1.32" height="9.01" transform="translate(-213 109.84) rotate(-32.97)"/><rect class="cls-4" x="23.49" y="447.75" width="8.67" height="1.32"/><line class="cls-17" x1="32.35" y1="523.82" x2="631.01" y2="523.82"/></g></g></svg>