<svg xmlns="http://www.w3.org/2000/svg" viewBox="0 0 118.25 98.61"><defs><style>.cls-1{fill:#2d3a64;}.cls-2{fill:#554c8b;}.cls-3{fill:#362a53;}.cls-4{fill:#f7b17f;}.cls-5{fill:#ed7d2b;}.cls-6{fill:#ee975d;}.cls-7{fill:#f49648;}.cls-8{fill:#2a488c;}.cls-9{fill:#f59e48;}.cls-10{fill:#b1cbeb;}.cls-11{fill:#c7c6c6;}.cls-12{fill:#2f2f41;}.cls-13{fill:#ddd;}.cls-14{fill:#e9bd68;}</style></defs><g id="Calque_2" data-name="Calque 2"><g id="Calque_1-2" data-name="Calque 1"><g id="Groupe_2146" data-name="Groupe 2146"><path id="Tracé_647" data-name="Tracé 647" class="cls-1" d="M77.31,89.88s1.79,1.67,1.44,2.85-2,2-2.19,3.42-1.09,2.23-1.88,2.23H70.92s-.58-1,.82-1.32,1.93-2,1.84-3.58a28.24,28.24,0,0,1,.14-3.68l3-.71Z"/><path id="Tracé_648" data-name="Tracé 648" class="cls-1" d="M55.27,94.42s.44,3.51-.35,3.9-10.21.27-10.21.27,0-1.19,1.62-1.45,4.47-1.23,5-3.37S55.27,94.42,55.27,94.42Z"/><path id="Tracé_649" data-name="Tracé 649" class="cls-2" d="M46.75,40.9s.53,6.64,1.16,14.63c.85,10.84,1.87,24.16,2,26.69.18,4.38.88,11.39.88,11.39s1.66,1.66,5,1A114.54,114.54,0,0,0,59.57,74c0-.18,0-.35,0-.53.79-10.77,2-33.47,2-33.47Z"/><path id="Tracé_650" data-name="Tracé 650" class="cls-3" d="M46.75,40.9s.53,6.64,1.16,14.63L59.57,74c0-.18,0-.35,0-.53.79-10.77,2-33.47,2-33.47Z"/><path id="Tracé_651" data-name="Tracé 651" class="cls-2" d="M49.18,41.69s9.6,24,15.9,35.36,8.29,14.46,8.29,14.46,3.61-1.45,3.94-2.44c0,0-2.41-21.82-6.64-27.14-2.39-3-5.19-12-5.32-15.18s-.86-9.4-.86-9.4Z"/></g><g id="Groupe_2147" data-name="Groupe 2147"><path id="Tracé_652" data-name="Tracé 652" class="cls-4" d="M37.13,49.53a40.14,40.14,0,0,0-2.36,3.65,8.79,8.79,0,0,0,0,3c.15.09.32,0,.49-.28s.49-1.53.59-1.4-.59,3.65,0,4,2.6-1,3.31-2.45.17-5.18.25-5.44C40.12,48.35,37.13,49.53,37.13,49.53Z"/><path id="Tracé_653" data-name="Tracé 653" class="cls-5" d="M37.85,51.13c-1.22-.26-1.35-.43-1.35-.43s.21-12,.18-13.12-4.8-16.32-4.8-16.32L40,13s3,21.52,3,24.37C43.09,42.12,39.6,51,39.6,51A3.47,3.47,0,0,1,37.85,51.13Z"/></g><path id="Tracé_654" data-name="Tracé 654" class="cls-4" d="M37.26,11s-2.17,7.62-5.67,9.4a10.37,10.37,0,0,1,.13-4c-.47-.35-.9-.67-1.27-1a23.3,23.3,0,0,1-1.85-1.6l.44-3.7.29-2.51a11,11,0,0,0,1.81,1.6A9.37,9.37,0,0,0,37.26,11Z"/><path id="Tracé_655" data-name="Tracé 655" class="cls-6" d="M31.14,9.17a7.27,7.27,0,0,1-.69,6.21c-.64-.5-1.26-1-1.85-1.6l.44-3.7A7.27,7.27,0,0,1,31.14,9.17Z"/><path id="Tracé_656" data-name="Tracé 656" class="cls-4" d="M27.72,14.52s5.14-3.6,2.85-6.77S27.4,2,24,4.15,20.88,8,21.39,9.22,26.32,15.38,27.72,14.52Z"/><path id="Tracé_657" data-name="Tracé 657" class="cls-7" d="M65.17,40.56C63.68,44.41,47.62,53,47.26,50.67a25.68,25.68,0,0,0-1.09-4.5c-.17-.48-.35-1-.57-1.51a36.93,36.93,0,0,0-6.53-10.4l-.79-.88a35.34,35.34,0,0,1-3.68-4.76c-2-3.14-3.3-6.31-3.23-8.6v0c3.18-2.53,3-9.29,3-9.29S47.13,9.91,58,24.53c0,0,1.1,1.63,2.44,3.88a49.26,49.26,0,0,1,4.49,9.07A5.13,5.13,0,0,1,65.17,40.56Z"/><path id="Tracé_658" data-name="Tracé 658" class="cls-8" d="M29.79,1c0-.09.12-.2.38-.36a1.17,1.17,0,0,0-.58.12A1.54,1.54,0,0,0,28.06,0a.93.93,0,0,1,.7.39C27.61,0,25.72.3,21.48,3c-5.59,3.51-1.69,6.29-.7,6.35S23,7.14,24.49,6.52s2.81,1.3,3.43,1.34.18-.37.67-1,1.12.42,1.3,1.22,1.56,1.28,1.56,1.28l.38-1.45c.39-1.45-.93-6-1.8-6.71Z"/><path id="Tracé_659" data-name="Tracé 659" class="cls-5" d="M64.88,37.48C49,36.63,42.41,19.62,42.41,19.62s10,4.37,18,8.79A49.26,49.26,0,0,1,64.88,37.48Z"/><g id="Groupe_2152" data-name="Groupe 2152"><g id="Groupe_2148" data-name="Groupe 2148"><path id="Tracé_660" data-name="Tracé 660" class="cls-9" d="M110.26,96.37a2.11,2.11,0,1,1,2.11,2.12,2.12,2.12,0,0,1-2.11-2.12Z"/><path id="Tracé_661" data-name="Tracé 661" class="cls-5" d="M111.08,96.37a1.29,1.29,0,1,1,1.29,1.29h0A1.29,1.29,0,0,1,111.08,96.37Z"/></g><g id="Groupe_2149" data-name="Groupe 2149"><path id="Tracé_662" data-name="Tracé 662" class="cls-10" d="M95.44,94.24c-.4,0-8.29-.08-13.72-5.93-3.73-4-5.34-9.71-4.79-16.92,1.13-14.72-1.28-26.63-6.59-32.67a12.11,12.11,0,0,0-8.72-4.37C55.81,34,50.37,40.7,50.31,40.77l-2-1.58c.26-.32,6.33-7.73,13.4-7.36a14.62,14.62,0,0,1,10.48,5.22c2.94,3.35,5,8.13,6.29,14.23a74.76,74.76,0,0,1,.93,20.3c-.5,6.48.89,11.53,4.12,15,4.71,5.07,11.78,5.12,11.87,5.12h0v2.52Z"/></g><path id="Tracé_663" data-name="Tracé 663" class="cls-11" d="M117.33,95.36a3.06,3.06,0,0,1-2.16.89H92.76a1.85,1.85,0,0,1-1.84-1.84A1.79,1.79,0,0,1,91,93.9c.91-3.23,2.88-8.86,5.87-10.7a5.87,5.87,0,0,1,1.81-.7c5.28-1.2,15.52,1.83,19.1,9a4.26,4.26,0,0,1,.21.42A3,3,0,0,1,117.33,95.36Z"/><g id="Groupe_2150" data-name="Groupe 2150"><path id="Tracé_664" data-name="Tracé 664" class="cls-8" d="M51.53,41,21.21,81.14,9.71,96.36l-2-1.42,11-15.57,29.08-41Z"/><path id="Tracé_665" data-name="Tracé 665" class="cls-9" d="M21.21,81.13,9.7,96.36,7.76,94.94l11-15.57Z"/></g><path id="Rectangle_41" data-name="Rectangle 41" class="cls-5" d="M.57,94.75H13a.56.56,0,0,1,.57.57h0v2.47a.57.57,0,0,1-.57.57H.57A.58.58,0,0,1,0,97.79H0V95.32A.57.57,0,0,1,.57,94.75Z"/><path id="Rectangle_42" data-name="Rectangle 42" class="cls-9" d="M.57,94.75h9.69a.56.56,0,0,1,.57.57h0v2.47a.57.57,0,0,1-.57.57H.57A.58.58,0,0,1,0,97.79H0V95.32A.57.57,0,0,1,.57,94.75Z"/><path id="Tracé_666" data-name="Tracé 666" class="cls-12" d="M117.33,95.36a3.06,3.06,0,0,1-2.16.89H92.76a1.85,1.85,0,0,1-1.84-1.84A1.79,1.79,0,0,1,91,93.9c.91-3.23,2.88-8.86,5.87-10.7a5.87,5.87,0,0,1,1.81-.7C100.71,86.37,106.29,94.62,117.33,95.36Z"/><g id="Groupe_2151" data-name="Groupe 2151"><path id="Tracé_667" data-name="Tracé 667" class="cls-13" d="M94.49,93.44a5,5,0,1,1,5.05,5h0A5,5,0,0,1,94.49,93.44Z"/><path id="Tracé_668" data-name="Tracé 668" class="cls-14" d="M96.45,93.44a3.09,3.09,0,1,1,3.09,3.08A3.08,3.08,0,0,1,96.45,93.44Z"/></g></g><path id="Tracé_669" data-name="Tracé 669" class="cls-4" d="M66.36,31.56a30.5,30.5,0,0,0-.66,3.29,5.87,5.87,0,0,0,.54,1.95c.13,0,.54.09.56-.2s-.13-.57,0-.51,0,1.14.56,1.18,2.22-.38,2.31-1.64-1.35-3.75-1.36-4C68.16,29.87,66.36,31.56,66.36,31.56Z"/><path id="Tracé_670" data-name="Tracé 670" class="cls-7" d="M67.52,31.82a6.25,6.25,0,0,1-2.2,0s-7.35-7.44-8.38-8-15.11-1.15-15.11-1.15-5.64,0-7-2.9a5.77,5.77,0,0,1,.93-6.27,5.85,5.85,0,0,1,6.27-2c5.15,1.56,15.4,4.73,17.31,5.92,4.25,2.65,9.7,13.14,9.7,13.14A2.26,2.26,0,0,1,67.52,31.82Z"/></g></g></svg>