<?xml version="1.0" encoding="utf-8"?>
<!-- Generator: Adobe Illustrator 25.1.0, SVG Export Plug-In . SVG Version: 6.00 Build 0)  -->
<svg version="1.1" id="Calque_1" xmlns="http://www.w3.org/2000/svg" xmlns:xlink="http://www.w3.org/1999/xlink" x="0px" y="0px"
	 viewBox="0 0 100 100" style="enable-background:new 0 0 100 100;" xml:space="preserve">
<style type="text/css">
	.st0{fill:#2880FB;}
</style>
<path id="Icon_awesome-check" class="st0" d="M45.4,61.2l-9.9-9.9c-0.6-0.6-0.6-1.6,0-2.1c0,0,0,0,0,0l2.1-2.1
	c0.6-0.6,1.6-0.6,2.1,0c0,0,0,0,0,0l6.6,6.6l14.2-14.2c0.6-0.6,1.6-0.6,2.1,0c0,0,0,0,0,0l2.1,2.1c0.6,0.6,0.6,1.6,0,2.1
	c0,0,0,0,0,0L47.5,61.2C46.9,61.8,46,61.8,45.4,61.2C45.4,61.2,45.4,61.2,45.4,61.2z"/>
</svg>
