<?xml version="1.0" encoding="utf-8"?>
<!-- Generator: Adobe Illustrator 25.1.0, SVG Export Plug-In . SVG Version: 6.00 Build 0)  -->
<svg version="1.1" id="Calque_1" xmlns="http://www.w3.org/2000/svg" xmlns:xlink="http://www.w3.org/1999/xlink" x="0px" y="0px"
	 viewBox="0 0 100 100" style="enable-background:new 0 0 100 100;" xml:space="preserve">
<style type="text/css">
	.st0{fill:#237EFA;}
</style>
<path id="Icon_ionic-ios-star" class="st0" d="M62.4,46h-9.1l-2.8-8.2c-0.2-0.5-0.8-0.8-1.3-0.6c-0.3,0.1-0.5,0.3-0.6,0.6L46,46
	h-9.1c-0.5,0-1,0.4-1,1c0,0.1,0,0.1,0,0.2c0,0.3,0.2,0.5,0.4,0.7l7.4,5.2l-2.9,8.3c-0.1,0.4,0,0.9,0.3,1.1c0.2,0.1,0.3,0.2,0.6,0.2
	c0.2,0,0.4-0.1,0.6-0.2l7.3-5.2l7.3,5.2c0.2,0.1,0.4,0.2,0.6,0.2c0.2,0,0.4-0.1,0.5-0.2c0.3-0.3,0.5-0.7,0.3-1.1l-2.9-8.3l7.4-5.3
	l0.2-0.2c0.4-0.3,0.4-0.9,0.1-1.3C63,46.1,62.7,46,62.4,46z"/>
</svg>
