<?xml version="1.0" encoding="utf-8"?>
<!-- Generator: Adobe Illustrator 25.1.0, SVG Export Plug-In . SVG Version: 6.00 Build 0)  -->
<svg version="1.1" id="Calque_1" xmlns="http://www.w3.org/2000/svg" xmlns:xlink="http://www.w3.org/1999/xlink" x="0px" y="0px"
	 viewBox="0 0 100 100" style="enable-background:new 0 0 100 100;" xml:space="preserve">
<style type="text/css">
	.st0{fill:#707070;}
</style>
<g id="Icon_ionic-ios-close-circle-outline" transform="matrix(1, 0.017, -0.017, 1, -2.805, -3.433)">
	<path id="Tracé_3769" class="st0" d="M60.3,56.9l-4.1-4.1l4.1-4.1c0.5-0.5,0.5-1.3,0-1.8c-0.5-0.5-1.2-0.5-1.7,0L54.4,51l-4.1-4.1
		c-0.5-0.5-1.3-0.5-1.8,0c-0.5,0.5-0.5,1.2,0,1.7l4.1,4.1l-4.1,4.1c-0.5,0.5-0.5,1.2-0.1,1.7c0,0,0,0,0.1,0.1c0.5,0.5,1.3,0.5,1.8,0
		c0,0,0,0,0,0l4.1-4.1l4.1,4.1c0.5,0.5,1.3,0.5,1.8,0C60.8,58.2,60.8,57.4,60.3,56.9C60.3,56.9,60.3,56.9,60.3,56.9z"/>
	<path id="Tracé_3770" class="st0" d="M54.4,38.7c7.8,0,14.1,6.3,14.1,14.1c0,7.8-6.3,14.1-14.1,14.1s-14.1-6.3-14.1-14.1
		c0-3.7,1.5-7.3,4.1-9.9C47.1,40.2,50.7,38.7,54.4,38.7 M54.4,36.5c-9,0-16.3,7.3-16.3,16.3s7.3,16.3,16.3,16.3s16.3-7.3,16.3-16.3
		C70.7,43.8,63.4,36.5,54.4,36.5C54.4,36.5,54.4,36.5,54.4,36.5z"/>
</g>
</svg>
