<?xml version="1.0" encoding="utf-8"?>
<!-- Generator: Adobe Illustrator 25.1.0, SVG Export Plug-In . SVG Version: 6.00 Build 0)  -->
<svg version="1.1" id="Calque_1" xmlns="http://www.w3.org/2000/svg" xmlns:xlink="http://www.w3.org/1999/xlink" x="0px" y="0px"
	 viewBox="0 0 100 100" style="enable-background:new 0 0 100 100;" xml:space="preserve">
<style type="text/css">
	.st0{fill:#28CC8B;}
</style>
<path id="Icon_awesome-arrow-right" class="st0" d="M47.3,41.7l1.3-1.3c0.5-0.5,1.4-0.5,2,0c0,0,0,0,0,0L62,51.8
	c0.5,0.5,0.5,1.4,0,2c0,0,0,0,0,0L50.6,65.2c-0.5,0.5-1.4,0.5-2,0c0,0,0,0,0,0l-1.3-1.3c-0.6-0.6-0.5-1.4,0-2c0,0,0,0,0,0l7.1-6.7
	H37.5c-0.8,0-1.4-0.6-1.4-1.4c0,0,0,0,0,0v-1.9c0-0.8,0.6-1.4,1.4-1.4c0,0,0,0,0,0h16.9l-7.1-6.7C46.7,43.2,46.7,42.3,47.3,41.7
	C47.3,41.7,47.3,41.7,47.3,41.7z"/>
</svg>
