<svg xmlns="http://www.w3.org/2000/svg" xmlns:xlink="http://www.w3.org/1999/xlink" viewBox="0 0 1926 1663.32"><defs><style>.cls-1{opacity:0.12;}.cls-2{fill:#707070;}.cls-3{fill:url(#Dégradé_sans_nom_2);}</style><linearGradient id="Dégradé_sans_nom_2" x1="-390.72" y1="1229.67" x2="-390.72" y2="1228.67" gradientTransform="matrix(1926, 0, 0, -1643.32, 753489.74, 2020752.14)" gradientUnits="userSpaceOnUse"><stop offset="0" stop-color="#d0deeb"/><stop offset="1" stop-color="#f6f6f6"/></linearGradient></defs><g id="Calque_2" data-name="Calque 2"><g id="Calque_1-2" data-name="Calque 1"><g id="Groupe_173" data-name="Groupe 173" class="cls-1"><path id="Tracé_842" data-name="Tracé 842" class="cls-2" d="M2,757.56c46.94-124,129.58-220.65,225.17-263.34,98.91-44.17,205.43-31.33,309.25-29.55s214.12-11,298.2-96.18c29.93-30.32,55.45-68.87,86.62-96.67,56.26-50.19,126-61,192.72-58.37,121.21,4.82,245.36,49.11,361.68,1.17,78-32.13,144.32-102.85,216.61-154.74s160.26-84.61,233.8-36.2V1643.32H0Z"/></g><g id="Groupe_173_3_2" data-name="Groupe 173 3 2"><path id="Tracé_842_3_2" data-name="Tracé 842 3 2" class="cls-3" d="M2,777.56c46.94-124,129.58-220.65,225.17-263.34,98.91-44.17,205.43-31.33,309.25-29.55s214.12-11,298.2-96.18c29.93-30.32,55.45-68.87,86.62-96.67,56.26-50.19,126-61,192.72-58.37,121.21,4.82,245.36,49.11,361.68,1.17,78-32.13,144.32-102.85,216.61-154.74S1852.46-4.73,1926,43.68V1663.32H0Z"/></g></g></g></svg>