<svg xmlns="http://www.w3.org/2000/svg" xmlns:xlink="http://www.w3.org/1999/xlink" viewBox="0 0 1495.67 884.03"><defs><style>.cls-1{fill:url(#Dégradé_sans_nom_3);}</style><linearGradient id="Dégradé_sans_nom_3" x1="270.94" y1="891.19" x2="271.94" y2="891.19" gradientTransform="matrix(1495.67, 0, 0, -884.03, -405241.43, 788278.01)" gradientUnits="userSpaceOnUse"><stop offset="0.29" stop-color="#2188ff"/><stop offset="0.46" stop-color="#2784fe"/><stop offset="0.73" stop-color="#433efc"/></linearGradient></defs><g id="Calque_2" data-name="Calque 2"><g id="Calque_1-2" data-name="Calque 1"><g id="Groupe_2145" data-name="Groupe 2145"><g id="Groupe_134" data-name="Groupe 134"><path id="Tracé_645-3" data-name="Tracé 645-3" class="cls-1" d="M1495.67,875c-33.62,21.61-79,.56-111.45-22.52A801.92,801.92,0,0,1,1244.8,726.64c-22.81-26.1-44.29-54.06-73.52-73.66-25.78-17.28-56.31-27.15-87.09-34.05-72.71-16.28-148.25-17-222.07-27.93s-149.4-34.14-200.35-85.67c-58.94-59.62-74.54-145.51-113.07-218.46-9.06-17.17-19.91-34.19-36.31-45.55C493.24,228,468.73,224,445.08,221.53c-63.44-6.47-127.58-3.64-191.17-8.89S125.42,193.16,74.46,157-10.52,58.79,3,0h1492.7Z"/></g></g></g></g></svg>