<svg xmlns="http://www.w3.org/2000/svg" xmlns:xlink="http://www.w3.org/1999/xlink" viewBox="0 0 1526.06 950.37"><defs><style>.cls-1{opacity:0.08;}.cls-2{fill:url(#Dégradé_sans_nom_3);}.cls-3{opacity:0.32;}.cls-4{fill:url(#Dégradé_sans_nom_3-2);}.cls-5{fill:url(#Dégradé_sans_nom_3-3);}</style><linearGradient id="Dégradé_sans_nom_3" x1="-448.31" y1="1880.51" x2="-447.31" y2="1880.51" gradientTransform="matrix(1525.95, 0, 0, -950.37, 684097.23, 1787653.88)" gradientUnits="userSpaceOnUse"><stop offset="0.29" stop-color="#2188ff"/><stop offset="0.46" stop-color="#2784fe"/><stop offset="0.73" stop-color="#433efc"/></linearGradient><linearGradient id="Dégradé_sans_nom_3-2" x1="-448.31" y1="1880.51" x2="-447.31" y2="1880.51" gradientTransform="matrix(1514.67, 0, 0, -902.14, 679054.26, 1696942.15)" xlink:href="#Dégradé_sans_nom_3"/><linearGradient id="Dégradé_sans_nom_3-3" x1="-448.32" y1="1880.52" x2="-447.32" y2="1880.52" gradientTransform="matrix(1495.67, 0, 0, -884.03, 670562.22, 1662872.32)" xlink:href="#Dégradé_sans_nom_3"/></defs><g id="Calque_2" data-name="Calque 2"><g id="Calque_1-2" data-name="Calque 1"><g id="Groupe_2145" data-name="Groupe 2145"><g id="Groupe_171" data-name="Groupe 171" class="cls-1"><path id="Tracé_645" data-name="Tracé 645" class="cls-2" d="M1526,940.66c-34.29,23.23-80.56.6-113.7-24.2A835.6,835.6,0,0,1,1270,781.17c-23.27-28.06-45.18-58.12-75-79.19-26.3-18.57-57.45-29.19-88.85-36.6-74.18-17.5-151.26-18.28-226.57-30s-152.43-36.7-204.4-92.09C615,479.16,599.12,386.82,559.81,308.4c-9.24-18.46-20.31-36.76-37-49-19.54-14.3-44.54-18.67-68.67-21.27-64.72-7-130.17-3.92-195-9.56S128,207.66,76,168.74-10.73,63.2,3,0H1526Z"/></g><g id="Groupe_170" data-name="Groupe 170" class="cls-3"><path id="Tracé_645-2" data-name="Tracé 645-2" class="cls-4" d="M1526,892.93c-34,22.05-80,.57-112.86-23A814.94,814.94,0,0,1,1271.9,741.53c-23.1-26.64-44.85-55.17-74.45-75.17-26.11-17.63-57-27.71-88.2-34.75-73.63-16.61-150.14-17.35-224.9-28.5s-151.3-34.84-202.89-87.42C621.77,454.85,606,367.19,567,292.75c-9.18-17.52-20.17-34.89-36.77-46.49C510.78,232.7,486,228.54,462,226.07c-64.25-6.6-129.21-3.72-193.6-9.07S138.3,197.12,86.69,160.17.64,60,14.28,0H1526Z"/></g><g id="Groupe_134" data-name="Groupe 134"><path id="Tracé_645-3" data-name="Tracé 645-3" class="cls-5" d="M1526.06,875c-33.62,21.61-79,.56-111.45-22.52a802.28,802.28,0,0,1-139.42-125.84c-22.81-26.1-44.29-54.06-73.52-73.66-25.77-17.28-56.31-27.15-87.09-34.05-72.7-16.28-148.25-17-222.07-27.93s-149.4-34.14-200.35-85.67c-58.94-59.62-74.54-145.51-113.07-218.46-9.06-17.17-19.91-34.19-36.31-45.55C523.63,228,499.13,224,475.47,221.53c-63.43-6.47-127.58-3.64-191.17-8.89S155.81,193.16,104.85,157s-85-98.17-71.5-157h1492.7Z"/></g></g></g></g></svg>