<svg xmlns="http://www.w3.org/2000/svg" xmlns:xlink="http://www.w3.org/1999/xlink" width="1436.824" height="803.322" viewBox="0 0 1436.824 803.322"><defs><style>.a{opacity:0.078;}.b{fill:url(#a);}.c{opacity:0.316;}</style><linearGradient id="a" y1="0.5" x2="1" y2="0.5" gradientUnits="objectBoundingBox"><stop offset="0.291" stop-color="#2188ff"/><stop offset="0.457" stop-color="#2784fe"/><stop offset="0.732" stop-color="#433efc"/></linearGradient></defs><g transform="translate(-483.177 -2)"><g transform="translate(77.845 2)"><g class="a" transform="translate(405.332 2)"><path class="b" d="M1436.826,793.138c-32.291,19.585-75.857.51-107.064-20.411a757.358,757.358,0,0,1-133.935-114.067c-21.914-23.662-42.544-49-70.622-66.771-24.764-15.66-54.1-24.612-83.663-30.865-69.848-14.751-142.422-15.412-213.339-25.315S684.681,504.762,635.74,458.058c-56.622-54.045-71.614-131.9-108.628-198.026-8.7-15.563-19.127-30.989-34.878-41.291-18.4-12.051-41.94-15.742-64.66-17.932-60.943-5.867-122.567-3.305-183.65-8.057s-123.434-17.657-172.39-50.478S-10.1,53.287,2.848,0H1436.826Z" transform="translate(-0.003)"/></g><g class="c" transform="translate(405.332)"><path class="b" d="M1436.722,757.28c-32.289,18.7-75.852.487-107.057-19.489a749.326,749.326,0,0,1-133.925-108.91c-21.913-22.592-42.541-46.788-70.617-63.752-24.763-14.952-54.094-23.5-83.657-29.47-69.843-14.084-142.412-14.715-213.324-24.17s-143.511-29.548-192.448-74.141c-56.618-51.6-71.609-125.939-108.621-189.073-8.7-14.86-19.126-29.588-34.875-39.424-18.4-11.506-41.937-15.031-64.655-17.122-60.939-5.6-122.558-3.156-183.636-7.693s-123.426-16.859-172.378-48.2S-10.1,50.878,2.848,0H1436.722Z" transform="translate(-0.003)"/></g><g transform="translate(424.438)"><path class="b" d="M1417.721,739.349c-31.862,18.257-74.849.475-105.641-19.027a737.931,737.931,0,0,1-132.154-106.331c-21.623-22.057-41.978-45.681-69.683-62.243-24.435-14.6-53.378-22.943-82.55-28.772-68.92-13.75-140.529-14.367-210.5-23.6s-141.613-28.849-189.9-72.385c-55.869-50.38-70.661-122.957-107.184-184.6-8.588-14.508-18.873-28.887-34.414-38.491-18.154-11.234-41.382-14.675-63.8-16.716-60.133-5.469-120.938-3.081-181.208-7.511s-121.793-16.459-170.1-47.054S-9.965,49.673,2.81,0h1414.91Z" transform="translate(-0.003)"/></g></g></g></svg>