<svg xmlns="http://www.w3.org/2000/svg" xmlns:xlink="http://www.w3.org/1999/xlink" width="1921.155" height="1782.107" viewBox="0 0 1921.155 1782.107"><defs><style>.a{opacity:0.116;}.b{fill:#707070;}.c{fill:url(#a);}</style><linearGradient id="a" x1="0.5" x2="0.5" y2="1" gradientUnits="objectBoundingBox"><stop offset="0" stop-color="#d0deeb"/><stop offset="1" stop-color="#ebebeb"/></linearGradient></defs><g transform="translate(1.155)"><g class="a"><path class="b" d="M-1.155,814.943c46.795-132.963,132.277-239.222,227.567-285,98.6-47.365,204.785-33.593,308.288-31.684s213.448-11.8,297.274-103.132c29.839-32.515,55.278-73.85,86.347-103.662,56.088-53.811,125.62-65.428,192.121-62.583,120.838,5.161,244.6,52.658,360.555,1.248,77.715-34.444,143.866-110.278,215.939-165.923S1846.7-26.513,1920,25.389V1762.108H0Z" transform="translate(0 -0.001)"/></g><g transform="translate(0 20)"><path class="c" d="M-.565,812.284C46.229,679.32,131.122,575.721,226.412,529.944c98.6-47.365,204.785-33.593,308.288-31.684s213.448-11.8,297.274-103.132c29.839-32.515,55.278-73.85,86.347-103.662,56.088-53.811,125.62-65.428,192.121-62.583,120.838,5.161,244.6,52.658,360.555,1.248,77.715-34.444,143.866-110.278,215.939-165.923S1846.7-26.513,1920,25.389V1762.108H0Z" transform="translate(0 -0.001)"/></g></g></svg>