<svg xmlns="http://www.w3.org/2000/svg" xmlns:xlink="http://www.w3.org/1999/xlink" width="804.825" height="663.047" viewBox="0 0 804.825 663.047"><defs><style>.a{isolation:isolate;}.b{fill:#3f3d56;}.c,.u{fill:#fff;}.d{fill:#fa5959;}.d,.e,.f{opacity:0.8;}.e{fill:#fed253;}.f{fill:#8ccf4d;}.g{fill:#ffb8b8;}.h{fill:#2f2e41;}.i{fill:#e0e1f3;}.j{fill:#6fa3d9;}.k{fill:#6c63ff;}.l{fill:#f55f44;}.m,.w{opacity:0.1;}.n{fill:#fda57d;}.o{fill:#333;}.p{fill:#40ac97;}.q{fill:#57c3ad;}.r{fill:#3abba3;}.s{fill:#a8a8a8;}.t{opacity:0.2;}.u{opacity:0.6;}.v{fill:url(#a);}.x{fill:#fbbebe;}.y{fill:#ff6f61;}.z{fill:#575a89;}.aa{fill:#13bc79;}.ab{fill:#28cc8b;}.ac{fill:#e6e6e6;}.ad{fill:#9f616a;}.ae{fill:#403f5e;}.af{fill:#a0616a;}.ag,.am,.ao{fill:none;}.ag{stroke:#1e72c6;stroke-width:4px;}.ag,.ao{stroke-linecap:round;}.ag,.am{stroke-miterlimit:10;}.ah{fill:#4d499e;}.ai{fill:#341079;}.aj{fill:#57b894;}.ak{fill:#72351c;}.al{fill:#fdb797;}.am,.ao{stroke:#333;stroke-width:0.75px;}.an{fill:#858585;}.ao{stroke-linejoin:round;}.ap{fill:#6561ac;}</style><linearGradient id="a" x1="-4.293" y1="-18.282" x2="-4.293" y2="-17.282" gradientUnits="objectBoundingBox"><stop offset="0" stop-color="gray" stop-opacity="0.251"/><stop offset="0.54" stop-color="gray" stop-opacity="0.122"/><stop offset="1" stop-color="gray" stop-opacity="0.102"/></linearGradient></defs><g class="a"><g transform="translate(176.107 123.428)"><path class="b" d="M868.8,235.01H316.368a4.956,4.956,0,0,0-4.918,5v14.564H873.721V240.006A4.962,4.962,0,0,0,868.8,235.01Z" transform="translate(-311.443 -235.01)"/><path class="c" d="M311.44,264.15V591.926A10,10,0,0,0,321.361,602H863.79a10,10,0,0,0,9.922-10.079h0V264.15Z" transform="translate(-311.44 -244.584)"/><ellipse class="d" cx="2.3" cy="2.337" rx="2.3" ry="2.337" transform="translate(6.61 7.299)"/><ellipse class="e" cx="2.3" cy="2.337" rx="2.3" ry="2.337" transform="translate(12.929 7.299)"/><ellipse class="f" cx="2.3" cy="2.337" rx="2.3" ry="2.337" transform="translate(19.255 7.299)"/></g><path class="g" d="M154.364,438.508l1.745-14.168s-3.979-13.268-8.751-12.516,1.262,14.691,1.262,14.691l1.038,6.782Z" transform="translate(-51.283 -135.26)"/><path class="h" d="M49.553,414.925a9.377,9.377,0,0,0,2.155-.725,9.552,9.552,0,0,0,4.455-12.63,9.276,9.276,0,0,0-12.433-4.526,9.322,9.322,0,0,1,11.184,9.293A9.488,9.488,0,0,1,49.553,414.925Z" transform="translate(-16.775 -130.115)"/><path class="i" d="M5.62,346.47a2.693,2.693,0,0,0-2.67,2.713V394.64a2.693,2.693,0,0,0,2.67,2.713H186.031a2.693,2.693,0,0,0,2.67-2.713V349.183a2.693,2.693,0,0,0-2.67-2.713Z" transform="translate(-2.95 -113.798)"/><ellipse class="j" cx="14.033" cy="14.255" rx="14.033" ry="14.255" transform="translate(12.023 243.865)"/><path class="c" d="M90.2,370.21a2.377,2.377,0,0,0,0,4.754H200.453a2.377,2.377,0,0,0,0-4.754Z" transform="translate(-31.735 -121.597)"/><path class="c" d="M90.2,391.44a2.377,2.377,0,0,0,0,4.754H200.453a2.377,2.377,0,0,0,0-4.754Z" transform="translate(-31.735 -128.573)"/><g transform="translate(18.005 246.502)"><path class="k" d="M38.274,403.072A13.805,13.805,0,0,0,46,400.722c-.516-2.874-2.492-3.042-2.492-3.042H32.636s-1.857.154-2.446,2.8A13.836,13.836,0,0,0,38.274,403.072Z" transform="translate(-30.19 -377.125)"/><ellipse class="l" cx="6.788" cy="6.896" rx="6.788" ry="6.896" transform="translate(1.144 4.406)"/><path class="m" d="M38.88,392.46h4.349V396a2.19,2.19,0,0,1-2.175,2.209h0A2.19,2.19,0,0,1,38.88,396h0V392.46Z" transform="translate(-33.136 -375.41)"/><path class="n" d="M39.3,392.21h3.523a.418.418,0,0,1,.416.423h0v3.116a2.19,2.19,0,0,1-2.175,2.209h0a2.19,2.19,0,0,1-2.175-2.209h0v-3.116a.408.408,0,0,1,.41-.423Z" transform="translate(-33.139 -375.328)"/><path class="m" d="M38.89,394.68a6.179,6.179,0,0,0,4.349.013v-.544H38.89Z" transform="translate(-33.139 -375.965)"/><ellipse class="n" cx="6.233" cy="6.332" rx="6.233" ry="6.332" transform="translate(1.699 6.347)"/><ellipse class="l" cx="2.512" cy="2.552" rx="2.512" ry="2.552" transform="translate(5.414 1.734)"/><ellipse class="l" cx="1.646" cy="1.672" rx="1.646" ry="1.672" transform="translate(6.279 0.109)"/><path class="l" d="M39.718,373.947a2.565,2.565,0,0,1-1.309-3.257c-.02.034-.033.074-.053.107a2.569,2.569,0,0,0,1.262,3.371,2.5,2.5,0,0,0,3.318-1.283c.013-.034.033-.074.046-.114A2.489,2.489,0,0,1,39.718,373.947Z" transform="translate(-32.884 -368.258)"/><path class="m" d="M35.47,376.591s2.624,5.419,10.04,2.27l-1.725-2.746L40.725,375Z" transform="translate(-31.98 -369.674)"/><path class="l" d="M35.47,376.471s2.624,5.419,10.04,2.27l-1.725-2.746-3.06-1.115Z" transform="translate(-31.98 -369.634)"/><path class="o" d="M38.54,374.263a30.878,30.878,0,0,1,4.858,0A22.161,22.161,0,0,1,38.54,374.263Z" transform="translate(-33.021 -369.4)"/><path class="l" d="M42.56,367.069a1.689,1.689,0,0,0-.37.027h.093a1.676,1.676,0,0,1,.251,3.317,1.672,1.672,0,0,0,.026-3.344Z" transform="translate(-34.258 -367.067)"/><ellipse class="n" cx="0.582" cy="1.108" rx="0.582" ry="1.108" transform="translate(1.117 11.564)"/><ellipse class="n" cx="0.582" cy="1.108" rx="0.582" ry="1.108" transform="translate(13.583 11.564)"/><path class="l" d="M34.88,377.178l1.216-.638.271,1.021-.74.517Z" transform="translate(-31.78 -370.18)"/></g><g transform="translate(496.721 174.229)"><path class="i" d="M757.074,259.43a2.664,2.664,0,0,0-2.644,2.686V307.09a2.664,2.664,0,0,0,2.644,2.686H935.541a2.664,2.664,0,0,0,2.644-2.686V262.116a2.664,2.664,0,0,0-2.644-2.686Z" transform="translate(-754.43 -259.43)"/><ellipse class="j" cx="13.881" cy="14.1" rx="13.881" ry="14.1" transform="translate(11.898 11.066)"/><path class="c" d="M840.744,282.91a2.35,2.35,0,0,0,0,4.7H949.807a2.35,2.35,0,0,0,0-4.7Z" transform="translate(-782.907 -267.144)"/><path class="c" d="M840.744,303.91a2.35,2.35,0,0,0,0,4.7H949.807a2.35,2.35,0,0,0,0-4.7Z" transform="translate(-782.907 -274.044)"/><path class="i" d="M757.074,374.43a2.664,2.664,0,0,0-2.644,2.686V422.09a2.664,2.664,0,0,0,2.644,2.686H935.541a2.664,2.664,0,0,0,2.644-2.686V377.116a2.664,2.664,0,0,0-2.644-2.686Z" transform="translate(-754.43 -297.213)"/><ellipse class="j" cx="13.881" cy="14.1" rx="13.881" ry="14.1" transform="translate(11.898 88.282)"/><path class="c" d="M840.744,397.91a2.35,2.35,0,0,0,0,4.7H949.807a2.35,2.35,0,0,0,0-4.7Z" transform="translate(-782.907 -304.927)"/><path class="c" d="M840.744,418.91a2.35,2.35,0,0,0,0,4.7H949.807a2.35,2.35,0,0,0,0-4.7Z" transform="translate(-782.907 -311.827)"/><path class="i" d="M757.074,489.43a2.664,2.664,0,0,0-2.644,2.686V537.09a2.664,2.664,0,0,0,2.644,2.686H935.541a2.664,2.664,0,0,0,2.644-2.686V492.116a2.664,2.664,0,0,0-2.644-2.686Z" transform="translate(-754.43 -334.996)"/><ellipse class="j" cx="13.881" cy="14.1" rx="13.881" ry="14.1" transform="translate(11.898 165.499)"/><path class="c" d="M840.744,512.91a2.35,2.35,0,0,0,0,4.7H949.807a2.35,2.35,0,0,0,0-4.7Z" transform="translate(-782.907 -342.711)"/><path class="c" d="M840.744,533.91a2.35,2.35,0,0,0,0,4.7H949.807a2.35,2.35,0,0,0,0-4.7Z" transform="translate(-782.907 -349.61)"/></g><g transform="translate(100.127 378.209)"><path class="p" d="M154.43,590.69c0,34.909,21.562,63.15,48.2,63.15" transform="translate(-154.43 -572.245)"/><path class="q" d="M227.36,653.492c0-35.3,24.06-63.862,53.791-63.862" transform="translate(-179.154 -571.897)"/><path class="r" d="M180.85,595.4c0,33.163,13.749,59.987,30.736,59.987" transform="translate(-163.387 -573.793)"/><path class="p" d="M227.36,644.822c0-45.1,27.808-81.6,62.173-81.6" transform="translate(-179.154 -563.22)"/><path class="s" d="M212.01,683.576s6.835-.208,8.9-1.7,10.51-3.27,11.025-.88,10.265,11.885,2.558,11.952-17.933-1.222-19.988-2.491S212.01,683.576,212.01,683.576Z" transform="translate(-173.95 -601.532)"/><path class="t" d="M234.632,695.421c-7.72.06-17.933-1.222-19.988-2.491-1.567-.974-2.188-4.445-2.393-6.05l-.231.007s.43,5.6,2.492,6.869,12.268,2.558,19.988,2.491c2.221-.013,2.994-.819,2.948-2.021C237.138,694.957,236.292,695.407,234.632,695.421Z" transform="translate(-173.954 -603.848)"/></g><ellipse class="u" cx="0.991" cy="1.007" rx="0.991" ry="1.007" transform="translate(638.008 142.389)"/><path class="v" d="M1033.8,184.887c-.753-4.264-.383-8.856-2.3-12.7a2.846,2.846,0,0,0-.873-1.141,2.98,2.98,0,0,0-1.567-.363c-1.732-.074-3.47-.094-5.215-.047a1.43,1.43,0,0,0-1.309.5.729.729,0,0,0-.066.148c-1.976-2.256-3.5-5.069-5.645-7.158.3-.1.615-.2.925-.289-.026-.208-.066-.423-.112-.624l-.046-.188c-.033-.148-.073-.289-.112-.43s-.046-.134-.066-.208-.086-.269-.132-.4l-.086-.208c-.046-.128-.1-.262-.158-.389s-.053-.128-.086-.188l-.185-.4c0-.054-.053-.107-.079-.161q-.109-.222-.218-.423l-.073-.134-.251-.45-.046-.087c-.1-.168-.2-.342-.3-.5h0c-.839-1.4-1.771-2.76-2.445-4.183-1.2-2.511-1.593-5.338-2.393-8.031s-2.181-5.392-4.594-6.661c-1.143-.6-2.69-1.128-2.8-2.458a2.9,2.9,0,0,1,.251-1.229,16.274,16.274,0,0,1,1.2-2.464c.165-.289.357-.577.542-.853.046-.067.093-.134.146-.208.145-.208.3-.41.456-.611l.192-.248c.159-.188.317-.376.5-.557l.192-.222c.225-.248.462-.5.7-.718a1.638,1.638,0,0,0,.5-.665,1.967,1.967,0,0,0,.04-.786c-.119-2.135.992-4.123,2.221-5.842s2.657-3.351,3.358-5.358c.079-.228.146-.47.205-.7a1.481,1.481,0,0,1,.046-.235c.013-.081.066-.316.1-.47s.026-.188.04-.275.04-.3.053-.443a2.069,2.069,0,0,0,0-.289v-1.45a2.134,2.134,0,0,0-.04-.47c-.04-.154,0-.168-.026-.255-.02-.181-.046-.363-.073-.544v-.181c-.04-.248-.086-.5-.132-.745h0a37.532,37.532,0,0,0-1.349-4.66,16.741,16.741,0,0,0-1.117-2.719c.271-.047.542-.114.82-.188-.172-.322-.443-.7-.595-1.061a27.972,27.972,0,0,0,3.755-8.279,37.286,37.286,0,0,0,.773-6.4,134.953,134.953,0,0,0,.291-19.4v-.255a16.416,16.416,0,0,0,.04-4.183,17.809,17.809,0,0,0-2.307-7.708c-1.421-2.283-3.781-4.3-6.392-4.566a9.389,9.389,0,0,1-1.428,1.343,5.655,5.655,0,0,1-1.659-2.632A14.237,14.237,0,0,0,1016.7,38.632c.026-.235.046-.47.066-.705V35.879a2.251,2.251,0,0,0-.04-.5v-.168a3,3,0,0,0-.066-.5V34.6c-.027-.188-.066-.376-.1-.564v-.06c-.04-.2-.086-.4-.132-.6h0a14.611,14.611,0,0,0-1.553-3.868,14.6,14.6,0,0,0,1.117-4.15c.026-.262.053-.5.066-.772V23.121a14.631,14.631,0,0,0-3.953-9.6,8.688,8.688,0,0,0,.7-1.538h0c.053-.154.106-.309.152-.47h0c.046-.148.086-.3.119-.457v-.04c.033-.141.06-.282.086-.43v-.074c.026-.168.053-.329.073-.5s.033-.349.046-.5V8.276a8.682,8.682,0,0,0-17.325-.4,9.369,9.369,0,0,0,.079,2.719,14.4,14.4,0,0,0-7.906,11.274,15.66,15.66,0,0,0-.086,2.424A14.643,14.643,0,0,0,985.823,31h0v.269c0,.3-.033.6-.033.906a14.575,14.575,0,0,0,5.493,11.468,10.031,10.031,0,0,0,2.776,2.975,11.407,11.407,0,0,1,.443,1.867,5.775,5.775,0,0,1-1.686,4.633c-.324.269-.674.5-.991.759a1.775,1.775,0,0,0-1.025.027c-3.787,1.209-7.41,3.606-9.168,7.279a13.838,13.838,0,0,0-.912,2.592c-.066.107-.145.208-.2.322a37.776,37.776,0,0,0-4.924,11.979,27.614,27.614,0,0,1-1.771,6.412,6.171,6.171,0,0,0-.575,1.3,13.157,13.157,0,0,0-.086,2.1c-.106,1.269-.833,2.4-1.071,3.646-.145.745-.119,1.5-.244,2.256a23.019,23.019,0,0,1-1.368,3.72c-.787,2.2-.773,4.6-1.355,6.869a2.362,2.362,0,0,1-.456,1.007c-.4.45-1.018.551-1.533.839a3.422,3.422,0,0,0-1.534,2.337,10.443,10.443,0,0,0-.046,2.907l.284,3.787q-2.092.635-4.171,1.282l-6.854,2.128a19.931,19.931,0,0,0-5.685,2.437,10.524,10.524,0,0,0-3.583,4.418,22.422,22.422,0,0,0-1.328,5.774,89.177,89.177,0,0,1-3.523,16.269c-.139.41-.284.812-.436,1.222h0c-.146.4-.3.8-.463,1.2l-.106.242q-.188.483-.4.947c-.179.4-.357.806-.549,1.2l16.029,5.459a6.182,6.182,0,0,0,.066.638c.555,4.015.284,8.064.8,12.046a8.283,8.283,0,0,0,.443,1.954,2.787,2.787,0,0,0-.839,1.363,7.423,7.423,0,0,0-.086,2.592q.278,3.062.542,6.137a9.541,9.541,0,0,1,.026,2.256,24.732,24.732,0,0,1-1.382,3.827c-.423,1.3-.4,2.948.654,3.767a2.558,2.558,0,0,0,2.525.228A5.826,5.826,0,0,0,959.608,189c3.232-3.633,4.673-8.561,7.192-12.758a24.461,24.461,0,0,0,1.712-3.042c.344-.812.562-1.679.846-2.511a25,25,0,0,1,1.381-3.277c.3-.6,1.441-2.055,1.2-2.733-.41-1.148-4.812-2.175-5.9-2.511a2.864,2.864,0,0,0-2.155-.1,1.474,1.474,0,0,0-.291.195l-.377-4.935c.654-.06,1.3-.148,1.943-.248-.026-.927-.046-1.86-.066-2.8l-.059-2.572c-.046-2.082-.086-4.17-.145-6.231a34.641,34.641,0,0,0-.225-3.612c-.251-1.84-.8-3.626-.992-5.466a2.006,2.006,0,0,1,.912-.423h0a6.025,6.025,0,0,1,1.553-.054h.41a13.218,13.218,0,0,0,6.491-1.82c2.016-1.074,3.887-2.411,5.9-3.512.245-.134.5-.269.754-.4l.278-.141.469-.235.39-.188.086-.047c1.17-.564,2.353-1.121,3.457-1.739a3.451,3.451,0,0,0,.244.363,2.31,2.31,0,0,0,2.472.906c-1.382,3.4-3.014,6.688-3.431,10.36-.6,5.3,1.481,10.488,3.53,15.39l6.537,15.658c.72,1.732,1.685,3.673,3.457,4.082a5.1,5.1,0,0,0,3.279-.665,59.956,59.956,0,0,0,8.4-5.459.664.664,0,0,1,.106.087c2.472,1.981,4.025,4.761,5.737,7.406l4.587,7.641a2.251,2.251,0,0,0,.185,1.121,6.651,6.651,0,0,0,1.282,1.692,22.135,22.135,0,0,1,5.506,11.455,7.218,7.218,0,0,0,.912,3.129c1.229,1.732,3.847,1.618,5.691.631a3.632,3.632,0,0,0,1.421-1.2,4.739,4.739,0,0,0,.575-1.813,26.075,26.075,0,0,0,.548-4.8C1035.437,190.8,1034.326,187.889,1033.8,184.887ZM1007.516,44.238c.317-.215.621-.45.925-.7a14.485,14.485,0,0,1-2.961,5.116h0c-.311.349-.641.671-.991,1.007v-.235c-.04-.765,0-1.578.026-2.37A10.013,10.013,0,0,0,1007.516,44.238Zm-25.95,58.9a.5.5,0,0,1,.053-.148,3.055,3.055,0,0,1,.668.705,2.843,2.843,0,0,0,.1,2.511c.383.665,1.077,1.276.925,2.008s-1.084,1.047-1.851,1.175c-.985.161-1.976.349-2.968.557v-.054a7.908,7.908,0,0,0-.337-2.484C979.847,106.7,980.9,104.924,981.566,103.138Z" transform="translate(-320.192 0.051)"/><path class="h" d="M1036.306,17.662a8.94,8.94,0,0,0-3.047-12.14,8.647,8.647,0,0,0-11.951,3.1,8.954,8.954,0,0,0-1.157,3.451,9.1,9.1,0,0,0,.079,2.679,14.224,14.224,0,0,0-7.879,11.139,15.2,15.2,0,0,0-.086,2.39,14.372,14.372,0,0,0,4.1,19.7,13.882,13.882,0,0,0,19.393-4.17,14.393,14.393,0,0,0,2.267-7.762v-.678a14.415,14.415,0,0,0-1.712-17.713Z" transform="translate(-344.348 -1.372)"/><g class="w" transform="translate(665.634 10.59)"><path d="M1025.31,16.26l.112-.06a4,4,0,0,0-.066-.47v.094A2.579,2.579,0,0,0,1025.31,16.26Z" transform="translate(-1015.175 -15.723)"/><path d="M1040.166,37.837a14.341,14.341,0,0,1-2.168,6.07v.678a14.009,14.009,0,0,1-27.973,1.128c-.026.383-.046.765-.046,1.162a14.024,14.024,0,1,0,28.039.537c.007-.181.007-.356,0-.537V46.2a14.285,14.285,0,0,0,2.148-6.043,13.938,13.938,0,0,0,.046-2.874A2.652,2.652,0,0,1,1040.166,37.837Z" transform="translate(-1009.976 -22.804)"/><path d="M1050.96,15.72a8.959,8.959,0,0,1-1.15,3.391,6.677,6.677,0,0,1,.7.8,9.438,9.438,0,0,0,.463-1.954A9.751,9.751,0,0,0,1050.96,15.72Z" transform="translate(-1023.48 -15.72)"/></g><path class="x" d="M963.876,244.648a6.668,6.668,0,0,0,.635,2.337,2.538,2.538,0,0,0,1.857,1.383,3.7,3.7,0,0,0,2.049-.6,7.048,7.048,0,0,0,3.193-2.7,7.5,7.5,0,0,0,.436-4.076l-.833-10.857c-2.022-.06-4.052-.054-6.068.054s-2.346.584-2.069,2.572C963.632,236.7,963.361,240.7,963.876,244.648Z" transform="translate(-328.413 -75.562)"/><path class="x" d="M1050.192,256.274l4.806,7.883a1.978,1.978,0,0,0,1.044,1.007,1.616,1.616,0,0,0,.985-.181,12.568,12.568,0,0,0,4.006-3.371,7.615,7.615,0,0,0,1.924-3.015A3.854,3.854,0,0,0,1062,255a12.055,12.055,0,0,0-1.811-1.316c-3.8-2.6-5.513-7.527-9.26-10.219a1.467,1.467,0,0,0-.76-.329,1.5,1.5,0,0,0-.78.269l-5.123,2.854c-2.221,1.229-1.514,1.376.165,2.706C1046.933,250.929,1048.48,253.668,1050.192,256.274Z" transform="translate(-355.491 -79.849)"/><path class="h" d="M973.952,242.286a2.9,2.9,0,0,0-2.155-.1,2.417,2.417,0,0,0-1.124,1.8c-.132.725-.119,1.477-.317,2.182a7.385,7.385,0,0,1-2.1,3.015,3.022,3.022,0,0,1-1.322.927c-.694.181-1.428-.148-2.135,0a2.313,2.313,0,0,0-1.679,1.739,7.047,7.047,0,0,0-.086,2.551l.542,6.056a9.6,9.6,0,0,1,0,2.222,24.31,24.31,0,0,1-1.382,3.774c-.416,1.262-.4,2.907.654,3.72a2.623,2.623,0,0,0,2.532.228,5.909,5.909,0,0,0,2.1-1.618c3.239-3.586,4.68-8.44,7.191-12.576a24.576,24.576,0,0,0,1.725-3.015c.344-.806.562-1.658.839-2.511a25.761,25.761,0,0,1,1.388-3.23c.3-.6,1.441-2.008,1.2-2.7C979.451,243.636,975.042,242.635,973.952,242.286Z" transform="translate(-328.058 -79.478)"/><path class="h" d="M1065.822,263.179a6.189,6.189,0,0,1-3.4,2.968,3.038,3.038,0,0,0-1.143.6,1.864,1.864,0,0,0-.205,2.008,6.516,6.516,0,0,0,1.289,1.659,21.713,21.713,0,0,1,5.519,11.294,7.023,7.023,0,0,0,.912,3.082c1.23,1.706,3.847,1.6,5.7.624a3.646,3.646,0,0,0,1.428-1.175,4.609,4.609,0,0,0,.575-1.786,25.347,25.347,0,0,0,.549-4.74c-.033-3.015-1.143-5.889-1.679-8.85-.754-4.2-.377-8.729-2.3-12.523a2.753,2.753,0,0,0-.879-1.121,3.039,3.039,0,0,0-1.567-.356c-1.738-.074-3.483-.087-5.222-.047a1.427,1.427,0,0,0-1.315.5,1.591,1.591,0,0,0,.2,1.444C1065.353,258.895,1067.1,260.607,1065.822,263.179Z" transform="translate(-361.597 -83.679)"/><path class="h" d="M983.079,153.692a2.755,2.755,0,0,0-.628,3.445c.383.651,1.078,1.256.925,2.008s-1.091,1.034-1.857,1.162a150.179,150.179,0,0,0-19.856,5.1L954.8,167.5a20.259,20.259,0,0,0-5.7,2.411,10.449,10.449,0,0,0-3.589,4.351,22.119,22.119,0,0,0-1.335,5.687c-1.025,7.124-2.34,14.322-5.473,20.781l16.644,5.519a23.747,23.747,0,0,0,4.984,1.276,18.427,18.427,0,0,0,4.858-.235c-.106-3.774-.165-7.661-.271-11.442a32.121,32.121,0,0,0-.225-3.565c-.245-1.806-.8-3.565-.992-5.385.767-.645,1.884-.5,2.875-.457a13.341,13.341,0,0,0,6.5-1.793c2.016-1.061,3.9-2.377,5.929-3.451,3.345-1.8,7.152-3.015,9.7-5.848-1.3,5.022-4.376,9.427-4.944,14.6s1.481,10.34,3.536,15.175l6.551,15.437c.72,1.705,1.686,3.619,3.457,4.015a5.17,5.17,0,0,0,3.292-.658c6.022-2.874,10.873-8.259,17.292-9.984-.5-3.236-2.994-5.915-4.422-8.85-1.2-2.478-1.593-5.257-2.4-7.9s-2.182-5.311-4.6-6.567c-1.144-.591-2.7-1.108-2.809-2.417a2.774,2.774,0,0,1,.258-1.215,15.924,15.924,0,0,1,3.92-5.795,1.773,1.773,0,0,0,.5-.651,1.934,1.934,0,0,0,.04-.779c-.125-2.1.985-4.069,2.221-5.754a21.289,21.289,0,0,0,3.358-5.278c1.2-3.411,0-7.158-1.177-10.569a10.889,10.889,0,0,0-1.976-3.874c-1.54-1.679-3.953-2.155-6.194-2.41C997.363,151.074,988.829,149.14,983.079,153.692Z" transform="translate(-320.178 -49.502)"/><g class="w" transform="translate(618.502 103.982)"><path d="M1043.914,174.492c-1.243,1.692-2.347,3.653-2.221,5.754a1.93,1.93,0,0,1-.04.779,1.8,1.8,0,0,1-.5.658,15.864,15.864,0,0,0-3.92,5.795,2.847,2.847,0,0,0-.258,1.215c.066.819.707,1.329,1.481,1.739a15.777,15.777,0,0,1,2.717-3.364,1.772,1.772,0,0,0,.5-.651,1.941,1.941,0,0,0,.04-.779c-.126-2.1.985-4.069,2.221-5.754a21.3,21.3,0,0,0,3.358-5.278,11.184,11.184,0,0,0,.178-5.976q-.079.292-.178.584A22.357,22.357,0,0,1,1043.914,174.492Z" transform="translate(-971.998 -159.351)"/><path d="M1004.7,156.039a1.39,1.39,0,0,0,1.064-.94,1.059,1.059,0,0,0,0-.289c-.106.081-.2.148-.311.235A2.524,2.524,0,0,0,1004.7,156.039Z" transform="translate(-961.055 -154.81)"/><path d="M960.324,224.261a24.163,24.163,0,0,1-4.984-1.276l-14.694-4.895a45.635,45.635,0,0,1-1.977,4.74l16.644,5.519a23.747,23.747,0,0,0,4.984,1.276,18.425,18.425,0,0,0,4.858-.235c-.046-1.773-.086-3.572-.126-5.372A17.837,17.837,0,0,1,960.324,224.261Z" transform="translate(-938.67 -175.601)"/><path d="M1023.641,237.319a5.133,5.133,0,0,1-3.292.665c-1.778-.41-2.743-2.323-3.457-4.015l-6.55-15.437a44.24,44.24,0,0,1-3.431-10.542c-.04.255-.079.5-.106.765-.6,5.224,1.481,10.34,3.536,15.175l6.55,15.437c.721,1.705,1.686,3.619,3.457,4.015a5.172,5.172,0,0,0,3.292-.658c6.021-2.874,10.873-8.259,17.291-9.984a12.7,12.7,0,0,0-1.976-4.72C1033.464,230.188,1029.035,234.767,1023.641,237.319Z" transform="translate(-961.733 -172.282)"/><path d="M1001.532,179.36c-2.551,2.834-6.359,4.042-9.7,5.842-2,1.081-3.887,2.4-5.929,3.451a13.439,13.439,0,0,1-6.5,1.793c-.985-.027-2.109-.188-2.875.45.159,1.679.635,3.31.912,4.975a8.841,8.841,0,0,1,1.976-.04,13.341,13.341,0,0,0,6.5-1.793c2.016-1.061,3.9-2.377,5.929-3.451,2.2-1.182,4.607-2.115,6.722-3.424A60.444,60.444,0,0,0,1001.532,179.36Z" transform="translate(-951.502 -162.876)"/></g><path class="x" d="M1021.173,72.592a5.579,5.579,0,0,1-1.692,4.559c-.41.349-.886.611-1.282.974a3.557,3.557,0,0,0,.066,4.969,3.613,3.613,0,0,0,.423.356c1.322.826,3,.6,4.528.329a25.973,25.973,0,0,0,5.929-1.578,9.917,9.917,0,0,0,4.693-3.908,5.87,5.87,0,0,1-2.67-4.848c-.106-1.927.423-4.129-.786-5.633s-3.312-1.45-5.063-.947c-.892.248-1.752.591-2.637.839-.449.121-1.943.128-2.234.463C1019.89,68.8,1021.12,71.611,1021.173,72.592Z" transform="translate(-346.797 -21.829)"/><path class="m" d="M1021.173,72.592a5.579,5.579,0,0,1-1.692,4.559c-.41.349-.886.611-1.282.974a3.557,3.557,0,0,0,.066,4.969,3.613,3.613,0,0,0,.423.356c1.322.826,3,.6,4.528.329a25.973,25.973,0,0,0,5.929-1.578,9.917,9.917,0,0,0,4.693-3.908,5.87,5.87,0,0,1-2.67-4.848c-.106-1.927.423-4.129-.786-5.633s-3.312-1.45-5.063-.947c-.892.248-1.752.591-2.637.839-.449.121-1.943.128-2.234.463C1019.89,68.8,1021.12,71.611,1021.173,72.592Z" transform="translate(-346.797 -21.829)"/><ellipse class="x" cx="9.855" cy="10.011" rx="9.855" ry="10.011" transform="translate(669.616 30.633)"/><path class="y" d="M996.906,95.635c-1.124-.128-2.023.927-2.637,1.894a36.864,36.864,0,0,0-4.9,11.811,26.519,26.519,0,0,1-1.778,6.312,6.544,6.544,0,0,0-.575,1.282,12.785,12.785,0,0,0-.086,2.075c-.106,1.249-.833,2.357-1.078,3.592-.145.732-.112,1.5-.244,2.229a22.115,22.115,0,0,1-1.375,3.666c-.787,2.162-.773,4.519-1.355,6.768a2.374,2.374,0,0,1-.463,1.007,5.205,5.205,0,0,1-1.533.826,3.376,3.376,0,0,0-1.533,2.31,10.163,10.163,0,0,0-.053,2.867l.456,5.915c.463-.195.773-.732,1.163-1.061a3.17,3.17,0,0,1,2.67-.3l1.329.242a5.874,5.874,0,0,1,3.708,1.658c.694-1.1.3-2.719,1.362-3.451a10.218,10.218,0,0,1,1.144-.5,2.622,2.622,0,0,0,1.163-2.075,7.745,7.745,0,0,0-.337-2.458c1.705-.725,2.769-2.484,3.457-4.237a35.723,35.723,0,0,0,1.586-6.527c1.533-8.8,2.968-17.659,3.087-26.6a12.868,12.868,0,0,0-.5-4.432C999.074,97,998.373,95.809,996.906,95.635Z" transform="translate(-333.913 -31.383)"/><path class="x" d="M1007.2,177.145a9.339,9.339,0,0,0-.569,3.411,20.071,20.071,0,0,0,.165,3.33,5.4,5.4,0,0,0,.959,2.612,2.329,2.329,0,0,0,2.472.886,2.587,2.587,0,0,0,1.481-1.679,14.921,14.921,0,0,0,.463-2.276c.436-2.276,1.606-4.4,1.633-6.721a1.965,1.965,0,0,0-.126-.806,4.489,4.489,0,0,0-3.543-1.86C1008.848,174.245,1007.665,176.051,1007.2,177.145Z" transform="translate(-343.205 -57.143)"/><path class="m" d="M1035.833,93.94c-.192,2.008,1.7,3.492,2.472,5.338a9.309,9.309,0,0,1,.5,2.686,130.3,130.3,0,0,1-.291,19.136,36.167,36.167,0,0,1-.76,6.312c-1.058,4.358-3.662,8.125-6.213,11.791a10.243,10.243,0,0,1-1.329,1.652,9.748,9.748,0,0,1-2.472,1.5l-8.765,4.331a16.438,16.438,0,0,0-3.107,1.82,8.594,8.594,0,0,0-2.571,3.4c-1.692-.88-3.457-1.672-5.156-2.552-.4-.208-.846-.5-.912-.927-.093-.6.522-1.007.952-1.457a8.948,8.948,0,0,0,1.481-3.015c1.408-3.431,4.944-5.627,6.226-9.112.5-1.336.641-2.847,1.514-3.968a9.709,9.709,0,0,1,1.672-1.5,28.421,28.421,0,0,0,3.695-3.847,6.346,6.346,0,0,0,1.209-1.8,9.17,9.17,0,0,0,.291-3.149c.066-3.471,1.613-6.715,2.558-10.038.892-3.142,1.262-6.446,2.432-9.494S1032.719,94.773,1035.833,93.94Z" transform="translate(-343.406 -30.829)"/><path class="h" d="M1033.825,37.4a13.682,13.682,0,0,0-8.745,1.84,10,10,0,0,1,1.17.087,14.3,14.3,0,0,1,5.387,26.435,14.249,14.249,0,0,0,2.188-28.362Z" transform="translate(-349.462 -12.217)"/><path class="h" d="M1035.536,47.074a6.585,6.585,0,0,1,.106,4.989,5.973,5.973,0,0,0-.225-.6c-1.732-3.921-7.072-5.519-11.924-3.626a9.854,9.854,0,0,0-5.764,5.573c-1.236-3.787,1.276-8.138,5.883-9.951C1028.47,41.534,1033.791,43.152,1035.536,47.074Z" transform="translate(-346.864 -13.977)"/><g class="w" transform="translate(675.598 4.439)"><path d="M1038.151,50.188a8.8,8.8,0,0,0-13.1-10.783,10.005,10.005,0,0,1,1.17.087A14.105,14.105,0,0,1,1038.151,50.188Z" transform="translate(-1025.05 -16.857)"/><path d="M1041.591,34.711A14.211,14.211,0,0,0,1032.2,22.43a13.781,13.781,0,0,0-3.715,1.5,10.007,10.007,0,0,1,1.17.087A14.1,14.1,0,0,1,1041.591,34.711Z" transform="translate(-1026.216 -11.774)"/><path d="M1044.352,13.98a8.593,8.593,0,0,0-5.652-7.42,8.074,8.074,0,0,0-2.241.953,3.613,3.613,0,0,1,.707.047A8.523,8.523,0,0,1,1044.352,13.98Z" transform="translate(-1028.918 -6.56)"/><path d="M1049.092,53.32a14.215,14.215,0,0,1-10.873,15.061,13.888,13.888,0,0,1-3.239,2.652A14.094,14.094,0,0,0,1049.5,57.342a14.631,14.631,0,0,0-.416-4.009Z" transform="translate(-1028.417 -21.923)"/></g><ellipse class="m" cx="57.777" cy="12.029" rx="57.777" ry="12.029" transform="translate(16.877 524.382)"/><path class="z" d="M100.37,500.208l37.049-19.734.615-40.784-12.552.98-4.957,31.552-42.634,8.7Z" transform="translate(-28.355 -144.425)"/><path class="aa" d="M100.37,500.208l37.049-19.734.615-40.784-12.552.98-4.957,31.552-42.634,8.7Z" transform="translate(-28.355 -144.425)"/><path class="h" d="M99.822,605.49l-7.648,61.794-1.864,51,14.482-.013,8.626-52,4.759-52.964Z" transform="translate(-32.566 -198.898)"/><path class="h" d="M90.282,769.09c-1.93,0-2.882,10.79-2.882,12.751s33.8,4.861,36.692-.047-12.559-6.849-12.559-6.849l-9.664-5.875Z" transform="translate(-31.579 -252.642)"/><path class="h" d="M76.56,595.26,90.1,608.971,79.548,667.83l-42.422,49.1L24.56,706.157,59.262,661l.919-36.292c-6.769-11.757-7.04-19.331-7.04-19.331Z" transform="translate(-10.276 -195.537)"/><path class="h" d="M33.542,768.249,33.555,781a71.1,71.1,0,0,1,3.873,6.862c1.937,3.921-3.86,3.928-3.86,3.928-12.546,2.961-17.4-19.593-19.341-24.495s9.644-6.876,9.644-6.876Z" transform="translate(-6.699 -249.8)"/><path class="g" d="M167.5,435.672l3.847-13.738s-1.95-13.731-6.775-13.724-.945,14.711-.945,14.711l.007,6.862Z" transform="translate(-56.92 -134.082)"/><path class="ab" d="M101.981,492.4l39.567-13.785,6.709-40.22L135.7,437.43l-9.617,30.417L82.64,469.868Z" transform="translate(-29.966 -143.683)"/><path class="h" d="M77.708,450a15.928,15.928,0,0,0,10.715-19.66h0A19.844,19.844,0,0,0,68.712,410.36h0a19.846,19.846,0,0,0-19.664,20.023h0a15.726,15.726,0,0,0-.3,3.048,15.188,15.188,0,0,0,15.077,15.282l5.85,1.45A15.445,15.445,0,0,0,77.708,450Z" transform="translate(-18.477 -134.789)"/><ellipse class="h" cx="9.346" cy="9.494" rx="9.346" ry="9.494" transform="translate(20.173 271.831)"/><ellipse class="g" cx="14.482" cy="14.711" rx="14.482" ry="14.711" transform="translate(42.991 286.946)"/><path class="g" d="M93.211,463.81l1.957,16.665-15.447.02-.02-16.672Z" transform="translate(-28.969 -152.35)"/><path class="ab" d="M106.7,490.058c8.7,4.895,1.957,21.574,1.957,21.574l2.974,61.787L96.181,575.4l-30.9-1.92,8.652-34.338s-4.885-48.056-5.856-50.01,6.749-9.817,6.749-9.817l14.628-1.2,4.68,1.168A38.119,38.119,0,0,0,106.7,490.058Z" transform="translate(-24.081 -157.051)"/><path class="h" d="M52.65,434.832l6.775,10.777,10.629,5.868,10.5-18.646,2.584-4.311,2.175,5.533,9.7,2.5a15.009,15.009,0,0,0-6.769-14.57l-9.69-6.171-12.6,2.357Z" transform="translate(-19.799 -136.579)"/><path class="i" d="M373.8,482.78a2.894,2.894,0,0,0,0,5.788H508.106a2.894,2.894,0,0,0,0-5.788Z" transform="translate(-127.706 -158.582)"/><path class="i" d="M376.409,512.1a2.894,2.894,0,0,0,0,5.788H510.716a2.894,2.894,0,0,0,0-5.788Z" transform="translate(-128.59 -168.215)"/><path class="i" d="M372.689,541.42a2.894,2.894,0,0,0,0,5.788H507a2.894,2.894,0,0,0,0-5.788Z" transform="translate(-127.329 -177.848)"/><rect class="i" width="183.663" height="116.181" transform="translate(226.64 179.708)"/><rect class="c" width="33.638" height="22.212" transform="translate(238.955 202.088)"/><rect class="c" width="33.638" height="22.212" transform="translate(280.749 202.088)"/><rect class="c" width="33.638" height="22.212" transform="translate(322.55 202.088)"/><rect class="c" width="33.638" height="22.212" transform="translate(364.344 202.088)"/><rect class="c" width="33.638" height="22.212" transform="translate(238.955 233.525)"/><rect class="c" width="33.638" height="22.212" transform="translate(280.749 233.525)"/><rect class="c" width="33.638" height="22.212" transform="translate(322.55 233.525)"/><rect class="c" width="33.638" height="22.212" transform="translate(364.344 233.525)"/><rect class="c" width="33.638" height="22.212" transform="translate(238.955 264.962)"/><rect class="c" width="33.638" height="22.212" transform="translate(280.749 264.962)"/><rect class="c" width="33.638" height="22.212" transform="translate(322.55 264.962)"/><rect class="c" width="33.638" height="22.212" transform="translate(364.344 264.962)"/><ellipse class="c" cx="5.043" cy="5.123" rx="5.043" ry="5.123" transform="translate(269.697 183.126)"/><ellipse class="c" cx="5.043" cy="5.123" rx="5.043" ry="5.123" transform="translate(353.121 183.126)"/><rect class="ac" width="4.039" height="23.575" transform="translate(272.725 166.037)"/><rect class="ac" width="4.039" height="23.575" transform="translate(356.142 166.037)"/><path class="k" d="M583.34,313.685a7.586,7.586,0,1,1-7.575-7.715,7.566,7.566,0,0,1,6.405,3.585A7.885,7.885,0,0,1,583.34,313.685Z" transform="translate(-194.565 -100.492)"/><path class="c" d="M583.912,310.752l-7.489,7.607c-.469-.739-3.094-4.176-3.094-4.176a11.2,11.2,0,0,1,1.071-.96l2.175,2.948,6.458-6.56A7.04,7.04,0,0,1,583.912,310.752Z" transform="translate(-196.314 -101.687)"/><path class="k" d="M456.87,360.5a7.586,7.586,0,1,1-7.575-7.715,7.566,7.566,0,0,1,6.4,3.586A7.886,7.886,0,0,1,456.87,360.5Z" transform="translate(-151.691 -115.874)"/><path class="c" d="M457.442,357.572l-7.489,7.608c-.469-.739-3.094-4.176-3.094-4.176a11.231,11.231,0,0,1,1.071-.96l2.175,2.948,6.458-6.56A7.031,7.031,0,0,1,457.442,357.572Z" transform="translate(-153.44 -117.07)"/><path class="ab" d="M393.63,360.5a7.586,7.586,0,1,1-7.575-7.715,7.566,7.566,0,0,1,6.4,3.586A7.826,7.826,0,0,1,393.63,360.5Z" transform="translate(-130.252 -115.874)"/><path class="c" d="M394.2,357.572l-7.489,7.608c-.469-.739-3.093-4.176-3.093-4.176a11.224,11.224,0,0,1,1.071-.96l2.175,2.948,6.458-6.56A6.681,6.681,0,0,1,394.2,357.572Z" transform="translate(-132.001 -117.07)"/><g transform="translate(252.981 279.251)"><ellipse class="m" cx="62.755" cy="16.298" rx="62.755" ry="16.298" transform="translate(18.412 351.201)"/><ellipse class="h" cx="22.798" cy="23.158" rx="22.798" ry="23.158" transform="translate(31.783 30.497)"/><path class="ad" d="M430.176,926.778l-4.336,18.881H436.37l4.343-21.4Z" transform="translate(-400.191 -582.881)"/><path class="ad" d="M509.26,928.01v17.619l10.536,1.262V928.01Z" transform="translate(-428.471 -584.112)"/><path class="ad" d="M427.71,629.624s1.236,27.066,2.479,28.953,12.393,28.953,12.393,28.953l5.579-17.626s-8.672-14.477-7.436-22.655a95.72,95.72,0,0,0,.456-18.25Z" transform="translate(-400.825 -485.873)"/><ellipse class="ad" cx="17.351" cy="17.626" rx="17.351" ry="17.626" transform="translate(44.851 43.047)"/><path class="ad" d="M457.449,509.01s.621,25.173-3.715,28.953,24.781.631,24.781.631-6.194-17.626-1.236-21.4S457.449,509.01,457.449,509.01Z" transform="translate(-409.498 -446.451)"/><path class="ae" d="M471.069,548.091s-3.715-6.923-8.672-6.291-21.066,1.887-21.687,3.149-2.479,5.667-3.715,6.923-10.53,3.149-11.151,10.7,22.3,53.495,22.3,53.495-3.1,10.7-2.479,13.214-3.1,10.072-2.479,13.214-9.294,22.03-4.336,46.572v39.649s-16.73,68.6-11.772,73.638,21.687,1.887,24.781,0,16.108-96.924,16.108-96.924l6.193-32.1.621,70.489s-1.236,59.161,3.1,61.048,21.066,2.518,22.3-1.256c.965-2.948,5.7-81.313,7.74-115.657A130.173,130.173,0,0,0,505.2,652.6c-2.578-11.878-6.326-25.837-10.589-31.5-8.057-10.7-13.008-44.685-13.008-44.685l10.53-19.512s-6.194-6.292-9.915-6.292S471.069,548.091,471.069,548.091Z" transform="translate(-400.188 -457.211)"/><path class="h" d="M429.184,566.19l-3.265,2.256s-2.307,40.542-.449,43.053,14.78,1.289,15.758-.927S429.184,566.19,429.184,566.19Z" transform="translate(-399.82 -465.237)"/><path class="ad" d="M508.33,619.833s.621,26.435,4.336,33.989,17.351,39.025,17.351,39.025-.793,34.634,6.108,26.126,2.565-28.644,2.565-28.644l-11.772-46.572s-6.193-20.768-5.579-27.066S508.33,619.833,508.33,619.833Z" transform="translate(-428.156 -481.117)"/><path class="h" d="M517.431,939.04s.621-.5,2.479,1.383,6.815,4.4,6.193,11.327-4.336,8.185-4.336,8.185v-1.887h-1.857V961.2s-3.1,10.072-17.351,3.773a33.08,33.08,0,0,1,0-8.185c.621-3.149.621-18.25,2.479-17.626s6.815,1.256,8.058,3.774S518.052,944.573,517.431,939.04Z" transform="translate(-426.106 -587.717)"/><path class="h" d="M424.175,939.97s-.621-.5-2.479,1.383-6.815,4.4-6.193,11.327,4.336,8.185,4.336,8.185v-1.887H421.7v3.149s3.1,10.072,17.351,3.773a33.086,33.086,0,0,0,0-8.185c-.621-3.149-.621-18.25-2.479-17.626s-6.815,1.256-8.058,3.774S423.553,945.51,424.175,939.97Z" transform="translate(-396.668 -588.022)"/><path class="h" d="M509.985,561.5l8.672,1.887s0,13.845,2.479,19.512,6.815,18.881,4.957,19.512-19.208,9.441-20.444,4.4S501.313,561.5,509.985,561.5Z" transform="translate(-426.717 -463.696)"/><ellipse class="h" cx="22.798" cy="23.158" rx="22.798" ry="23.158" transform="translate(7.082)"/><path class="h" d="M397.251,468.3a22.577,22.577,0,0,0,31.84-5.2,23.243,23.243,0,0,0,3.371-6.956,22.809,22.809,0,1,1-45.245-5.781,24.418,24.418,0,0,1,.767-3.72A23.327,23.327,0,0,0,397.251,468.3Z" transform="translate(-387.036 -425.959)"/><ellipse class="h" cx="16.723" cy="16.988" rx="16.723" ry="16.988" transform="translate(31.783 40.529)"/><ellipse class="h" cx="14.819" cy="11.771" rx="14.819" ry="11.771" transform="translate(47.746 39.374)"/><ellipse class="af" cx="2.816" cy="5.056" rx="2.816" ry="5.056" transform="translate(63.702 58.154)"/></g><g transform="translate(642.161 212.651)"><g transform="translate(8.441)"><path class="j" d="M1213.921,542.275q14.694-35.92,27.036-72.765c2.2-6.544,4.356-13.561,2.661-20.263a17.933,17.933,0,0,0-35.037.861c-1.759-18.365,3.836-36.535,6.105-54.845s.283-39.09-13.176-51.513c-16.484-15.218-47.11-8.664-56.122,12.015-9.058,20.79,2.752,44.385,14.726,63.592s25,41.58,18.2,63.231c-1.412,4.5-3.663,8.757-4.428,13.413-1.522,9.238,3.144,18.643,9.905,25.02S1213.921,542.275,1213.921,542.275Z" transform="translate(-1142.184 -335.412)"/></g><path class="ag" d="M1229.209,693.72s-7.235-211.372-40.969-286.48" transform="translate(-1137.831 -340.752)"/><g transform="translate(0 186.156)"><ellipse class="m" cx="77.363" cy="10.932" rx="77.363" ry="10.932" transform="translate(7.937 215.908)"/><path class="ah" d="M1188.9,713.65h-7.4v63.555s47.767,15.717,94.185,0V713.65Z" transform="translate(-1137.233 -549.689)"/><ellipse class="b" cx="46.418" cy="7.174" rx="46.418" ry="7.174" transform="translate(44.268 157.129)"/><ellipse class="ai" cx="46.418" cy="7.174" rx="46.418" ry="7.174" transform="translate(44.268 157.129)"/><path class="aj" d="M1260.416,624.549c-6.26,43.968-27.71,71.21-27.71,71.21s-11.3-44.061-5.03-88.029,27.711-71.21,27.711-71.21S1266.685,580.572,1260.416,624.549Z" transform="translate(-1141.163 -536.52)"/><path class="aa" d="M1174.405,624.549c11.709,43.968,51.822,71.21,51.822,71.21s21.123-44.061,9.413-88.029-51.821-71.21-51.821-71.21S1162.7,580.572,1174.405,624.549Z" transform="translate(-1136.289 -536.52)"/><path class="aj" d="M1195.986,652.024c25.232,20.4,28.312,51.762,28.312,51.762s-37.834-1.712-63.066-22.114-28.312-51.762-28.312-51.762S1170.745,631.613,1195.986,652.024Z" transform="translate(-1132.92 -543.463)"/></g></g><g transform="translate(514.839 345.772)"><path class="k" d="M789.382,545.626a12.917,12.917,0,0,0,7.225-2.2c-.482-2.686-2.327-2.84-2.327-2.84H784.12s-1.738.148-2.28,2.619A12.89,12.89,0,0,0,789.382,545.626Z" transform="translate(-781.84 -523.347)"/><ellipse class="ak" cx="6.346" cy="6.446" rx="6.346" ry="6.446" transform="translate(1.058 2.155)"/><path class="m" d="M789.94,535.71h4.065v3.3a2.048,2.048,0,0,1-2.029,2.068h-.007a2.046,2.046,0,0,1-2.029-2.061v-3.31Z" transform="translate(-784.586 -521.744)"/><path class="n" d="M790.327,535.48h3.292a.394.394,0,0,1,.39.4v2.907a2.046,2.046,0,0,1-2.029,2.061h0a2.046,2.046,0,0,1-2.029-2.061v-2.907a.379.379,0,0,1,.377-.4Z" transform="translate(-784.589 -521.668)"/><path class="m" d="M789.95,537.787a5.766,5.766,0,0,0,4.065.013v-.51H789.95Z" transform="translate(-784.589 -522.263)"/><ellipse class="n" cx="5.823" cy="5.915" rx="5.823" ry="5.915" transform="translate(1.58 3.968)"/><path class="m" d="M786.76,520.877s2.452,5.063,9.379,2.115l-1.613-2.572-2.855-1.041Z" transform="translate(-783.508 -516.379)"/><path class="ak" d="M786.76,520.767s2.452,5.063,9.379,2.115l-1.613-2.572-2.855-1.041Z" transform="translate(-783.508 -516.342)"/><path class="ak" d="M786.667,518.992a3.373,3.373,0,0,1,.833-1.376c1.144-1.148,3.027-1.39,3.986-2.706a.781.781,0,0,1-.278,1.048.315.315,0,0,1-.066.033,2.9,2.9,0,0,0,2.512-.86,2.082,2.082,0,0,0,1.454,3.284,1.675,1.675,0,0,1-.754,1.4,4.067,4.067,0,0,1-1.52.577C791.281,520.738,785.649,522.2,786.667,518.992Z" transform="translate(-783.435 -514.91)"/><path class="ak" d="M795.873,529.71h-.152l-3.008,2.719a5.339,5.339,0,0,0-5.023,0l-3.153-2.605-.317.04a5.827,5.827,0,1,0,11.653-.154Zm-5.83,3.76c-1.13,0-2.049-.235-2.049-.524s.919-.524,2.049-.524,2.049.235,2.049.524-.919.524-2.049.524Z" transform="translate(-782.647 -519.773)"/><ellipse class="n" cx="0.542" cy="1.034" rx="0.542" ry="1.034" transform="translate(1.031 8.843)"/><ellipse class="n" cx="0.542" cy="1.034" rx="0.542" ry="1.034" transform="translate(12.684 8.843)"/></g><g transform="translate(513.616 267.957)"><path class="k" d="M788.735,429.848a14.325,14.325,0,0,0,8.375-2.726c-.562-3.337-2.7-3.532-2.7-3.532H782.634s-2.016.181-2.644,3.25A14.265,14.265,0,0,0,788.735,429.848Z" transform="translate(-779.99 -407.092)"/><path class="m" d="M789.39,417.53H794.1v4.1a2.468,2.468,0,0,1-2.353,2.565h0a2.464,2.464,0,0,1-2.353-2.565h0v-4.1Z" transform="translate(-783.177 -405.101)"/><path class="al" d="M789.843,417.24h3.814a.471.471,0,0,1,.449.49v3.612a2.468,2.468,0,0,1-2.353,2.565h0a2.464,2.464,0,0,1-2.353-2.565h0V417.73a.461.461,0,0,1,.443-.49Z" transform="translate(-783.18 -405.006)"/><path class="m" d="M789.4,420.108a6.256,6.256,0,0,0,4.713.013v-.631H789.4Z" transform="translate(-783.18 -405.745)"/><ellipse class="al" cx="6.749" cy="7.352" rx="6.749" ry="7.352" transform="translate(1.831)"/><ellipse class="al" cx="0.628" cy="1.282" rx="0.628" ry="1.282" transform="translate(1.342 5.754)"/><ellipse class="al" cx="0.628" cy="1.282" rx="0.628" ry="1.282" transform="translate(14.535 5.754)"/><path class="am" d="M787.332,410.02h1.719a.608.608,0,0,1,.582.638v.3a.616.616,0,0,1-.582.638h-1.719a.608.608,0,0,1-.582-.638v-.3A.616.616,0,0,1,787.332,410.02Z" transform="translate(-782.282 -402.634)"/><path class="am" d="M797.14,411.6h-1.719a.608.608,0,0,1-.582-.638v-.3a.616.616,0,0,1,.582-.638h1.719a.608.608,0,0,1,.582.638v.3A.616.616,0,0,1,797.14,411.6Z" transform="translate(-785.024 -402.634)"/><path class="am" d="M790.95,410.132a3.367,3.367,0,0,1,2.618,0" transform="translate(-783.706 -402.591)"/><path class="an" d="M800.04,402.04l1.659,4.19C801.693,406.23,803.722,403.45,800.04,402.04Z" transform="translate(-786.787 -400.012)"/><line class="ao" y1="2.411" x2="2.472" transform="translate(12.698 5.768)"/><path class="an" d="M784.785,402.04l-1.659,4.19S781.1,403.45,784.785,402.04Z" transform="translate(-780.865 -400.012)"/><line class="ao" x1="2.505" y1="2.411" transform="translate(1.963 5.768)"/></g><g transform="translate(513.589 191.929)"><path class="o" d="M795.982,294.512c0,4.821-3.411,7.191-7.833,7.191s-8.19-2.37-8.19-7.191,3.589-8.722,8.011-8.722S795.982,289.684,795.982,294.512Z" transform="translate(-779.953 -285.79)"/><path class="k" d="M788.14,315.636a14.024,14.024,0,0,0,7.839-2.384c-.522-2.914-2.525-3.082-2.525-3.082H782.429s-1.884.154-2.479,2.84A14.1,14.1,0,0,0,788.14,315.636Z" transform="translate(-779.95 -293.8)"/><path class="m" d="M788.757,304.86h4.409v3.586a2.224,2.224,0,0,1-2.2,2.243h-.007a2.225,2.225,0,0,1-2.208-2.243l.007-3.586Z" transform="translate(-782.933 -292.055)"/><path class="n" d="M789.17,304.62h3.569a.429.429,0,0,1,.423.43v3.156a2.225,2.225,0,0,1-2.208,2.243h-.007a2.225,2.225,0,0,1-2.208-2.243V305.05a.435.435,0,0,1,.43-.43Z" transform="translate(-782.93 -291.977)"/><path class="m" d="M788.77,307.127a6.269,6.269,0,0,0,4.409.013v-.551H788.77Z" transform="translate(-782.94 -292.624)"/><ellipse class="n" cx="6.319" cy="6.419" rx="6.319" ry="6.419" transform="translate(1.725 1.961)"/><path class="m" d="M781.1,295.26a11.275,11.275,0,0,0,6.914-4.364s3.94,4.4,6.683,3.915a2.451,2.451,0,0,0,0-3.391c-1.593-1.7-2.823-3.834-4.931-3.552s-4.693.4-5.8,1.417S781.1,295.26,781.1,295.26Z" transform="translate(-780.34 -286.464)"/><path class="o" d="M781.1,295.15a11.275,11.275,0,0,0,6.914-4.364s3.94,4.4,6.683,3.915a2.451,2.451,0,0,0,0-3.391c-1.593-1.7-2.823-3.834-4.931-3.552s-4.686.4-5.8,1.417S781.1,295.15,781.1,295.15Z" transform="translate(-780.34 -286.428)"/><ellipse class="n" cx="0.588" cy="1.121" rx="0.588" ry="1.121" transform="translate(1.13 7.252)"/><ellipse class="n" cx="0.588" cy="1.121" rx="0.588" ry="1.121" transform="translate(13.775 7.252)"/></g><g transform="translate(357.986 172.423)"><ellipse class="m" cx="18.514" cy="6.506" rx="18.514" ry="6.506" transform="translate(78.585 344.75)"/><ellipse class="m" cx="18.514" cy="6.506" rx="18.514" ry="6.506" transform="translate(154.057 344.75)"/><g transform="translate(0 106.929)"><path class="i" d="M544.745,531.54a1.922,1.922,0,0,0,.82,2.565l27.96,14.517a1.864,1.864,0,0,0,2.525-.833L633.655,433.28a1.922,1.922,0,0,0-.82-2.565L604.875,416.2a1.864,1.864,0,0,0-2.525.833Z" transform="translate(-544.54 -415.99)"/><ellipse class="j" cx="9.849" cy="10.005" rx="9.849" ry="10.005" transform="translate(56.144 14.006)"/><path class="c" d="M566.536,547.393a.007.007,0,0,1-.007.007,1.684,1.684,0,0,0,.721,2.243,1.633,1.633,0,0,0,2.208-.732l35.2-69.979a1.683,1.683,0,0,0-.714-2.243,1.625,1.625,0,0,0-2.208.725Z" transform="translate(-551.934 -435.872)"/><path class="c" d="M579.8,554.172a1.681,1.681,0,0,0,.714,2.243,1.63,1.63,0,0,0,2.208-.725l35.2-69.979V485.7a1.678,1.678,0,0,0-.721-2.243,1.628,1.628,0,0,0-2.208.732Z" transform="translate(-556.432 -438.098)"/></g><g transform="translate(71.989)"><path class="h" d="M711.356,592.69l-3.953,7.849s-6.835-2.142-5.2,4.076a105.992,105.992,0,0,0,19.618-1.2s2.736.967,3.2-.7-1.686-7.312-3.3-7.231S711.356,592.69,711.356,592.69Z" transform="translate(-669.892 -367.116)"/><path class="h" d="M761.867,586.064s-3.847,10.038-2.214,10.508,16.26,1.967,17.358,2.464,6.5.786,6.888-2.518-2.889-4.244-2.889-4.244-5.962-.812-7.833-6.2C771.326,580.692,761.867,586.064,761.867,586.064Z" transform="translate(-689.318 -364.156)"/><path class="h" d="M763.766,421.19v20H690.085V422.412H687.95V662.026h2.135v-42.9h73.681v42.9H765.9V421.19Zm0,22.165v32.982H690.085V443.355Zm-73.681,103.3V513.669h73.681v32.982Zm73.681,2.169V581.8H690.085V548.819ZM690.085,511.5V478.512h73.681V511.5Zm0,105.458V583.97h73.681v32.988Z" transform="translate(-665.147 -310.77)"/><path class="g" d="M776.8,282.859v-8.138s-8.851-17.981-1.685-17.981,8.011,16.269,8.011,16.269v11.562Z" transform="translate(-693.747 -256.74)"/><path class="g" d="M660.635,421.981s-4.634-2.572-5.48,0-3.371,8.138,0,8.561,6.742-2.572,6.742-2.572Z" transform="translate(-653.451 -310.654)"/><path class="ai" d="M698.4,446.618s-2.538,3.4,1.143,36.628,1.56,57.409,8.553,57.073c0,0-1.824,7.2,4.118,7.467s8.652.685,9.115-.98,1.183-9.36-.43-9.286c0,0,.1,2.182.773-6.607s-1.236-50.305,1.2-55.9l9.531,19.8s.43,9.286,2.241,13.577,5.658,29.3,5.658,29.3l-.363,3.847s13.008,1.571,13.445-.638.284-5.486-.3-6.553-.588-1.068.39-3.3a6.7,6.7,0,0,0,.284-5.486c-.615-1.612-2.247-37.118-2.247-37.118s-3.06-43.1-9.611-44.981S698.4,446.618,698.4,446.618Z" transform="translate(-668.401 -317.948)"/><ellipse class="g" cx="11.257" cy="11.435" rx="11.257" ry="11.435" transform="translate(24.793 24.367)"/><path class="g" d="M699.02,316.639s2.961,15.652,1.778,18.66,16.591-1.2,16.591-1.2-3.556-15.652-2.961-19.264S699.02,316.639,699.02,316.639Z" transform="translate(-668.9 -275.418)"/><path class="h" d="M700.887,288.969a6.236,6.236,0,0,0-2.816.128,7.289,7.289,0,0,0-2,1.336,23.248,23.248,0,0,1-3.424,2.3,8.155,8.155,0,0,0-2.664,1.893,5.87,5.87,0,0,0-.754,1.444,17.566,17.566,0,0,0-.9,9.427,4.451,4.451,0,0,0,.4,1.3c.615,1.155,1.976,1.6,3.12,2.209,2.175,1.148,3.827,3.082,5.612,4.787a10.888,10.888,0,0,0,2.214,1.732c2.545,1.41,5.658.947,8.514.45a1.548,1.548,0,0,0,1.534-1.565V314.4l2.254-10.307a16.954,16.954,0,0,0,.575-4.687,13.443,13.443,0,0,0-3.3-7.742C707.153,289.594,703.637,289.265,700.887,288.969Z" transform="translate(-665.181 -267.295)"/><path class="ah" d="M688.662,343.3s.846-6,5.9-6.426a41.02,41.02,0,0,0,8.428-1.712c.423,0,5.9.43,8.428,2.995,0,0,1.685,2.572,2.532.859s.846-2.572,2.531-1.712,1.686-2.572,4.634-2.142,10.536,19.694,10.536,19.694l-2.532,2.995s-3.371,23.118,2.532,32.968,8.428,20.553,2.532,22.7-47.208,21.406-45.523,9.421.423-30.826-1.262-31.256-10.959-34.251-10.959-34.251a13.279,13.279,0,0,1,7.588-9.85C690.77,344.582,688.662,343.3,688.662,343.3Z" transform="translate(-661.245 -282.493)"/><path class="ap" d="M740.84,322.646l2.109-1.712s3.794,0,4.217-.859,2.532-.859,4.217-1.712-.423-2.142,1.686-2.995,2.109,0,2.109-2.142,5.48-4.284,5.9-6.849,4.633-14.557,4.633-14.557l8.011,2.572-2.108,15.416s0,7.708-3.794,12.845-12.222,17.981-16.439,18.411S740.84,322.646,740.84,322.646Z" transform="translate(-683.077 -268.266)"/><path class="ap" d="M674.419,365.15l-2.531,2.142s-.846,9.421-.846,9.85.846,5.566,0,6-2.532,8.991-2.109,9.42h0v1.282l-5.9,9.42v8.991l13.907-8.991s8.011-.859,6.742-8.138C682.43,387.845,674.419,365.15,674.419,365.15Z" transform="translate(-656.699 -292.358)"/></g></g><g transform="translate(417.653 297.769)"><path class="k" d="M654.329,456.124a10.6,10.6,0,0,0,1.362-5.875c-2-.718-2.829.5-2.829.5L648.87,457.8a2.321,2.321,0,0,0,.866,2.612A10.4,10.4,0,0,0,654.329,456.124Z" transform="translate(-639.536 -445.589)"/><ellipse class="o" cx="5.004" cy="5.083" rx="5.004" ry="5.083" transform="translate(0.529 0.168)"/><path class="m" d="M647.43,455.12l1.6-2.82h0l2.221,1.3a1.641,1.641,0,0,1,.588,2.223h0a1.588,1.588,0,0,1-2.188.6h0l-2.221-1.3Z" transform="translate(-639.088 -446.337)"/><path class="al" d="M647.479,454.816l1.3-2.283a.3.3,0,0,1,.416-.114h0l1.957,1.141a1.641,1.641,0,0,1,.588,2.222h0a1.587,1.587,0,0,1-2.188.6h0l-1.957-1.141a.312.312,0,0,1-.112-.423Z" transform="translate(-639.091 -446.363)"/><path class="m" d="M648.847,455.922a4.67,4.67,0,0,0,1.606-2.82l-.344-.2-1.6,2.82Z" transform="translate(-639.455 -446.535)"/><ellipse class="al" cx="4.594" cy="4.667" rx="4.594" ry="4.667" transform="translate(1.804 1.088)"/><path class="m" d="M636.54,450.351s4.369.282,5.116-5.681l-2.36.107-1.824,1.571Z" transform="translate(-635.396 -443.831)"/><path class="o" d="M636.47,450.31s4.369.282,5.116-5.681l-2.36.107-1.824,1.571Z" transform="translate(-635.373 -443.817)"/><path class="o" d="M635.663,449.792a2.792,2.792,0,0,1-.6-1.121c-.324-1.249.251-2.646-.251-3.834a.6.6,0,0,1,.595.6v.06a2.356,2.356,0,0,0,.41-2.081,1.6,1.6,0,0,0,2.776.275,1.323,1.323,0,0,1,.641,1.074,3.409,3.409,0,0,1-.2,1.283C638.657,447.274,637.428,451.753,635.663,449.792Z" transform="translate(-634.81 -443.42)"/><ellipse class="al" cx="0.435" cy="0.803" rx="0.435" ry="0.803" transform="matrix(0.499, -0.867, 0.867, 0.499, 3.178, 9.768)"/><ellipse class="al" cx="0.435" cy="0.803" rx="0.435" ry="0.803" transform="matrix(0.499, -0.867, 0.867, 0.499, 7.761, 1.681)"/></g><path class="aa" d="M996.906,95.635c-1.124-.128-2.023.927-2.637,1.894a36.864,36.864,0,0,0-4.9,11.811,26.519,26.519,0,0,1-1.778,6.312,6.544,6.544,0,0,0-.575,1.282,12.785,12.785,0,0,0-.086,2.075c-.106,1.249-.833,2.357-1.078,3.592-.145.732-.112,1.5-.244,2.229a22.115,22.115,0,0,1-1.375,3.666c-.787,2.162-.773,4.519-1.355,6.768a2.374,2.374,0,0,1-.463,1.007,5.205,5.205,0,0,1-1.533.826,3.376,3.376,0,0,0-1.533,2.31,10.163,10.163,0,0,0-.053,2.867l.456,5.915c.463-.195.773-.732,1.163-1.061a3.17,3.17,0,0,1,2.67-.3l1.329.242a5.874,5.874,0,0,1,3.708,1.658c.694-1.1.3-2.719,1.362-3.451a10.218,10.218,0,0,1,1.144-.5,2.622,2.622,0,0,0,1.163-2.075,7.745,7.745,0,0,0-.337-2.458c1.705-.725,2.769-2.484,3.457-4.237a35.723,35.723,0,0,0,1.586-6.527c1.533-8.8,2.968-17.659,3.087-26.6a12.868,12.868,0,0,0-.5-4.432C999.074,97,998.373,95.809,996.906,95.635Z" transform="translate(-333.913 -31.383)"/><path class="ab" d="M1028.639,81.38a12.343,12.343,0,0,1-6,3.512,35.991,35.991,0,0,1-6.921,1.041,4.3,4.3,0,0,1-2.142-.188,1.505,1.505,0,0,1-.892-1.779,2.2,2.2,0,0,0,.225-.665c0-.6-.892-.658-1.481-.477-3.794,1.188-7.41,3.545-9.181,7.164a22.216,22.216,0,0,0-1.633,6.6c-.82,5.936-1.646,12-.535,17.881.588,3.136,1.725,6.2,1.791,9.394.04,1.793-.258,3.572-.245,5.365a2.74,2.74,0,0,0,.463,1.766c.271.322.688.524.872.906.317.631-.106,1.5.311,2.075.5.7,1.593.195,2.3-.3a18.114,18.114,0,0,1,12.2-3.122c5.163.564,10.292,3.357,15.315,1.961a7.656,7.656,0,0,1-.667-1.209c-2.472-8.339-2.327-17.652,1.408-25.495,1.282-2.679,2.968-5.237,3.457-8.165a15.525,15.525,0,0,0,.046-4.143,17.365,17.365,0,0,0-2.313-7.6C1033.61,83.629,1031.263,81.642,1028.639,81.38Z" transform="translate(-340.806 -26.703)"/><path class="aa" d="M1037.174,88.794c-.192,2.008,1.905,2.506,2.679,4.353.3.866.638,7.8.671,8.71a130.349,130.349,0,0,1-.291,19.136,36.074,36.074,0,0,1-.774,6.3c-1.057,4.358-3.662,8.125-6.213,11.791a10.245,10.245,0,0,1-1.328,1.652,9.756,9.756,0,0,1-2.472,1.5l-8.745,4.3a16.428,16.428,0,0,0-3.107,1.82,8.594,8.594,0,0,0-2.571,3.4c-1.692-.88-3.457-1.672-5.156-2.551-.4-.208-.846-.5-.912-.927-.093-.6.522-1.007.952-1.457a8.946,8.946,0,0,0,1.48-3.015c1.408-3.431,4.944-5.627,6.227-9.112.5-1.336.641-2.847,1.514-3.968a9.7,9.7,0,0,1,1.672-1.5,28.876,28.876,0,0,0,3.7-3.847,6.463,6.463,0,0,0,1.2-1.8,9.17,9.17,0,0,0,.291-3.149c.066-3.471,1.613-6.715,2.558-10.038.892-3.142,1.262-6.446,2.432-9.494S1034.06,89.627,1037.174,88.794Z" transform="translate(-343.992 -30.723)"/></g></svg>