<svg xmlns="http://www.w3.org/2000/svg" xmlns:xlink="http://www.w3.org/1999/xlink" width="617.847" height="478.647" viewBox="0 0 617.847 478.647"><defs><style>.a{fill:#fff;}.b,.f{fill:none;}.b{stroke:#707070;stroke-width:3px;}.c,.n{fill:#3f3d56;}.d{fill:#e0e1f3;}.e{clip-path:url(#c);}.f{stroke:#fff;stroke-miterlimit:10;stroke-width:4px;}.g{fill:#0081f9;}.h{fill:#605d82;}.i{fill:#2f2e41;}.j{opacity:0.1;}.k{fill:#fbbebe;}.l{fill:#28cc8b;}.m{fill:#46455b;}.n{opacity:0.247;}.o{filter:url(#a);}</style><filter id="a" x="0" y="19.072" width="617.847" height="392.038" filterUnits="userSpaceOnUse"><feOffset dx="10" dy="10" input="SourceAlpha"/><feGaussianBlur stdDeviation="12.5" result="b"/><feFlood flood-opacity="0.161"/><feComposite operator="in" in2="b"/><feComposite in="SourceGraphic"/></filter><clipPath id="c"><path d="M0,0,175.87.2l.375,331.4L.375,331.4Z" transform="translate(0 174.57) rotate(-82.108)"/></clipPath></defs><g transform="translate(27.5)"><g class="o" transform="matrix(1, 0, 0, 1, -27.5, 0)"><rect class="a" width="542.847" height="317.038" transform="translate(27.5 46.57)"/></g><line class="b" x2="15.389" transform="translate(20.266 72.877)"/><line class="b" x2="15.389" transform="translate(20.266 80.417)"/><rect class="c" width="194.365" height="346.31" transform="translate(126.696 328.907) rotate(-90)"/><g transform="translate(111.906 143) rotate(-7)"><rect class="d" width="177.316" height="331.45" transform="matrix(0.122, -0.993, 0.993, 0.122, 1.034, 178.766)"/><g transform="translate(0 0)"><g class="e" transform="translate(0 0)"><path class="f" d="M67.106,11.465,200.362,230.519l81.063,11.143,141.529-81.6L311.231,13.61,113.216,218.539,0,176.352,202.282,0,367.215,253.454" transform="translate(-63.718 -13.945)"/></g></g></g><path class="g" d="M87.76,3A80.2,80.2,0,0,0,7.5,83.26c0,60.2,80.26,149.055,80.26,149.055s80.26-88.859,80.26-149.055A80.2,80.2,0,0,0,87.76,3Zm0,108.925A28.664,28.664,0,1,1,116.425,83.26,28.675,28.675,0,0,1,87.76,111.925Z" transform="translate(195.239 -5.278) rotate(19)"/><g transform="translate(168.468 151.542)"><path class="h" d="M458.638,520.065h-5.974a4.949,4.949,0,0,1-4.944-4.944V498.23h10.918l4.39,16.088a4.562,4.562,0,0,1-3.19,5.589,4.316,4.316,0,0,1-1.2.158Z" transform="translate(-381.233 -215.948)"/><path class="i" d="M434.563,372.635s-12.151,42.279-12.682,60.777-2.648,48.094-1.052,55.493,6.347,22.2,6.347,22.2,10.046-12.151,13.746-5.283c0,0-.532-14.266-3.168-18.5,0,0,1.052-22.2,1.052-30.128s13.214-44.395,14.267-44.926,4.231,10.046,1.584,33.3S449.9,509.519,449.9,513.75s6.347,12.682,10.567,10.046,6.867-25.376,6.867-25.376,3.7-47.562,5.815-52.846,13.214-66.06,4.752-70.823S434.563,372.635,434.563,372.635Z" transform="translate(-384.842 -232.543)"/><path class="h" d="M443.033,495.217c-.532,2.116-2.647,12.151-2.647,15.33s2.116,8.983-6.867,11.1c-8.757,2.059-7.479-3.405-8.87-6.619-.034-.079-.079-.17-.113-.249-1.584-3.168,2.116-19.55,2.648-19.55.305,0,2.806-4.2,4.819-7.659a5.627,5.627,0,0,1,7.659-2.1,5.471,5.471,0,0,1,1.063.781,8.611,8.611,0,0,1,2.625,6.234A10.66,10.66,0,0,1,443.033,495.217Z" transform="translate(-384.33 -217.721)"/><path class="j" d="M442.975,494.516c-.532,2.116-2.647,12.151-2.647,15.33s2.116,8.983-6.867,11.1c-8.757,2.059-7.478-3.405-8.87-6.618,1.516-3.937,5.2-12.411,7.807-19.81,2.308-6.528,7.965-4.4,10.884-2.749A10.2,10.2,0,0,1,442.975,494.516Z" transform="translate(-384.271 -217.02)"/><ellipse class="k" cx="11.099" cy="11.099" rx="11.099" ry="11.099" transform="translate(62.935 35.973)"/><path class="k" d="M446.634,292.22l-1.584,17.446,19.03,3.168s-2.116-15.33-.532-18.5S446.634,292.22,446.634,292.22Z" transform="translate(-381.583 -243.033)"/><path class="l" d="M464.194,304.422s-15.851-1.584-16.914,0a9.018,9.018,0,0,0-1.052,4.231s-6.347,2.648-7.4,1.584-2.116-4.231-5.284-3.168-9.515,20.082-9.515,20.082,1.584-5.815,4.231,16.382,2.116,35.943,2.647,37.527-2.647,11.1,16.382,11.1,32.764-1.052,32.764-4.752-3.168-19.55,0-31.18,7.931-27.481,7.931-27.481l-6.347-20.613s-6.347-1.584-7.931,1.052-5.815,2.116-5.815,2.116S467.361,304.954,464.194,304.422Z" transform="translate(-384.345 -241.5)"/><path class="l" d="M438.246,312.85l-13.214-5.815s-24.845-19.03-23.781-35.943c0,0-8.451-7.931-8.983.532s2.116,27.481,8.451,33.828S428.732,331.88,431.9,332.4C435.078,332.943,438.246,312.85,438.246,312.85Z" transform="translate(-388.526 -246.229)"/><path class="k" d="M393.747,275.182S383.7,247.7,392.695,248.753s6.867,12.683,6.867,12.683v13.746Z" transform="translate(-388.953 -248.724)"/><path class="l" d="M473.07,313.79l13.214-5.815s24.845-19.03,23.781-35.943c0,0,8.451-7.931,8.983.532s-2.116,27.481-8.451,33.828-28.013,26.429-31.181,26.949S473.07,313.79,473.07,313.79Z" transform="translate(-377.902 -246.105)"/><path class="k" d="M513.481,276.122s10.047-27.481,1.052-26.429-6.867,12.683-6.867,12.683v13.746Z" transform="translate(-373.386 -248.6)"/><path class="m" d="M464.372,279.189l1.584-1.052s-10.046-5.815-14.266-2.647-5.284,5.815-6.347,6.867-3.7,6.867-2.116,8.983,1.052,2.546,2.116,4.446-1.844,9.526,6.211,11.789,14.4-7.252,15.454-9.368S471.772,281.837,464.372,279.189Z" transform="translate(-381.888 -245.332)"/><ellipse class="n" cx="53.075" cy="14.78" rx="53.075" ry="14.78" transform="translate(12.617 297.545)"/></g></g></svg>