<svg xmlns="http://www.w3.org/2000/svg" width="33.25" height="26.941" viewBox="0 0 33.25 26.941"><defs><style>.a{fill:#2880fb;stroke:#2880f9;stroke-width:0.5px;}</style></defs><g transform="translate(0.25 -0.706)"><g transform="translate(0 0.956)"><path class="a" d="M30.7,49.277h-.682V45.972a3.364,3.364,0,0,0-3.411-3.305H6.141a3.364,3.364,0,0,0-3.411,3.305v3.305H2.047A2.018,2.018,0,0,0,0,51.26V64.481a2.018,2.018,0,0,0,2.047,1.983h.682v1.983a.672.672,0,0,0,.682.661H8.87a.672.672,0,0,0,.682-.661V66.464H23.2v1.983a.672.672,0,0,0,.682.661h5.458a.672.672,0,0,0,.682-.661V66.464H30.7a2.018,2.018,0,0,0,2.047-1.983V51.26A2.018,2.018,0,0,0,30.7,49.277ZM4.094,45.972a2.018,2.018,0,0,1,2.047-1.983H26.609a2.018,2.018,0,0,1,2.047,1.983v3.305h-.682a2.018,2.018,0,0,0-2.047,1.983v4.627H6.823V51.26a2.018,2.018,0,0,0-2.047-1.983H4.094ZM25.927,57.21v2.644H6.823V57.21ZM8.188,67.786H4.094V66.464H8.188Zm20.469,0H24.562V66.464h4.094Zm2.729-3.305a.672.672,0,0,1-.682.661H2.047a.672.672,0,0,1-.682-.661V51.26a.672.672,0,0,1,.682-.661H4.776a.672.672,0,0,1,.682.661v9.254a.672.672,0,0,0,.682.661H26.609a.672.672,0,0,0,.682-.661V51.26a.672.672,0,0,1,.682-.661H30.7a.672.672,0,0,1,.682.661Z" transform="translate(0 -42.667)"/></g></g></svg>