<svg xmlns="http://www.w3.org/2000/svg" width="23.651" height="49.358" viewBox="0 0 23.651 49.358"><defs><style>.a{fill:#8e8f8d;}</style></defs><g transform="translate(-652.042 -882.792)"><g transform="translate(652.042 882.792)"><path class="a" d="M141.65,65.358h21.2a.587.587,0,0,0,.567-.629V42.352a44.327,44.327,0,0,0-2.141-13.7h.235a.572.572,0,0,0,.569-.61v-3a.567.567,0,0,0-.569-.6h-1.59V22.273H164a.666.666,0,0,0,.65-.64v-5A.656.656,0,0,0,164,16H146.531a.609.609,0,0,0-.6.629v.4h-1.042a2.119,2.119,0,1,0,0,4.216h1.042v.389a.619.619,0,0,0,.6.64h3.506c-.091,1.131-.584,3.965-3.176,5.226a.612.612,0,0,0,.271,1.163.6.6,0,0,0,.27-.052c3.242-1.578,3.789-5,3.875-6.337H155.6v2.159H154a.642.642,0,0,0-.658.6v3a.648.648,0,0,0,.658.61h.473v2.5a4.649,4.649,0,0,1-3.341,4.421,14.2,14.2,0,0,0-7.251,4.984A13.934,13.934,0,0,0,141,49.047V64.729A.656.656,0,0,0,141.65,65.358Zm3.243-45.348c-.66,0-1.1-.345-1.1-.874s.443-.874,1.1-.874h1.042V20.01Zm2.276-2.776h16.247v3.8H147.17Zm9.666,5.039h1.851v2.159h-1.851Zm-2.262,3.393h6.273v1.748h-6.273ZM142.234,49.047a12.706,12.706,0,0,1,2.623-7.745,12.944,12.944,0,0,1,6.611-4.547A5.9,5.9,0,0,0,155.7,31.15v-2.5h4.262a42.45,42.45,0,0,1,2.216,13.7V64.124H142.234Z" transform="translate(-141 -16)"/></g></g></svg>