<svg xmlns="http://www.w3.org/2000/svg" width="31.081" height="31.081" viewBox="0 0 31.081 31.081"><defs><style>.a{fill:#fff;}.a,.b{fill-rule:evenodd;}.b{fill:#0077a6;}</style></defs><g transform="translate(0.001 0)"><path class="a" d="M0,0H31.081V31.081H0Z" transform="translate(-0.001 0)"/><path class="b" d="M4.782,39.894H4.693c0-.044-.022-.111-.022-.134s0-.066-.067-.066H4.47v.2H4.4v-.467h.2c.089,0,.156.022.156.111a.13.13,0,0,1-.044.111.116.116,0,0,1,.044.089v.089c0,.022,0,.022.022.022v.044Zm-.089-.333c0-.067-.045-.067-.067-.067H4.47v.134H4.6C4.648,39.627,4.693,39.6,4.693,39.56Zm.378.089a.5.5,0,0,0-.512-.489.494.494,0,0,0-.489.489.5.5,0,1,0,1,0Zm-.067,0a.428.428,0,0,1-.445.423.409.409,0,0,1-.423-.423.422.422,0,0,1,.423-.423A.442.442,0,0,1,5,39.649Zm27.4-8.986c0,.667-.423.978-1.179.978H29.784v-.667H31.23a.461.461,0,0,0,.289-.066.283.283,0,0,0,.089-.2.339.339,0,0,0-.089-.222.386.386,0,0,0-.267-.067c-.689-.022-1.557.022-1.557-.957a.938.938,0,0,1,1.068-.934h1.49v.667H30.874a.528.528,0,0,0-.289.044.319.319,0,0,0-.111.245.242.242,0,0,0,.156.223,1.137,1.137,0,0,0,.289.044h.4a1.262,1.262,0,0,1,.868.245A.961.961,0,0,1,32.409,30.663ZM29.272,30a1.262,1.262,0,0,0-.868-.245H28a1.141,1.141,0,0,1-.289-.044.242.242,0,0,1-.156-.223.261.261,0,0,1,.111-.245.527.527,0,0,1,.289-.044h1.379v-.667h-1.49c-.8,0-1.068.489-1.068.934,0,.978.868.934,1.557.957a.385.385,0,0,1,.267.067.34.34,0,0,1,.089.222.283.283,0,0,1-.089.2.506.506,0,0,1-.289.066H26.87v.667h1.446c.756,0,1.179-.311,1.179-.978A.96.96,0,0,0,29.272,30Zm-2.847,1H24.668v-.623h1.713v-.623H24.668v-.579h1.757v-.645H23.934v3.114h2.491V31Zm-3.292-2.313a1.867,1.867,0,0,0-.912-.156H20.508v3.114h.756V30.507h.8c.267,0,.423.022.534.134a.993.993,0,0,1,.134.623v.378h.734v-.6a1.027,1.027,0,0,0-.111-.578.867.867,0,0,0-.378-.267.857.857,0,0,0,.534-.823A.7.7,0,0,0,23.133,28.683Zm-4.226-.156h-2.38L15.57,29.55l-.912-1.023h-3v3.114h2.959l.957-1.023.912,1.023h1.446V30.6h.934c.645,0,1.29-.178,1.29-1.046C20.153,28.705,19.485,28.527,18.907,28.527Zm3.626,1.29a.924.924,0,0,1-.356.044l-.912.022v-.712h.912a.6.6,0,0,1,.356.067.283.283,0,0,1,.156.267A.389.389,0,0,1,22.532,29.817Zm-3.626.156h-.979v-.8h.979c.267,0,.445.111.445.378A.4.4,0,0,1,18.907,29.973Zm-2.87.111,1.157-1.223v2.514Zm-1.8.912H12.389v-.623h1.646v-.623H12.389v-.579h1.869l.823.912Zm16.1-4.716H29.272l-1.4-2.336V26.28H26.359l-.289-.69H24.512l-.289.69h-.868a1.609,1.609,0,0,1-1.09-.356,1.628,1.628,0,0,1-.378-1.179,1.608,1.608,0,0,1,.4-1.223,1.51,1.51,0,0,1,1.134-.356h.712v.667h-.712a.786.786,0,0,0-.578.178,1.008,1.008,0,0,0-.2.712,1.113,1.113,0,0,0,.2.734.742.742,0,0,0,.511.156h.334l1.068-2.447h1.112L27.115,26.1V23.166h1.157l1.312,2.158V23.166h.756V26.28h0Zm-8.831-3.114h-.756V26.28h.756V23.166ZM19.93,23.3a1.79,1.79,0,0,0-.89-.134H17.327V26.28h.734V25.146h.8a.762.762,0,0,1,.556.134.945.945,0,0,1,.111.6v.4h.756v-.623a.83.83,0,0,0-.133-.556.931.931,0,0,0-.356-.267.883.883,0,0,0,.534-.823.77.77,0,0,0-.4-.712Zm-3.136,2.336H15.059v-.623h1.713v-.645H15.059v-.556h1.735v-.645H14.3V26.28h2.491v-.645Zm-3.047-2.469H12.523l-.912,2.113-.979-2.113h-1.2V26.1L8.163,23.166H7.051L5.716,26.28h.8l.289-.69H8.363l.289.69h1.513V23.834l1.09,2.447H11.9l1.09-2.447V26.28h.756V23.166ZM25.8,24.923,25.291,23.7l-.511,1.223Zm-6.451-.489a.68.68,0,0,1-.378.067h-.912v-.689h.912a.982.982,0,0,1,.378.045.331.331,0,0,1,.134.289A.306.306,0,0,1,19.352,24.434Zm-12.279.489L7.585,23.7,8.1,24.923ZM32.231,13.4H5.694V24.612l.912-2.069H8.541l.267.512v-.512h2.269l.512,1.112.489-1.112h7.229a1.315,1.315,0,0,1,.845.245v-.245h1.98v.245a2.649,2.649,0,0,1,1.246-.245h2.869l.267.512v-.512h2.113l.312.512v-.512h2.068V26.9H28.917l-.4-.667V26.9h-2.6l-.289-.712h-.645l-.289.712H23.333a2.666,2.666,0,0,1-1.2-.267V26.9H18.907v-1c0-.134-.022-.156-.111-.156h-.111V26.9H12.456v-.556l-.222.556H10.921l-.222-.534V26.9H8.185l-.267-.712H7.273l-.289.712H5.694V40.049H32.231V32.064a2.723,2.723,0,0,1-1.09.2H29.206V32a1.716,1.716,0,0,1-1,.267H22.11v-1c0-.134-.022-.134-.134-.134h-.111v1.134h-2V31.085a2.447,2.447,0,0,1-1.045.156H18.6v1.023H16.149L15.57,31.6l-.645.667H10.988V27.9h4l.578.667.623-.667h2.692a1.678,1.678,0,0,1,1.045.267V27.9h2.4a1.9,1.9,0,0,1,1.023.267V27.9h3.626v.267a1.479,1.479,0,0,1,.912-.267h2.024v.267a1.609,1.609,0,0,1,.934-.267h1.379Z" transform="translate(-3.415 -11.24)"/></g></svg>