<svg xmlns="http://www.w3.org/2000/svg" width="30.621" height="53.766" viewBox="0 0 30.621 53.766"><defs><style>.a{fill:#8e8f8d;}</style></defs><g transform="translate(-27.583 -0.115)"><path class="a" d="M58.2,18.145V2.953A2.841,2.841,0,0,0,55.366.115H30.421a2.841,2.841,0,0,0-2.838,2.838V18.145a2.828,2.828,0,0,0,.938,2.1,2.828,2.828,0,0,0-.938,2.1v25.7a2.841,2.841,0,0,0,2.838,2.838h.386v2.258a.736.736,0,0,0,.736.736H36.8a.736.736,0,0,0,.736-.736V50.887H48.254v2.258a.736.736,0,0,0,.736.736h5.255a.736.736,0,0,0,.736-.736V50.887h.386A2.841,2.841,0,0,0,58.2,48.05v-25.7a2.828,2.828,0,0,0-.938-2.1,2.828,2.828,0,0,0,.938-2.1ZM36.062,52.409H32.278V50.887h3.784Zm17.448,0H49.725V50.887h3.784Zm3.223-30.06v25.7a1.368,1.368,0,0,1-1.366,1.366H30.421a1.368,1.368,0,0,1-1.366-1.366v-25.7a1.368,1.368,0,0,1,1.366-1.366H55.366a1.368,1.368,0,0,1,1.366,1.366ZM30.421,19.511a1.368,1.368,0,0,1-1.366-1.366V2.953a1.368,1.368,0,0,1,1.366-1.366H55.366a1.368,1.368,0,0,1,1.366,1.366V18.145a1.368,1.368,0,0,1-1.366,1.366Z" transform="translate(0)"/><path class="a" d="M83.876,12.682H81.144a.736.736,0,0,0-.736.736v8.829a.736.736,0,0,0,.736.736h2.733a.736.736,0,0,0,.736-.736V13.418a.736.736,0,0,0-.736-.736Zm-.736,8.829H81.879V14.153h1.261Z" transform="translate(-30.616 -7.284)"/><path class="a" d="M81.144,66.558h2.733a.736.736,0,0,0,.736-.736V56.994a.736.736,0,0,0-.736-.736H81.144a.736.736,0,0,0-.736.736v8.829a.736.736,0,0,0,.736.736Zm.736-8.829h1.261v7.357H81.879Z" transform="translate(-30.616 -32.539)"/></g></svg>