<svg xmlns="http://www.w3.org/2000/svg" viewBox="0 0 39.31 39.3"><defs><style>.cls-1{fill:#fff;}</style></defs><g id="Calque_2" data-name="Calque 2"><g id="Calque_1-2" data-name="Calque 1"><path id="Icon_awesome-instagram" data-name="Icon awesome-instagram" class="cls-1" d="M19.66,9.57A10.08,10.08,0,1,0,29.74,19.65,10.08,10.08,0,0,0,19.66,9.57Zm0,16.63a6.56,6.56,0,1,1,6.55-6.55h0A6.57,6.57,0,0,1,19.66,26.2Zm12.84-17a2.35,2.35,0,1,1-2.35-2.35A2.35,2.35,0,0,1,32.5,9.16Zm6.67,2.39A11.6,11.6,0,0,0,36,3.31,11.71,11.71,0,0,0,27.76.14C24.52,0,14.79,0,11.55.14A11.7,11.7,0,0,0,3.31,3.3,11.71,11.71,0,0,0,.14,11.54C0,14.78,0,24.51.14,27.75A11.6,11.6,0,0,0,3.31,36a11.71,11.71,0,0,0,8.24,3.17c3.24.19,13,.19,16.21,0A11.6,11.6,0,0,0,36,36a11.71,11.71,0,0,0,3.17-8.24c.19-3.24.19-13,0-16.2ZM35,31.23A6.63,6.63,0,0,1,31.24,35c-2.59,1-8.73.78-11.59.78S10.64,36,8.07,35a6.65,6.65,0,0,1-3.75-3.75c-1-2.58-.79-8.73-.79-11.58s-.22-9,.79-11.59A6.63,6.63,0,0,1,8.07,4.32c2.58-1,8.73-.79,11.58-.79s9-.23,11.59.79A6.62,6.62,0,0,1,35,8.06c1,2.59.79,8.73.79,11.59S36,28.65,35,31.23Z"/></g></g></svg>