<svg xmlns="http://www.w3.org/2000/svg" width="227.677" height="82.226" viewBox="0 0 227.677 82.226"><defs><style>.a{fill:#fff;}</style></defs><g transform="translate(-146.381 -23.245)"><path class="a" d="M421.448,431.119A20.118,20.118,0,1,1,401.33,411h0A20.118,20.118,0,0,1,421.448,431.119Zm-18.554-13.8a13.892,13.892,0,1,0,12.24,15.367h0A13.9,13.9,0,0,0,402.894,417.316Z" transform="translate(-79.494 -346.006)"/><path class="a" d="M447.635,433.968a15.248,15.248,0,1,1-15.248-15.248h0A15.25,15.25,0,0,1,447.635,433.968Zm-15.248-9.88a9.879,9.879,0,1,0,9.88,9.88h0a9.878,9.878,0,0,0-9.875-9.88Z" transform="translate(-73.578 -343.744)"/><path class="a" d="M402.65,418.806a11.884,11.884,0,0,0-11.862,11.861,1.315,1.315,0,0,0,2.629,0,9.235,9.235,0,0,1,9.222-9.222,1.319,1.319,0,1,0,.01-2.639Z" transform="translate(-80.233 -345.021)"/><path class="a" d="M269.8,420.795l-8.655.012-.047-34.084-13.041.012-.012-8.527,34.7-.047.012,8.527-13.006.023Z" transform="translate(-101.663 -351.473)"/><path class="a" d="M290.927,380.744a5.152,5.152,0,0,1-.432,2.111,5.5,5.5,0,0,1-2.951,2.87,5.633,5.633,0,0,1-4.328,0,5.454,5.454,0,0,1-1.761-1.155,5.328,5.328,0,0,1-1.178-1.715,5.1,5.1,0,0,1-.443-2.111,5.373,5.373,0,0,1,1.61-3.826,5.533,5.533,0,0,1,1.75-1.166,5.4,5.4,0,0,1,2.158-.432,5.674,5.674,0,0,1,2.17.42,6.172,6.172,0,0,1,1.773,1.155A5.28,5.28,0,0,1,290.927,380.744Zm-1.365,40.488-8.317.012-.047-31.833,8.317-.012Z" transform="translate(-96.371 -351.946)"/><path class="a" d="M325.189,415.334a15.477,15.477,0,0,1-1.295,6.3,16.3,16.3,0,0,1-3.546,5.144,16.971,16.971,0,0,1-5.261,3.488,16.285,16.285,0,0,1-6.427,1.283l-4.153-.047-.012-8.119,4.083.058a9.48,9.48,0,0,0,3.3-.5,6.632,6.632,0,0,0,2.3-1.341,6.727,6.727,0,0,0,1.493-1.948,12.915,12.915,0,0,0,.9-2.321,3.775,3.775,0,0,1-1.388,1.271,9.973,9.973,0,0,1-2.006.8,13.278,13.278,0,0,1-2.3.432c-.8.082-1.54.117-2.228.128a17.79,17.79,0,0,1-6.427-1.155,15.53,15.53,0,0,1-5.272-3.313,15.168,15.168,0,0,1-3.558-5.272,17.97,17.97,0,0,1-1.306-7.046,16.931,16.931,0,0,1,1.295-6.684,16.427,16.427,0,0,1,15.234-10.2,12.8,12.8,0,0,1,3.115.385,16.483,16.483,0,0,1,3,1.073,18.2,18.2,0,0,1,2.765,1.6,21.611,21.611,0,0,1,2.461,1.983l3.2-3.779h1.995Zm-8.34-12.178a8.34,8.34,0,0,0-.653-3.219,9.537,9.537,0,0,0-1.773-2.765,8.9,8.9,0,0,0-2.613-1.925,7.324,7.324,0,0,0-3.2-.723,8.846,8.846,0,0,0-3.2.572,7.434,7.434,0,0,0-2.6,1.668,7.831,7.831,0,0,0-1.738,2.718,10.172,10.172,0,0,0-.63,3.7,9.417,9.417,0,0,0,.642,3.581,8,8,0,0,0,1.75,2.718,7.566,7.566,0,0,0,2.6,1.726,8.353,8.353,0,0,0,3.2.607,7.165,7.165,0,0,0,3.2-.735,8.917,8.917,0,0,0,2.613-1.936,9.536,9.536,0,0,0,1.773-2.765A8.483,8.483,0,0,0,316.849,403.156Z" transform="translate(-94.332 -350.118)"/><path class="a" d="M357.479,415.284a15.477,15.477,0,0,1-1.295,6.3,16.3,16.3,0,0,1-3.546,5.144,16.972,16.972,0,0,1-5.261,3.488,16.1,16.1,0,0,1-6.427,1.283l-4.153-.047-.012-8.119,4.083.058a9.48,9.48,0,0,0,3.3-.5,6.631,6.631,0,0,0,2.3-1.341,6.9,6.9,0,0,0,1.493-1.948,12.914,12.914,0,0,0,.9-2.321,3.775,3.775,0,0,1-1.388,1.271,9.977,9.977,0,0,1-2.006.8,13.282,13.282,0,0,1-2.3.432c-.8.082-1.54.117-2.228.128a17.79,17.79,0,0,1-6.427-1.155,15.529,15.529,0,0,1-5.272-3.313,15.168,15.168,0,0,1-3.558-5.272,17.971,17.971,0,0,1-1.306-7.046,16.932,16.932,0,0,1,1.295-6.684A16.428,16.428,0,0,1,340.9,386.25a12.8,12.8,0,0,1,3.114.385,16.485,16.485,0,0,1,3,1.073,18.2,18.2,0,0,1,2.765,1.6,21.61,21.61,0,0,1,2.461,1.983l3.2-3.779h1.995Zm-8.34-12.178a8.341,8.341,0,0,0-.653-3.219,9.535,9.535,0,0,0-1.773-2.765A8.894,8.894,0,0,0,344.1,395.2a7.325,7.325,0,0,0-3.2-.723,8.847,8.847,0,0,0-3.2.572,7.434,7.434,0,0,0-2.6,1.668,7.83,7.83,0,0,0-1.738,2.718,10.172,10.172,0,0,0-.63,3.7,9.417,9.417,0,0,0,.642,3.581,8.174,8.174,0,0,0,1.75,2.718,7.565,7.565,0,0,0,2.6,1.726,8.353,8.353,0,0,0,3.2.607,7.165,7.165,0,0,0,3.2-.735,8.917,8.917,0,0,0,2.613-1.936,9.536,9.536,0,0,0,1.773-2.765A8.434,8.434,0,0,0,349.139,403.106Z" transform="translate(-88.956 -350.126)"/><path class="a" d="M368.037,380.634a5.153,5.153,0,0,1-.432,2.111,5.5,5.5,0,0,1-2.951,2.87,5.633,5.633,0,0,1-4.328,0,5.454,5.454,0,0,1-1.761-1.155,5.328,5.328,0,0,1-1.178-1.715,5.1,5.1,0,0,1-.443-2.111,5.373,5.373,0,0,1,1.61-3.826,5.667,5.667,0,0,1,1.75-1.166,5.394,5.394,0,0,1,2.158-.432,5.675,5.675,0,0,1,2.17.42,5.908,5.908,0,0,1,1.773,1.155,5.186,5.186,0,0,1,1.2,1.726A5.578,5.578,0,0,1,368.037,380.634Zm-1.365,40.477-8.317.012-.047-31.833,8.317-.012Z" transform="translate(-83.534 -351.964)"/><g transform="translate(265.128 37.313)"><path class="a" d="M382.517,454.821h-1.971l-3.173-4.339a25.224,25.224,0,0,1-2.461,1.936,17.632,17.632,0,0,1-2.73,1.575,16.965,16.965,0,0,1-2.94,1.05,12.231,12.231,0,0,1-3.056.385,16.1,16.1,0,0,1-15.048-10.008,17.865,17.865,0,0,1-.023-13.3,16.2,16.2,0,0,1,8.69-8.842A15.882,15.882,0,0,1,366.14,422a14.847,14.847,0,0,1,2.228.175,11.33,11.33,0,0,1,2.24.572,9.827,9.827,0,0,1,2.053,1.05,5.969,5.969,0,0,1,1.61,1.586l-.023-38.1,8.2-.012Zm-9.087-16.214a8.34,8.34,0,0,0-.653-3.219,9.446,9.446,0,0,0-1.75-2.765,8.658,8.658,0,0,0-2.59-1.925,7.186,7.186,0,0,0-3.149-.723,8.388,8.388,0,0,0-3.149.595,7.4,7.4,0,0,0-2.566,1.715A8.043,8.043,0,0,0,357.858,435a9.9,9.9,0,0,0-.618,3.628,8.949,8.949,0,0,0,.63,3.336,8.829,8.829,0,0,0,1.726,2.765,7.992,7.992,0,0,0,2.566,1.866,7.444,7.444,0,0,0,3.149.677,6.928,6.928,0,0,0,3.149-.735,8.755,8.755,0,0,0,2.578-1.936,9.174,9.174,0,0,0,1.738-2.765A8.175,8.175,0,0,0,373.43,438.607Z" transform="translate(-349.844 -387.27)"/><path class="a" d="M377.794,413.76" transform="translate(-345.191 -382.86)"/></g></g></svg>