<svg xmlns="http://www.w3.org/2000/svg" viewBox="0 0 180.91 237.39"><defs><style>.cls-1{opacity:0.1;isolation:isolate;}.cls-2{fill:#3fc482;}.cls-3{fill:#59b5a1;}.cls-4{fill:#5852ab;}.cls-5{fill:#0c5769;}.cls-6{fill:#3a0d87;}</style></defs><g id="Calque_2" data-name="Calque 2"><g id="Calque_1-2" data-name="Calque 1"><ellipse id="Ellipse_113" data-name="Ellipse 113" class="cls-1" cx="52.37" cy="230.5" rx="49.57" ry="6.9"/><g id="Groupe_165" data-name="Groupe 165"><g id="Groupe_163" data-name="Groupe 163"><path id="Tracé_787" data-name="Tracé 787" class="cls-2" d="M16.1,145.64c-1.67,1.75-4.72,2.86-8.16,2.73s-6.4-1.45-7.94-3.31c1.67-1.75,4.72-2.86,8.16-2.74S14.56,143.77,16.1,145.64Z"/><g id="Groupe_162" data-name="Groupe 162"><path id="Tracé_788" data-name="Tracé 788" class="cls-2" d="M155.66,72.73a165.2,165.2,0,0,0-19.48,12.92,225.3,225.3,0,0,0-48.31,50.6,218.91,218.91,0,0,0-22.35,41.17,228.2,228.2,0,0,0-12.93,45.11l3.31.56A225.2,225.2,0,0,1,68,178.4a216.37,216.37,0,0,1,21.48-41.07,223.84,223.84,0,0,1,47.23-51,165.46,165.46,0,0,1,19.2-13.16Z"/><path id="Tracé_789" data-name="Tracé 789" class="cls-2" d="M180.91,55.11c-.36,5.2-3.82,11-9.58,15S159,75.48,154,74.07c.36-5.2,3.82-11,9.58-15S175.9,53.7,180.91,55.11Z"/><path id="Tracé_790" data-name="Tracé 790" class="cls-2" d="M142.14,50.7c3.85,3.52,6.21,9.81,5.8,16.83s-3.47,13-7.7,16.07c-3.84-3.52-6.21-9.81-5.8-16.84S137.92,53.75,142.14,50.7Z"/><path id="Tracé_791" data-name="Tracé 791" class="cls-2" d="M83.93,0c-4.46,2.69-8,8.39-9,15.36s.84,13.44,4.38,17.26c4.46-2.69,8-8.39,9-15.36S87.47,3.83,83.93,0Z"/><path id="Tracé_792" data-name="Tracé 792" class="cls-2" d="M57.64,24c-.55,4,1.18,9,5,13s8.59,6.06,12.65,5.77c.55-4-1.18-9-4.95-13S61.7,23.74,57.64,24Z"/><path id="Tracé_793" data-name="Tracé 793" class="cls-2" d="M75.6,43.4c3.42,2.2,8.64,2.75,13.86,1.06s9.15-5.2,10.62-9c-3.42-2.21-8.64-2.76-13.87-1.07S77.07,39.6,75.6,43.4Z"/><path id="Tracé_794" data-name="Tracé 794" class="cls-2" d="M70.88,59.44c3.42,2.21,8.64,2.76,13.87,1.06s9.15-5.19,10.62-9C92,49.3,86.73,48.76,81.5,50.45S72.36,55.65,70.88,59.44Z"/><path id="Tracé_795" data-name="Tracé 795" class="cls-2" d="M65.54,77.62c3.42,2.2,8.64,2.75,13.87,1.06s9.15-5.19,10.62-9c-3.42-2.21-8.64-2.76-13.87-1.06S67,73.82,65.54,77.62Z"/><path id="Tracé_796" data-name="Tracé 796" class="cls-2" d="M62,94.12c3.41,2.21,8.64,2.76,13.86,1.06S85,90,86.44,86.19C83,84,77.8,83.44,72.57,85.13S63.43,90.32,62,94.12Z"/><path id="Tracé_797" data-name="Tracé 797" class="cls-2" d="M61.06,94.25c-3.87,1.26-9.05.45-13.68-2.53s-7.5-7.36-8-11.4c3.87-1.26,9.06-.45,13.68,2.53S60.6,90.2,61.06,94.25Z"/><path id="Tracé_798" data-name="Tracé 798" class="cls-2" d="M52.84,39.72c-.55,4,1.19,9,4.95,13s8.59,6.07,12.66,5.78c.55-4-1.19-9-5-13S56.9,39.44,52.84,39.72Z"/><path id="Tracé_799" data-name="Tracé 799" class="cls-2" d="M47.61,58.24c-.55,4,1.18,9,5,13S61.15,77.31,65.21,77c.54-4-1.19-9-4.95-13S51.67,58,47.61,58.24Z"/><path id="Tracé_800" data-name="Tracé 800" class="cls-2" d="M119.25,62.19c4.65,2.36,8.6,7.8,10.08,14.68s.12,13.46-3.14,17.53c-4.64-2.37-8.6-7.8-10.08-14.69S116,66.26,119.25,62.19Z"/><path id="Tracé_801" data-name="Tracé 801" class="cls-2" d="M103.81,76.39c4.64,2.37,8.6,7.8,10.08,14.69s.12,13.45-3.14,17.52c-4.64-2.36-8.6-7.8-10.07-14.68S100.55,80.47,103.81,76.39Z"/><path id="Tracé_802" data-name="Tracé 802" class="cls-2" d="M86,91c5.09,1.1,10.31,5.34,13.5,11.61s3.56,13,1.45,17.76c-5.1-1.11-10.31-5.34-13.5-11.62S83.93,95.76,86,91Z"/><path id="Tracé_803" data-name="Tracé 803" class="cls-2" d="M73.52,109.28c4.65-.2,10.11,2.29,14.28,7s6,10.42,5.25,15c-4.65.2-10.11-2.29-14.28-7S72.77,113.87,73.52,109.28Z"/><path id="Tracé_804" data-name="Tracé 804" class="cls-2" d="M64.44,120.77c4.65-.2,10.11,2.29,14.28,7s6,10.42,5.25,15c-4.65.2-10.11-2.29-14.28-7S63.69,125.36,64.44,120.77Z"/><path id="Tracé_805" data-name="Tracé 805" class="cls-2" d="M59.25,137.72c4-.17,8.66,2,12.24,6s5.14,8.92,4.5,12.86c-4,.17-8.66-2-12.24-6S58.61,141.66,59.25,137.72Z"/><path id="Tracé_806" data-name="Tracé 806" class="cls-2" d="M54.22,155.4c2.9-1.64,7.21-1.83,11.44-.2S72.94,159.86,74,163c-2.9,1.64-7.21,1.82-11.44.2S55.26,158.55,54.22,155.4Z"/><path id="Tracé_807" data-name="Tracé 807" class="cls-2" d="M52.18,170c1.79-2,5-3.24,8.64-3.09s6.73,1.69,8.33,3.82c-1.78,2-5,3.23-8.63,3.08S53.79,172.1,52.18,170Z"/><path id="Tracé_808" data-name="Tracé 808" class="cls-2" d="M171.34,93.81c-4.43,2.75-11.13,3.31-17.78,1S142,87.94,140.2,83c4.43-2.75,11.12-3.31,17.78-1S169.55,88.92,171.34,93.81Z"/><path id="Tracé_809" data-name="Tracé 809" class="cls-2" d="M157.29,105.38c-4.43,2.74-11.13,3.31-17.78,1s-11.58-6.88-13.36-11.77c4.43-2.75,11.12-3.31,17.78-1S155.5,100.48,157.29,105.38Z"/><path id="Tracé_810" data-name="Tracé 810" class="cls-2" d="M142.31,119.64c-4.43,2.74-11.12,3.31-17.78,1s-11.57-6.88-13.36-11.78c4.43-2.75,11.12-3.31,17.78-1S140.51,114.74,142.31,119.64Z"/><path id="Tracé_811" data-name="Tracé 811" class="cls-2" d="M125.39,129.12c-3.6,2.23-9,2.69-14.45.82s-9.42-5.6-10.87-9.58c3.6-2.23,9.05-2.69,14.46-.81S124,125.15,125.39,129.12Z"/><path id="Tracé_812" data-name="Tracé 812" class="cls-2" d="M112.74,138.19c-2.95,1.9-7.37,2.34-11.74.83s-7.58-4.59-8.72-7.91c3-1.91,7.37-2.35,11.74-.83S111.6,134.87,112.74,138.19Z"/><path id="Tracé_813" data-name="Tracé 813" class="cls-2" d="M105.17,149.84c-3,1.9-7.37,2.34-11.74.83s-7.58-4.59-8.72-7.91c3-1.91,7.37-2.34,11.74-.83S104,146.52,105.17,149.84Z"/><path id="Tracé_814" data-name="Tracé 814" class="cls-2" d="M96.88,160.38c-2.38,2-6.39,3-10.68,2.33s-7.77-2.9-9.4-5.58c2.39-2,6.39-3,10.68-2.31S95.25,157.69,96.88,160.38Z"/><path id="Tracé_815" data-name="Tracé 815" class="cls-2" d="M88.87,173.66c-2.69.77-6.27.08-9.43-2.08s-5.11-5.24-5.38-8c2.69-.77,6.27-.08,9.43,2.08S88.6,170.87,88.87,173.66Z"/><path id="Tracé_816" data-name="Tracé 816" class="cls-2" d="M79.94,181.59a9.93,9.93,0,0,1-9.69-9.7A9.91,9.91,0,0,1,79.94,181.59Z"/><path id="Tracé_817" data-name="Tracé 817" class="cls-2" d="M74,183.67a5.55,5.55,0,0,1-5.92-5.15,5.08,5.08,0,0,1,0-.78A5.55,5.55,0,0,1,74,182.89,5.08,5.08,0,0,1,74,183.67Z"/><path id="Tracé_818" data-name="Tracé 818" class="cls-2" d="M72.11,187.58a5.55,5.55,0,0,1-5.92-5.16,5,5,0,0,1,0-.77,5.55,5.55,0,0,1,5.93,5.14A6.91,6.91,0,0,1,72.11,187.58Z"/><path id="Tracé_819" data-name="Tracé 819" class="cls-2" d="M54.91,217.21a292.35,292.35,0,0,1-3.09-47.29c.07-7.9.5-15.79,1.13-23.66s1.56-15.7,2.66-23.51A432.53,432.53,0,0,1,64.93,76.4q3-11.45,6.52-22.72c2.39-7.51,4.94-15,7.89-22.29l.93.38c-2.83,7.3-5.29,14.78-7.58,22.29s-4.36,15.09-6.22,22.72A435,435,0,0,0,57.77,123c-1,7.78-1.85,15.58-2.35,23.4s-.86,15.66-.82,23.49a289.35,289.35,0,0,0,3.63,46.75Z"/><g id="Groupe_161" data-name="Groupe 161"><path id="Tracé_820" data-name="Tracé 820" class="cls-3" d="M34.66,169.19c-7.36-10.78-15.11-21.31-23.38-31.42l.13-.11c8.48,10,16.45,20.32,24,31A372.27,372.27,0,0,1,56.6,201.72q2.32,4.16,4.51,8.39l-1.71,1q-2.1-4.29-4.36-8.51A369.1,369.1,0,0,0,34.66,169.19Z"/><path id="Tracé_821" data-name="Tracé 821" class="cls-3" d="M3.33,124A10.66,10.66,0,0,1,12,136.35a10.68,10.68,0,0,1-.37,1.48A10.65,10.65,0,0,1,3,125.51,12.47,12.47,0,0,1,3.33,124Z"/><path id="Tracé_822" data-name="Tracé 822" class="cls-3" d="M23.34,130.31c1.1,2.16,1.16,5.4-.08,8.6s-3.46,5.58-5.73,6.43c-1.1-2.16-1.16-5.4.08-8.6S21.06,131.16,23.34,130.31Z"/><path id="Tracé_823" data-name="Tracé 823" class="cls-3" d="M24,154c-1.84,1.57-5,2.37-8.39,1.9s-6.22-2.09-7.57-4.1c1.84-1.57,5-2.37,8.39-1.9S22.67,152,24,154Z"/><path id="Tracé_824" data-name="Tracé 824" class="cls-3" d="M32.16,164.54c-1.84,1.57-5,2.37-8.39,1.9s-6.22-2.09-7.57-4.1c1.84-1.57,5-2.37,8.39-1.9S30.81,162.53,32.16,164.54Z"/><path id="Tracé_825" data-name="Tracé 825" class="cls-3" d="M37.68,172.91c-1.84,1.57-5,2.37-8.39,1.9s-6.22-2.09-7.57-4.1c1.84-1.57,5-2.37,8.39-1.9S36.34,170.9,37.68,172.91Z"/><path id="Tracé_826" data-name="Tracé 826" class="cls-3" d="M43.82,182.15c-1.85,1.57-5,2.37-8.4,1.9S29.21,182,27.86,180c1.84-1.57,5-2.37,8.39-1.9S42.47,180.14,43.82,182.15Z"/><path id="Tracé_827" data-name="Tracé 827" class="cls-3" d="M30.42,139.33c1.1,2.15,1.16,5.4-.08,8.6s-3.46,5.57-5.72,6.43c-1.1-2.16-1.16-5.4.07-8.61S28.16,140.18,30.42,139.33Z"/><path id="Tracé_828" data-name="Tracé 828" class="cls-3" d="M37.2,148.61c1.1,2.15,1.16,5.39-.08,8.6s-3.46,5.57-5.73,6.43c-1.1-2.16-1.16-5.4.08-8.61S34.92,149.46,37.2,148.61Z"/><path id="Tracé_829" data-name="Tracé 829" class="cls-3" d="M43.64,158c1.1,2.15,1.16,5.4-.08,8.6s-3.46,5.57-5.72,6.42c-1.1-2.15-1.16-5.4.07-8.6S41.37,158.82,43.64,158Z"/><path id="Tracé_830" data-name="Tracé 830" class="cls-3" d="M49.88,167.13c1.1,2.15,1.16,5.4-.08,8.6s-3.46,5.57-5.72,6.42c-1.1-2.15-1.16-5.4.07-8.6S47.62,168,49.88,167.13Z"/></g></g></g><g id="Groupe_164" data-name="Groupe 164"><rect id="Rectangle_313" data-name="Rectangle 313" class="cls-4" x="33.79" y="200.54" width="34.94" height="32.59"/><rect id="Rectangle_314" data-name="Rectangle 314" class="cls-5" x="25.72" y="194.12" width="51.08" height="2.67"/><rect id="Rectangle_315" data-name="Rectangle 315" class="cls-6" x="28.86" y="196.79" width="44.81" height="5.8"/></g></g></g></g></svg>